{"glyphs":{"0":{"ha":0,"x_min":0,"x_max":0,"o":""},"1":{"ha":-10,"x_min":0,"x_max":0,"o":"m 504 999 b 433 972 485 999 461 989 l 171 808 b 158 746 147 793 146 767 b 221 726 172 724 196 713 l 457 876 l 457 42 l 1369 42 b 1315 86 1369 74 1347 86 z "},"2":{"ha":-10,"x_min":0,"x_max":0,"o":"m 417 1008 b 121 842 275 1008 179 936 b 136 778 107 818 114 793 b 199 789 158 763 185 768 b 419 917 251 869 317 917 b 611 757 544 917 611 854 l 611 749 b 493 515 611 672 588 619 l 139 126 b 101 60 110 93 101 78 b 178 6 101 24 122 6 l 718 6 b 718 NaN 744 6 718 NaN l 235 NaN l 581 NaN b 713 NaN 672 NaN 713 NaN l 713 NaN b 417 NaN 713 NaN 611 NaN z "},"3":{"ha":-10,"x_min":0,"x_max":0,"o":"m 401 1008 b 133 882 278 1008 186 953 b 161 883 118 882 99 883 b NaN NaN 197 883 285 NaN b NaN NaN NaN NaN NaN NaN l NaN NaN b NaN NaN NaN NaN NaN NaN l NaN NaN l NaN NaN l NaN NaN l NaN NaN l NaN NaN l NaN NaN b NaN NaN NaN NaN NaN NaN l NaN NaN b NaN NaN NaN NaN NaN NaN b NaN NaN NaN NaN NaN NaN b NaN NaN NaN NaN NaN NaN b NaN NaN NaN NaN NaN NaN b NaN NaN NaN NaN NaN NaN b NaN NaN NaN NaN NaN NaN z "},"4":{"ha":-10,"x_min":0,"x_max":0,"o":"m 586 989 b 524 979 565 1003 540 1003 l 86 347 b 51 278 56 303 51 292 b 124 226 51 243 71 226 l 560 226 l 560 42 l 560 13 l 583 13 l 583 0 l 610 0 l 610 185 l 728 185 b 763 228 753 185 763 204 b 728 271 763 251 753 271 l 610 271 l 610 551 l 610 581 l 585 581 l 585 593 l 558 593 l 558 313 l 174 313 l 599 924 b 585 989 617 951 608 975 z "},"5":{"ha":0,"x_min":0,"x_max":0,"o":""},"6":{"ha":0,"x_min":0,"x_max":0,"o":""},"7":{"ha":0,"x_min":0,"x_max":0,"o":""},"8":{"ha":0,"x_min":0,"x_max":0,"o":""},"9":{"ha":-10,"x_min":0,"x_max":0,"o":"m 408 1008 b 79 690 218 1008 79 888 l 79 665 b 389 356 79 474 200 356 b 649 493 499 356 604 406 b 376 83 639 199 554 83 b 193 129 304 83 244 100 b 132 108 167 142 143 133 b 149 44 119 83 125 60 b 372 -10 203 13 282 -10 b 747 219 606 -10 747 128 b NaN NaN 747 125 597 NaN l NaN NaN b NaN NaN NaN NaN NaN NaN b NaN NaN NaN NaN NaN NaN l NaN NaN b NaN NaN NaN NaN NaN NaN z "},"\u0000":{"ha":-496,"x_min":0,"x_max":0,"o":""},"\u0001":{"ha":-496,"x_min":0,"x_max":0,"o":""},"\u0002":{"ha":-496,"x_min":0,"x_max":0,"o":""},"\u0003":{"ha":-496,"x_min":0,"x_max":0,"o":""},"\u0004":{"ha":-496,"x_min":0,"x_max":0,"o":""},"\u0005":{"ha":-496,"x_min":0,"x_max":0,"o":""},"\u0006":{"ha":-496,"x_min":0,"x_max":0,"o":""},"\u0007":{"ha":-496,"x_min":0,"x_max":0,"o":""},"\b":{"ha":-496,"x_min":0,"x_max":0,"o":""},"\t":{"ha":-496,"x_min":0,"x_max":0,"o":""},"\n":{"ha":-496,"x_min":0,"x_max":0,"o":""},"\u000b":{"ha":-496,"x_min":0,"x_max":0,"o":""},"\f":{"ha":-496,"x_min":0,"x_max":0,"o":""},"\r":{"ha":-496,"x_min":0,"x_max":0,"o":""},"\u000e":{"ha":-496,"x_min":0,"x_max":0,"o":""},"\u000f":{"ha":-496,"x_min":0,"x_max":0,"o":""},"\u0010":{"ha":-496,"x_min":0,"x_max":0,"o":""},"\u0011":{"ha":-496,"x_min":0,"x_max":0,"o":""},"\u0012":{"ha":-496,"x_min":0,"x_max":0,"o":""},"\u0013":{"ha":-496,"x_min":0,"x_max":0,"o":""},"\u0014":{"ha":-496,"x_min":0,"x_max":0,"o":""},"\u0015":{"ha":-496,"x_min":0,"x_max":0,"o":""},"\u0016":{"ha":-496,"x_min":0,"x_max":0,"o":""},"\u0017":{"ha":-496,"x_min":0,"x_max":0,"o":""},"\u0018":{"ha":-496,"x_min":0,"x_max":0,"o":""},"\u0019":{"ha":-496,"x_min":0,"x_max":0,"o":""},"\u001a":{"ha":-496,"x_min":0,"x_max":0,"o":""},"\u001b":{"ha":-496,"x_min":0,"x_max":0,"o":""},"\u001c":{"ha":-496,"x_min":0,"x_max":0,"o":""},"\u001d":{"ha":-496,"x_min":0,"x_max":0,"o":""},"\u001e":{"ha":-496,"x_min":0,"x_max":0,"o":""},"\u001f":{"ha":-496,"x_min":0,"x_max":0,"o":""}," ":{"ha":-496,"x_min":0,"x_max":0,"o":""}," ":{"ha":-496,"x_min":0,"x_max":0,"o":""},"!":{"ha":-447,"x_min":0,"x_max":0,"o":"m 199 1021 b 143 972 165 1021 142 1006 l 154 296 b 199 251 156 264 174 251 b 242 296 222 251 242 264 b 319 372 285 296 319 329 b 242 450 319 415 285 450 z "},"\"":{"ha":-321,"x_min":0,"x_max":0,"o":"m 200 0 z "},"#":{"ha":-15,"x_min":0,"x_max":0,"o":"m 336 999 b 289 964 311 1000 293 989 l 254 719 l 124 719 l 124 839 l 86 575 l -40 575 l -40 690 l -74 450 b -39 408 -78 424 -62 410 b 10 442 -12 406 6 418 l 43 690 l 250 690 l 217 690 l 217 450 l 213 450 l 213 424 l 228 424 l 228 410 l 253 410 l 253 539 l 135 539 l 171 803 l 299 803 l 299 688 b 92 NaN 332 925 336 889 l NaN NaN l NaN NaN l NaN NaN b NaN NaN NaN NaN NaN NaN "},"$":{"ha":-8,"x_min":0,"x_max":0,"o":"m 419 1076 b 354 1069 401 1060 378 1075 b 331 996 340 1046 325 1024 b 533 901 354 982 431 932 b NaN NaN 638 896 NaN NaN l NaN NaN b NaN NaN NaN NaN NaN NaN b NaN NaN NaN NaN NaN NaN l NaN NaN b NaN NaN NaN NaN NaN NaN l NaN NaN b NaN NaN NaN NaN NaN NaN l NaN NaN b NaN NaN NaN NaN NaN NaN b NaN NaN NaN NaN NaN NaN b NaN NaN NaN NaN NaN NaN b NaN NaN NaN NaN NaN NaN l NaN NaN b NaN NaN NaN NaN NaN NaN l NaN NaN l NaN NaN b NaN NaN NaN NaN NaN NaN l NaN NaN b NaN NaN NaN NaN NaN NaN z m NaN NaN l NaN NaN b NaN NaN NaN NaN NaN NaN l NaN NaN b NaN NaN NaN NaN NaN NaN z "},"%":{"ha":0,"x_min":0,"x_max":0,"o":"m 383 -60 b 518 -232 474 -60 518 -112 l 518 -254 b 383 -425 518 -372 474 -425 b 249 -254 292 -425 249 -372 l 249 -232 b 383 -60 249 -112 292 -60 "},"&":{"ha":0,"x_min":0,"x_max":0,"o":"b 856 42 0 69 854 42 b 810 3 832 43 810 29 b 751 -224 807 -78 788 -157 l 511 49 b 719 310 669 138 719 222 l 719 326 b 479 524 719 426 633 524 b 236 328 331 524 236 440 l 236 313 b 340 106 236 233 286 167 l 371 71 l 179 -31 l 114 -14 b 110 NaN 94 13 93 33 b 114 NaN 129 NaN 135 NaN m -471 NaN l -471 NaN b -322 NaN -471 NaN -417 NaN b -175 NaN -229 NaN -175 NaN l -175 NaN b -347 NaN -175 NaN -224 NaN l -367 NaN b -471 NaN -428 NaN -471 NaN z m -357 NaN b -587 NaN -486 NaN -587 NaN l -587 NaN b -372 NaN -587 NaN -551 NaN l -104 NaN b -357 NaN -164 NaN -249 NaN z "},"'":{"ha":-519,"x_min":0,"x_max":0,"o":""},"(":{"ha":0,"x_min":0,"x_max":0,"o":"b -465 -111 -401 342 -465 124 l -465 -140 b -675 -44 -700 -76 -681 -65 b NaN NaN -687 -25 NaN NaN b NaN NaN NaN NaN NaN NaN l NaN NaN b NaN NaN NaN NaN NaN NaN b NaN NaN NaN NaN NaN NaN "},")":{"ha":0,"x_min":0,"x_max":0,"o":""},"*":{"ha":-201,"x_min":0,"x_max":0,"o":"m 319 1035 b 276 996 294 1035 274 1019 l 289 810 l 133 914 b 78 894 114 926 90 918 b 94 839 67 872 71 849 l 267 756 l 94 675 b 78 618 71 665 67 640 b 133 600 90 596 114 588 l 289 703 l 276 519 b 319 481 274 494 294 481 b 364 519 346 481 367 494 l 351 703 l 508 600 b 563 618 526 588 551 596 b 547 675 575 640 571 665 l 374 756 "},"+":{"ha":-17,"x_min":0,"x_max":0,"o":"m 414 849 b 367 811 390 849 367 838 l 101 811 l 101 1081 b 56 1118 101 1107 79 1118 z "},",":{"ha":0,"x_min":0,"x_max":0,"o":""},"-":{"ha":-264,"x_min":0,"x_max":0,"o":"m 476 543 l 103 543 "},".":{"ha":-522,"x_min":0,"x_max":0,"o":""},"/":{"ha":-283,"x_min":0,"x_max":0,"o":"m 494 1108 b 435 1083 471 1117 444 1111 l 36 -122 b 65 -174 26 -149 42 -167 b 125 -149 89 -182 115 -176 l 525 1056 b 494 1108 533 1082 518 1101 z "},":":{"ha":0,"x_min":0,"x_max":0,"o":"m 0 -531 z "},";":{"ha":0,"x_min":0,"x_max":0,"o":"m 21 -532 b -53 -579 -14 -526 -46 -540 l -90 -814 b -58 -861 -94 -840 -83 -857 b -4 -828 -33 -865 -14 -856 l 64 -601 b 21 -532 76 -564 57 -537 z "},"<":{"ha":0,"x_min":0,"x_max":0,"o":""},"=":{"ha":-3,"x_min":0,"x_max":0,"o":"m 704 689 z m 704 396 l 136 396 l 136 964 l -432 964 l -432 1532 b -432 NaN -407 1532 -432 NaN z "},">":{"ha":0,"x_min":0,"x_max":0,"o":""},"?":{"ha":-117,"x_min":0,"x_max":0,"o":"m 354 1008 b 88 904 242 1008 146 960 b 85 840 67 886 67 860 b 147 833 101 819 126 817 b 99 854 147 882 200 944 b -35 606 -18 750 -35 700 b 15 565 -35 578 -11 565 b 63 604 39 565 63 579 b 189 814 63 674 75 711 b 333 1057 285 900 333 964 l 333 1072 b 38 1322 333 1224 221 1322 z m 14 432 b -64 354 -29 432 -64 397 b 14 278 -64 311 -29 278 b 92 354 58 278 92 311 b 14 432 92 397 58 432 z "},"@":{"ha":0,"x_min":0,"x_max":0,"o":""},"A":{"ha":0,"x_min":0,"x_max":0,"o":""},"B":{"ha":0,"x_min":0,"x_max":0,"o":""},"C":{"ha":0,"x_min":0,"x_max":0,"o":"b 353 -15 488 53 435 -15 b NaN NaN 325 -15 214 NaN b NaN NaN NaN NaN NaN NaN b NaN NaN NaN NaN NaN NaN b NaN NaN NaN NaN NaN NaN "},"D":{"ha":0,"x_min":0,"x_max":0,"o":""},"E":{"ha":0,"x_min":0,"x_max":0,"o":""},"F":{"ha":-44,"x_min":0,"x_max":0,"o":"m 693 993 l 693 521 l 1103 521 l 1103 956 b 1103 NaN 1128 956 1103 NaN z "},"G":{"ha":92,"x_min":0,"x_max":0,"o":"m 503 1008 b 211 865 503 729 368 865 b 610 983 489 865 610 960 b NaN NaN 610 1015 672 NaN l NaN NaN l NaN NaN l NaN NaN l NaN NaN b NaN NaN NaN NaN NaN NaN b NaN NaN NaN NaN NaN NaN b NaN NaN NaN NaN NaN NaN b NaN NaN NaN NaN NaN NaN b NaN NaN NaN NaN NaN NaN b NaN NaN NaN NaN NaN NaN b NaN NaN NaN NaN NaN NaN z "},"H":{"ha":0,"x_min":0,"x_max":0,"o":""},"I":{"ha":-486,"x_min":0,"x_max":0,"o":""},"J":{"ha":0,"x_min":0,"x_max":0,"o":"l 0 -192 l 474 -192 l 474 -864 b 306 -1064 474 -1004 419 -1064 b 154 -1019 246 -1064 199 -1047 b 143 -947 129 -1019 143 -1042 b NaN NaN 143 -858 331 NaN "},"K":{"ha":0,"x_min":0,"x_max":0,"o":""},"L":{"ha":-465,"x_min":0,"x_max":0,"o":"l -78 0 l -78 474 "},"M":{"ha":0,"x_min":0,"x_max":0,"o":""},"N":{"ha":129,"x_min":0,"x_max":0,"o":""},"O":{"ha":135,"x_min":0,"x_max":0,"o":""},"P":{"ha":0,"x_min":0,"x_max":0,"o":""},"Q":{"ha":132,"x_min":0,"x_max":0,"o":"m 489 1008 b 18 878 489 743 179 878 b 385 981 283 878 385 956 b NaN NaN 385 1021 444 NaN l NaN NaN b NaN NaN NaN NaN NaN NaN b NaN NaN NaN NaN NaN NaN l NaN NaN b NaN NaN NaN NaN NaN NaN l NaN NaN b NaN NaN NaN NaN NaN NaN z m NaN NaN b NaN NaN NaN NaN NaN NaN l NaN NaN b NaN NaN NaN NaN NaN NaN l NaN NaN b NaN NaN NaN NaN NaN NaN b NaN NaN NaN NaN NaN NaN b NaN NaN NaN NaN NaN NaN z "},"R":{"ha":44,"x_min":0,"x_max":0,"o":"m 457 993 l 457 757 l 842 757 l 842 968 b 901 972 863 968 882 969 l 1104 567 b 1171 549 1118 540 1144 535 b 1193 611 1197 561 1207 583 l 1000 989 z m 772 511 "},"S":{"ha":3,"x_min":0,"x_max":0,"o":"m 431 1008 b 222 826 233 878 219 853 b NaN NaN 247 810 NaN NaN b NaN NaN NaN NaN NaN NaN b NaN NaN NaN NaN NaN NaN l NaN NaN b NaN NaN NaN NaN NaN NaN b NaN NaN NaN NaN NaN NaN l NaN NaN b NaN NaN NaN NaN NaN NaN b NaN NaN NaN NaN NaN NaN b NaN NaN NaN NaN NaN NaN b NaN NaN NaN NaN NaN NaN z "},"T":{"ha":-31,"x_min":0,"x_max":0,"o":"m 749 993 l 64 993 l 64 1285 l -799 1285 l -799 2147 l -507 2147 "},"U":{"ha":0,"x_min":0,"x_max":0,"o":""},"V":{"ha":0,"x_min":0,"x_max":0,"o":"b 789 99 828 69 817 99 b 853 88 801 99 825 88 b 917 132 881 88 903 99 l 1254 1022 b 1225 1082 1265 1053 1250 1074 "},"W":{"ha":513,"x_min":0,"x_max":0,"o":"m 679 999 l 649 975 b 615 NaN 633 939 622 911 b 579 NaN 585 NaN 569 NaN l 828 NaN b 894 NaN 839 NaN 865 NaN b 961 NaN 922 NaN 950 NaN l 1189 NaN l 1414 NaN b 1481 NaN 1425 NaN 1451 NaN b 1546 NaN 1508 NaN 1536 NaN l 1797 NaN b 1764 NaN 1806 NaN 1792 NaN b 1704 NaN 1736 NaN 1711 NaN l 1481 NaN l 1254 NaN b 1189 NaN 1244 NaN 1218 NaN z "},"X":{"ha":42,"x_min":0,"x_max":0,"o":"m 775 990 b 708 974 751 1006 725 1000 l 451 583 "},"Y":{"ha":0,"x_min":0,"x_max":0,"o":""},"Z":{"ha":0,"x_min":0,"x_max":0,"o":""},"[":{"ha":-342,"x_min":0,"x_max":0,"o":"m 414 1106 l 414 904 l -681 904 b -586 814 -681 836 -657 814 "},"\\":{"ha":0,"x_min":0,"x_max":0,"o":""},"]":{"ha":0,"x_min":0,"x_max":0,"o":""},"^":{"ha":-108,"x_min":0,"x_max":0,"o":"m 368 1025 b 299 975 338 1025 319 1013 b 472 NaN 101 986 125 1178 l NaN NaN l NaN NaN b NaN NaN NaN NaN NaN NaN b NaN NaN NaN NaN NaN NaN l NaN NaN b NaN NaN NaN NaN NaN NaN z "},"_":{"ha":-169,"x_min":0,"x_max":0,"o":"m 638 -57 l 35 -57 b 4 -97 14 -57 4 -74 b 35 -135 4 -119 14 -135 l 638 -135 b 671 -97 660 -135 671 -119 b 638 -57 671 -74 660 -57 z "},"`":{"ha":-385,"x_min":0,"x_max":0,"o":"m 156 1056 b 147 989 133 1038 128 1010 l 272 853 "},"a":{"ha":0,"x_min":0,"x_max":0,"o":""},"b":{"ha":0,"x_min":0,"x_max":0,"o":"l 0 -21 l 171 -21 l 171 -972 l 231 -972 l 231 -969 b 451 -1075 269 -1035 356 -1075 b 161 -775 451 -893 353 -775 b -67 -894 65 -775 -26 -821 "},"c":{"ha":0,"x_min":0,"x_max":0,"o":""},"d":{"ha":0,"x_min":0,"x_max":0,"o":"l 0 -21 l 651 -21 l 651 -369 b 432 -271 617 -312 535 -271 b 518 -108 432 -183 481 -108 l 521 -108 l 521 -186 "},"e":{"ha":0,"x_min":0,"x_max":0,"o":""},"f":{"ha":0,"x_min":0,"x_max":0,"o":""},"g":{"ha":-21,"x_min":0,"x_max":0,"o":"m 382 742 b 83 403 200 742 83 629 l 83 353 b 372 14 83 132 183 14 b 600 138 478 14 563 61 l 603 138 l 603 28 b 394 -192 603 -126 525 -192 b 218 -139 326 -192 267 -171 b 160 -156 194 -126 174 -133 b 172 -219 146 -176 149 -206 b 271 -339 172 -256 229 -339 b 63 -531 168 -339 63 -421 b 169 -586 63 -669 -4 -586 l 169 -547 b 378 -290 169 -371 249 -290 z "},"h":{"ha":0,"x_min":0,"x_max":0,"o":"l 0 -14 l 169 -14 l 169 1019 l -782 1019 l -410 1019 b -458 1060 -410 1047 -433 1060 "},"i":{"ha":0,"x_min":0,"x_max":0,"o":"b 822 -1169 0 -494 174 -1143 "},"j":{"ha":0,"x_min":0,"x_max":0,"o":""},"k":{"ha":0,"x_min":0,"x_max":0,"o":"b -924 -49 -83 171 -1033 292 l NaN NaN "},"l":{"ha":0,"x_min":0,"x_max":0,"o":""},"m":{"ha":408,"x_min":0,"x_max":0,"o":"m 436 742 b 217 617 319 742 250 681 l 217 692 l -433 692 l -433 1119 b -246 1303 -433 1201 -374 1303 b -75 1108 -124 1303 -75 1238 l -75 692 l 351 692 b 542 876 351 779 417 876 b 711 682 660 876 711 813 l 711 265 l 711 236 l 735 236 l 735 676 b 488 936 735 825 654 936 b 247 803 367 936 290 879 b 32 936 221 881 150 936 z "},"n":{"ha":0,"x_min":0,"x_max":0,"o":"l 0 -14 l -418 -14 l -418 -43 l -394 -43 l -394 399 b -656 657 -394 557 -487 657 "},"o":{"ha":0,"x_min":0,"x_max":0,"o":""},"p":{"ha":0,"x_min":0,"x_max":0,"o":""},"q":{"ha":-21,"x_min":0,"x_max":0,"o":"m 382 742 b 467 903 382 826 429 903 l 469 903 l 469 556 b 519 515 469 528 493 515 b 568 556 543 515 568 528 l 568 1476 l 568 1428 l 567 1428 b 346 1526 531 1485 447 1526 "},"r":{"ha":-281,"x_min":0,"x_max":0,"o":"m 429 742 b 382 656 429 631 357 656 b 372 NaN 376 656 372 676 b 424 NaN 397 NaN 417 NaN b 401 NaN 431 NaN 424 NaN b 321 NaN 379 NaN 353 NaN z "},"s":{"ha":0,"x_min":0,"x_max":0,"o":"b 311 -197 0 -136 361 -197 b 108 -249 190 -197 108 -276 b NaN NaN 108 -215 54 NaN b NaN NaN NaN NaN NaN NaN b NaN NaN NaN NaN NaN NaN b NaN NaN NaN NaN NaN NaN b NaN NaN NaN NaN NaN NaN l NaN NaN b NaN NaN NaN NaN NaN NaN b NaN NaN NaN NaN NaN NaN l NaN NaN b NaN NaN NaN NaN NaN NaN b NaN NaN NaN NaN NaN NaN b NaN NaN NaN NaN NaN NaN b NaN NaN NaN NaN NaN NaN b NaN NaN NaN NaN NaN NaN "},"t":{"ha":0,"x_min":0,"x_max":0,"o":""},"u":{"ha":0,"x_min":0,"x_max":0,"o":""},"v":{"ha":0,"x_min":0,"x_max":0,"o":""},"w":{"ha":0,"x_min":0,"x_max":0,"o":"l 225 536 l 72 1118 b 10 1154 65 1153 39 1160 b -25 1094 -19 1147 -33 1125 l 153 475 b 222 424 163 440 185 424 b 290 475 257 424 281 440 l 458 1025 l 463 1025 l 632 476 "},"x":{"ha":0,"x_min":0,"x_max":0,"o":""},"y":{"ha":0,"x_min":0,"x_max":0,"o":""},"z":{"ha":-144,"x_min":0,"x_max":0,"o":"m 553 726 l 110 726 l 110 1117 l -300 597 "},"{":{"ha":-253,"x_min":0,"x_max":0,"o":"m 503 1106 l 404 1106 b 263 990 274 1036 263 1018 b 218 1164 263 964 274 1033 l 317 1164 l 317 1075 b 325 1101 317 990 290 1015 z "},"|":{"ha":29,"x_min":0,"x_max":0,"o":"l 0 -446 l 199 -446 l 199 665 l -1006 665 l -1006 636 l -983 636 l -983 1840 "},"}":{"ha":0,"x_min":0,"x_max":0,"o":""},"~":{"ha":-3,"x_min":0,"x_max":0,"o":"m 714 621 b 661 590 689 626 667 617 b 553 471 650 524 618 471 b 286 615 461 471 422 615 b 94 425 181 615 114 528 b 128 376 89 397 106 381 b 181 406 153 371 175 379 b 288 526 194 474 228 526 b 553 382 385 526 422 382 b 749 572 665 382 731 468 b 714 621 753 600 739 617 z "},"₩":{"ha":0,"x_min":0,"x_max":0,"o":""},"‐":{"ha":-262,"x_min":0,"x_max":0,"o":"m 499 549 l 82 549 b 42 499 54 549 42 526 b 82 450 42 472 54 450 l 499 450 b 539 499 526 450 539 472 b 499 549 539 526 526 549 z "},"©":{"ha":338,"x_min":0,"x_max":0,"o":"m 589 1003 b 86 499 285 1003 86 781 b 589 -6 86 218 285 -6 b 1094 499 897 -6 1094 218 b 589 1003 1094 781 897 1003 z m 589 925 b 1013 499 840 925 1013 743 b 589 72 1013 256 842 72 b 168 499 340 72 168 256 b 589 925 168 743 340 925 z m 599 763 b 378 519 464 763 378 682 l 378 481 b 600 236 378 318 463 236 b 771 282 669 236 728 253 b 779 333 789 296 792 315 b 732 344 768 351 750 357 b 600 308 697 321 654 308 b 456 483 510 308 456 364 l 456 517 b 599 690 456 638 510 690 b 718 658 644 690 686 679 b 765 671 736 647 756 654 b 757 721 778 689 774 710 b 599 763 721 744 665 763 z "},"　":{"ha":0,"x_min":0,"x_max":0,"o":""},"ㅤ":{"ha":0,"x_min":0,"x_max":0,"o":""},"、":{"ha":0,"x_min":0,"x_max":0,"o":"m 188 175 b 117 168 164 193 136 188 b 113 104 96 147 93 121 b 325 -121 201 29 258 -33 b 403 -125 344 -146 375 -147 b 413 -43 428 -104 436 -74 b 188 175 346 40 269 115 z "},"。":{"ha":0,"x_min":0,"x_max":0,"o":"m 260 246 b 61 49 144 246 61 163 b 260 -150 61 -65 144 -150 b 458 49 375 -150 458 -65 b 260 246 458 163 375 246 b 383 119 342 246 383 186 b 260 -8 383 50 342 -8 b 138 119 178 -8 138 50 b 260 246 138 186 178 246 z "},"·":{"ha":-211,"x_min":0,"x_max":0,"o":""},"・":{"ha":-211,"x_min":0,"x_max":0,"o":""},"‥":{"ha":431,"x_min":0,"x_max":0,"o":"m 401 0 z "},"…":{"ha":0,"x_min":0,"x_max":0,"o":"m 240 576 z m 632 576 z m 1024 576 z "},"⋯":{"ha":0,"x_min":0,"x_max":0,"o":"m 240 576 z m 632 576 z m 1024 576 z "},"¨":{"ha":-322,"x_min":0,"x_max":0,"o":"m 144 988 b 78 921 106 988 78 958 b 144 854 78 883 106 854 b 211 921 183 854 211 883 b 144 988 211 958 183 988 z m 376 988 b 308 921 338 988 308 958 b 376 854 308 883 338 854 b 443 921 415 854 443 883 b 376 988 443 958 415 988 z "},"〃":{"ha":0,"x_min":0,"x_max":0,"o":"m 589 694 b 526 665 560 701 536 692 l 376 297 b 397 256 368 278 376 263 b 447 276 419 249 438 256 l 624 635 b 589 694 638 663 619 688 z m 840 694 b 778 665 811 701 788 692 l 626 297 b 649 256 619 278 626 263 b 697 276 669 249 688 256 l 875 635 b 840 694 888 663 871 688 z "},"­":{"ha":-271,"x_min":0,"x_max":0,"o":"m 538 540 l 35 540 b 0 497 11 540 0 524 b 35 457 0 475 11 457 l 538 457 b 572 497 561 457 572 475 b 538 540 572 524 561 540 z "},"–":{"ha":-271,"x_min":0,"x_max":0,"o":"m 538 540 l 35 540 b 0 497 11 540 0 524 b 35 457 0 475 11 457 l 538 457 b 572 497 561 457 572 475 b 538 540 572 524 561 540 z "},"—":{"ha":301,"x_min":0,"x_max":0,"o":"m 1110 540 l 35 540 b 0 497 11 540 0 524 b 35 457 0 475 11 457 l 1110 457 b 1144 497 1133 457 1144 475 b 1110 540 1144 524 1133 540 z "},"―":{"ha":301,"x_min":0,"x_max":0,"o":"m 1110 540 l 35 540 b 0 497 11 540 0 524 b 35 457 0 475 11 457 l 1110 457 b 1144 497 1133 457 1144 475 b 1110 540 1144 524 1133 540 z "},"‖":{"ha":0,"x_min":0,"x_max":0,"o":"m 549 1133 l 471 1133 l 471 -200 l 549 -200 z m 793 1133 l 714 1133 l 714 -200 l 793 -200 z "},"＼":{"ha":0,"x_min":0,"x_max":0,"o":"m 1206 -124 l 100 1100 l 58 1054 l 1163 -167 z "},"∼":{"ha":0,"x_min":0,"x_max":0,"o":"m 443 592 b 233 461 363 592 275 529 l 290 424 b 443 511 325 475 375 511 b 632 454 517 511 585 479 b 821 406 692 422 742 406 b 1031 536 901 406 989 468 l 974 574 b 821 486 939 522 889 486 b 632 543 747 486 690 511 b 443 592 574 575 522 592 z "},"〜":{"ha":0,"x_min":0,"x_max":0,"o":"m 443 592 b 233 461 363 592 275 529 l 290 424 b 443 511 325 475 375 511 b 632 454 517 511 585 479 b 821 406 692 422 742 406 b 1031 536 901 406 989 468 l 974 574 b 821 486 939 522 889 486 b 632 543 747 486 690 511 b 443 592 574 575 522 592 z "},"～":{"ha":0,"x_min":0,"x_max":0,"o":"m 443 592 b 233 461 363 592 275 529 l 290 424 b 443 511 325 475 375 511 b 632 454 517 511 585 479 b 821 406 692 422 742 406 b 1031 536 901 406 989 468 l 974 574 b 821 486 939 522 889 486 b 632 543 747 486 690 511 b 443 592 574 575 522 592 z "},"‘":{"ha":-565,"x_min":0,"x_max":0,"o":"m 201 1075 b 154 1049 179 1079 161 1072 l 81 814 b 119 756 71 782 89 761 b 185 792 149 751 179 760 l 231 1035 b 201 1075 235 1057 224 1071 z "},"’":{"ha":-565,"x_min":0,"x_max":0,"o":"m 158 1057 b 93 1019 129 1061 99 1051 l 47 776 b 76 738 43 756 54 740 b 124 764 99 733 117 740 l 197 997 b 158 1057 207 1029 189 1051 z "},"“":{"ha":-357,"x_min":0,"x_max":0,"o":"m 208 1076 z m 404 1076 z "},"”":{"ha":-357,"x_min":0,"x_max":0,"o":"m 360 1057 z m 164 1057 z "},"〔":{"ha":-365,"x_min":0,"x_max":0,"o":"m 426 1021 l 388 1089 l 56 904 l 56 32 l 388 -153 l 426 -85 l 139 76 l 139 860 z "},"〕":{"ha":-346,"x_min":0,"x_max":0,"o":"m 432 904 l 99 1089 l 60 1021 l 349 860 l 349 78 l 60 -85 l 99 -153 l 432 32 z "},"〈":{"ha":-194,"x_min":0,"x_max":0,"o":"m 589 1026 l 533 1068 l 61 467 l 535 -135 l 589 -93 l 147 467 z "},"〉":{"ha":-181,"x_min":0,"x_max":0,"o":"m 594 467 l 121 1068 l 67 1026 l 508 467 l 67 -93 l 122 -135 z "},"《":{"ha":0,"x_min":0,"x_max":0,"o":"l -185 460 l 876 115 l 1471 NaN l 1968 NaN l 1625 NaN "},"》":{"ha":-185,"x_min":0,"x_max":0,"o":"m 457 467 l 94 1094 l 38 1061 l 381 467 l 38 -128 l 94 -161 z m 610 467 l 247 1094 l 190 1061 l 535 467 l 190 -128 l 247 -161 z "},"「":{"ha":-356,"x_min":0,"x_max":0,"o":"m 450 1096 l 38 1096 l 38 496 l 139 496 l 139 1011 l 450 1011 z "},"」":{"ha":-356,"x_min":0,"x_max":0,"o":"m 450 396 l 349 396 l 349 -119 l 38 -119 l 38 -204 l 450 -204 z "},"『":{"ha":-349,"x_min":0,"x_max":0,"o":"m 453 1096 l 42 1096 l 42 496 l 217 496 l 217 944 l 453 944 z m 103 550 l 103 1042 l 390 1042 l 390 999 l 156 999 l 156 550 z "},"』":{"ha":-349,"x_min":0,"x_max":0,"o":"m 453 396 l 278 396 l 278 -53 l 42 -53 l 42 -204 l 453 -204 z m 338 -107 l 338 342 l 392 342 l 392 -150 l 104 -150 l 104 -107 z "},"【":{"ha":-192,"x_min":0,"x_max":0,"o":"m 615 1063 l 121 1063 l 121 -129 l 617 -129 b 269 465 407 6 269 226 b 615 1063 269 703 407 926 z "},"】":{"ha":-190,"x_min":0,"x_max":0,"o":"m 532 1064 l 36 1064 b 383 465 246 928 383 704 b 35 -129 383 228 246 6 l 532 -129 z "},"±":{"ha":28,"x_min":0,"x_max":0,"o":"m 436 964 b 389 925 411 964 389 953 l 147 925 l 147 660 l 413 660 l 413 401 l 386 401 l 386 424 l 375 424 l 375 449 l 633 449 l 633 713 l 369 713 l 369 954 b 324 993 369 982 347 993 z m 629 238 "},"×":{"ha":-6,"x_min":0,"x_max":0,"o":"m 649 803 l 418 560 l 189 803 b 133 800 172 819 150 817 b 126 743 115 782 111 761 l 360 497 l 129 254 b 135 199 113 238 118 215 b 190 196 151 182 174 178 l 418 436 l 647 196 b 701 199 664 178 685 182 b 708 254 719 215 725 238 l 476 497 l 710 743 b 704 800 726 761 721 782 b 649 803 688 817 665 819 z "},"÷":{"ha":-17,"x_min":0,"x_max":0,"o":"m 313 -293 l 729 -293 l 729 543 l 106 543 l 82 543 l 82 532 l 63 532 l 63 508 l 36 508 l 36 1132 z "},"≠":{"ha":-10,"x_min":0,"x_max":0,"o":"m 663 878 b 611 869 644 889 625 890 l 494 689 l 136 689 l 136 989 l 3 783 l -164 783 l -164 892 l -251 756 b -242 710 -264 738 -257 719 b -189 718 -224 699 -203 697 l -76 892 l 296 892 b 296 NaN 321 892 296 NaN l -19 NaN l 114 NaN l 296 NaN l 296 NaN l 389 NaN b 378 NaN 400 NaN 393 NaN z "},"≤":{"ha":11,"x_min":0,"x_max":0,"o":"m 693 932 l 142 699 b 92 632 103 682 92 660 b 142 564 92 604 103 581 l 693 331 b 751 351 721 319 742 328 b 729 413 761 375 756 401 l 204 631 l 204 633 l 729 851 b 751 913 756 863 761 889 b 693 932 742 936 721 944 z m 721 208 "},"≥":{"ha":11,"x_min":0,"x_max":0,"o":"m 713 699 l 163 932 b 103 913 133 944 114 936 b 125 851 93 889 100 863 l 650 633 l 650 631 l 125 413 b 103 351 100 401 93 375 b 163 331 114 328 133 319 l 713 564 b 763 632 751 581 763 604 b 713 699 763 660 751 682 z m 726 208 "},"∞":{"ha":-10,"x_min":0,"x_max":0,"o":"m 199 694 b 11 499 86 694 11 613 b 188 301 11 375 79 301 b 417 450 293 301 351 367 b 632 301 468 385 517 301 b 824 499 744 301 824 382 b 643 694 824 621 754 694 b 415 546 533 694 482 628 b 199 694 369 603 303 694 z m 197 626 b 371 497 271 626 329 553 b 193 371 315 424 265 371 b 85 499 121 371 85 414 b 197 626 85 575 128 626 z m 638 626 b 751 499 707 626 751 579 b 632 371 751 422 704 371 b 461 497 549 371 500 444 b 638 626 511 558 558 626 z "},"∴":{"ha":-10,"x_min":0,"x_max":0,"o":"m 417 847 b 336 769 372 847 336 811 b 417 689 336 725 372 689 b 494 769 461 689 494 725 b 417 847 494 811 461 847 z m 153 307 b 232 386 196 307 232 342 b 153 464 232 429 196 464 z m 681 464 b 760 543 724 464 760 499 b 681 621 760 586 724 621 z "},"°":{"ha":-424,"x_min":0,"x_max":0,"o":"m 210 1017 b 49 856 113 1017 49 944 b 210 694 49 767 113 694 b 371 856 307 694 371 767 b 210 1017 371 944 307 1017 z m 210 950 b 301 856 267 950 301 908 b 210 760 301 803 267 760 b 118 856 153 760 118 803 b 210 950 118 908 153 950 z "},"′":{"ha":-208,"x_min":0,"x_max":0,"o":""},"″":{"ha":18,"x_min":0,"x_max":0,"o":"m 225 0 b 160 -26 199 8 171 4 l 51 -317 b 69 -351 46 -333 54 -346 b 108 -336 86 -356 101 -351 l 256 -62 b 225 0 271 -33 253 -10 z "},"℃":{"ha":308,"x_min":0,"x_max":0,"o":"m 539 -11 b 536 -582 539 -274 403 -582 b 638 -340 374 -582 638 -443 b NaN -228 638 -304 696 -228 b NaN -157 NaN -210 NaN -181 b NaN -146 NaN -135 NaN -131 b NaN -226 NaN -199 NaN -226 b NaN -129 NaN -226 NaN -129 b NaN -197 NaN -129 NaN -197 b NaN NaN NaN -197 NaN NaN "},"Å":{"ha":74,"x_min":0,"x_max":0,"o":"m 458 1158 b 326 1032 378 1158 326 1103 b 388 926 326 985 349 946 l 51 64 b 78 4 40 35 53 13 b 143 29 106 -6 132 0 l 249 307 b NaN NaN 665 -26 1529 NaN l NaN NaN b NaN NaN NaN NaN NaN NaN b NaN NaN NaN NaN NaN NaN z m NaN NaN b NaN NaN NaN NaN NaN NaN b NaN NaN NaN NaN NaN NaN b NaN NaN NaN NaN NaN NaN b NaN NaN NaN NaN NaN NaN z m NaN NaN b NaN NaN NaN NaN NaN NaN l NaN NaN l NaN NaN l NaN NaN b NaN NaN NaN NaN NaN NaN z "},"¢":{"ha":-149,"x_min":0,"x_max":0,"o":"m 407 879 b 371 849 389 879 371 869 l 371 740 b 83 397 194 731 83 617 l 83 339 b 371 -6 83 119 193 6 l 371 -112 b 407 -122 371 -133 389 -143 l 407 -14 b 608 50 492 -8 558 17 b 572 -64 615 26 601 -17 b NaN NaN 556 -128 550 NaN l NaN NaN b NaN NaN NaN NaN NaN NaN b NaN NaN NaN NaN NaN NaN b NaN NaN NaN NaN NaN NaN b NaN NaN NaN NaN NaN NaN l NaN NaN z m NaN NaN l NaN NaN l NaN NaN l NaN NaN b NaN NaN NaN NaN NaN NaN l NaN NaN b NaN NaN NaN NaN NaN NaN z "},"￠":{"ha":-149,"x_min":0,"x_max":0,"o":"m 407 879 b 371 849 389 879 371 869 l 371 740 b 83 397 194 731 83 617 l 83 339 b 371 -6 83 119 193 6 l 371 -112 b 407 -122 371 -133 389 -143 l 407 -14 b 608 50 492 -8 558 17 b 572 -64 615 26 601 -17 b NaN NaN 556 -128 550 NaN l NaN NaN b NaN NaN NaN NaN NaN NaN b NaN NaN NaN NaN NaN NaN b NaN NaN NaN NaN NaN NaN b NaN NaN NaN NaN NaN NaN l NaN NaN z m NaN NaN l NaN NaN l NaN NaN l NaN NaN b NaN NaN NaN NaN NaN NaN l NaN NaN b NaN NaN NaN NaN NaN NaN z "},"£":{"ha":-57,"x_min":0,"x_max":0,"o":"m 493 1008 b 213 713 317 1008 213 911 l 60 713 l 60 613 l 160 613 l 160 467 b 82 244 160 350 142 290 b 47 189 58 225 47 208 b 85 146 47 165 58 146 l 650 146 l 186 146 l 186 147 b 261 375 236 183 261 244 l 261 524 l 507 524 b 507 NaN 532 524 507 NaN l 261 NaN l 261 NaN b 449 NaN 261 NaN 329 NaN b 576 NaN 497 NaN 539 NaN b 632 NaN 601 NaN 621 NaN b 614 NaN 643 NaN 638 NaN b 440 NaN 572 NaN 510 NaN z "},"￡":{"ha":-57,"x_min":0,"x_max":0,"o":"m 493 1008 b 213 713 317 1008 213 911 l 60 713 l 60 613 l 160 613 l 160 467 b 82 244 160 350 142 290 b 47 189 58 225 47 208 b 85 146 47 165 58 146 l 650 146 l 186 146 l 186 147 b 261 375 236 183 261 244 l 261 524 l 507 524 b 507 NaN 532 524 507 NaN l 261 NaN l 261 NaN b 449 NaN 261 NaN 329 NaN b 576 NaN 497 NaN 539 NaN b 632 NaN 601 NaN 621 NaN b 614 NaN 643 NaN 638 NaN b 440 NaN 572 NaN 510 NaN z "},"¥":{"ha":-25,"x_min":0,"x_max":0,"o":"m 733 993 b 668 974 708 1004 682 1000 l 413 500 l 149 974 b 82 992 133 1001 106 1004 b 64 928 57 976 49 954 l 321 481 l 150 481 b 122 444 131 481 122 467 b 150 411 122 425 131 411 l 360 411 l 360 292 l 150 292 b 122 257 131 292 122 278 b 150 224 122 238 131 224 l 360 224 l 360 42 l 360 13 l 385 13 l 385 194 l 600 194 b 629 228 619 194 629 208 b 600 263 629 249 619 263 l 385 263 l 385 382 l 600 382 b 629 415 619 382 629 396 b 600 451 629 438 619 451 l 422 451 l 678 901 b 657 964 694 929 682 951 z "},"￥":{"ha":-25,"x_min":0,"x_max":0,"o":"m 733 993 b 668 974 708 1004 682 1000 l 413 500 l 149 974 b 82 992 133 1001 106 1004 b 64 928 57 976 49 954 l 321 481 l 150 481 b 122 444 131 481 122 467 b 150 411 122 425 131 411 l 360 411 l 360 292 l 150 292 b 122 257 131 292 122 278 b 150 224 122 238 131 224 l 360 224 l 360 42 l 360 13 l 385 13 l 385 194 l 600 194 b 629 228 619 194 629 208 b 600 263 629 249 619 263 l 385 263 l 385 382 l 600 382 b 629 415 619 382 629 396 b 600 451 629 438 619 451 l 422 451 l 678 901 b 657 964 694 929 682 951 z "},"♂":{"ha":0,"x_min":0,"x_max":0,"o":"m 1018 963 l 817 963 b 821 NaN 799 963 821 NaN l 971 NaN l 788 NaN b 547 NaN 724 NaN 642 NaN b 163 NaN 322 NaN 163 NaN b 547 NaN 163 NaN 322 NaN b 933 NaN 774 NaN 933 NaN b 850 NaN 933 NaN 903 NaN l 1031 NaN l 1031 NaN b 1069 NaN 1031 NaN 1050 NaN b 1111 NaN 1090 NaN 1111 NaN l 1111 NaN b 1022 NaN 1111 NaN 1089 NaN z m 547 NaN "},"♀":{"ha":0,"x_min":0,"x_max":0,"o":"m 632 1067 b 247 682 407 1067 247 893 b 588 299 247 483 386 319 l 588 125 l 413 125 l 389 125 l 389 115 l 369 115 l 369 290 l 197 290 b 240 254 197 265 218 254 b 286 290 265 254 286 265 l 286 463 l 460 463 l 286 463 l 286 636 b 626 1019 488 657 626 821 b 242 1404 626 1231 467 1404 z m 242 1315 "},"∠":{"ha":0,"x_min":0,"x_max":0,"o":"m 935 774 l 864 832 l 208 68 l 208 6 l 1056 6 l 1056 93 l 346 93 z "},"⊥":{"ha":0,"x_min":0,"x_max":0,"o":"m 678 803 l 586 803 l 586 96 l 189 96 l 189 6 l 1075 6 l 1075 96 l 678 96 z "},"⌒":{"ha":0,"x_min":0,"x_max":0,"o":"m 631 1050 b 269 826 454 1050 342 960 l 363 826 b 633 983 410 911 500 983 b 901 826 765 983 854 911 l 993 826 b 631 1050 921 960 810 1050 z "},"∂":{"ha":-126,"x_min":0,"x_max":0,"o":"m 315 1008 b 83 936 215 1008 136 971 l 115 869 b 310 926 164 899 226 926 b 578 544 460 926 578 794 b 576 486 578 526 578 504 l 575 486 b 339 615 540 546 458 615 b 38 276 174 615 38 474 b 303 -11 38 126 122 -11 b 671 522 499 -11 671 167 b 315 1008 671 856 506 1008 z m 350 535 b 564 392 454 535 535 468 b 313 71 543 219 447 71 b 135 279 206 71 135 147 b 350 535 135 433 232 535 z "},"∇":{"ha":0,"x_min":0,"x_max":0,"o":"m 1174 856 l 90 856 l 632 -3 z m 632 136 l 228 785 l 1036 785 z "},"≡":{"ha":-10,"x_min":0,"x_max":0,"o":"m 738 738 z m 738 535 l 96 535 b 67 499 76 535 67 519 b 96 464 67 481 76 464 l 738 464 b 765 499 757 464 765 481 b 738 535 765 519 757 535 z m 738 332 z "},"≒":{"ha":-3,"x_min":0,"x_max":0,"o":"m 274 908 z m 706 651 l 664 651 l 664 618 l 632 618 l 632 576 l 592 576 l 592 610 l 558 610 l 558 651 l 600 651 l 600 685 l 633 685 l 633 725 l 675 725 l 675 692 l 104 692 z m 104 471 l 81 471 l 81 461 l 63 461 l 63 438 l 39 438 l 39 1008 l -532 1008 b -574 NaN -556 1008 -574 1032 z m -712 NaN b -183 NaN -142 NaN -183 NaN b -193 NaN -183 NaN -225 NaN b -119 NaN -161 NaN -119 NaN b NaN NaN -119 NaN -162 NaN z "},"§":{"ha":-103,"x_min":0,"x_max":0,"o":"m 392 1008 b 119 783 213 1008 119 910 l 119 764 b 211 588 119 688 146 631 b 60 392 122 556 60 482 l 60 374 b 306 140 60 260 131 185 b 538 -35 497 93 538 46 l 538 -44 b 367 -182 538 -126 478 -182 b 176 -129 288 -182 224 -158 b 118 -147 153 -117 131 -126 b 136 -210 106 -171 111 -193 b 365 -271 188 -244 274 -271 b 638 -46 544 -271 638 -172 l 638 -26 b 546 150 638 50 613 107 b 697 346 635 182 697 254 l 697 364 b 451 597 697 478 626 553 b 221 772 260 644 221 692 l 221 782 b 392 921 221 864 279 921 b 569 875 463 921 524 901 b 625 893 593 864 614 872 b 607 956 638 917 632 940 b 392 1008 556 986 479 1008 z m 300 544 b 408 511 332 533 368 521 b 596 350 553 474 596 422 l 596 340 b 456 193 596 268 536 215 b 349 226 424 206 390 215 b 161 388 204 264 161 315 l 161 397 b 300 544 161 468 221 524 z "},"※":{"ha":0,"x_min":0,"x_max":0,"o":"m 635 553 l 292 904 b 238 901 275 921 253 917 b 233 849 221 885 218 864 l 581 497 l 233 147 b 238 94 218 132 221 111 b 292 92 253 79 276 75 l 635 442 l 978 92 b 1033 94 994 75 1017 79 b 1038 147 1050 111 1053 132 l 689 497 l 1038 849 b 1032 901 1053 864 1050 885 b 979 904 1017 917 994 921 z m 632 989 b 711 1068 676 989 711 1024 b 632 1146 711 1111 676 1146 z m 632 319 z m 1124 654 b 1044 733 1124 700 1089 733 b 967 654 1001 733 967 700 b 1044 575 967 610 1001 575 b 1124 654 1089 575 1124 610 z m 297 654 b 219 733 297 700 263 733 b 140 654 175 733 140 700 b 219 575 140 610 175 575 b 297 654 263 575 297 610 z "},"☆":{"ha":0,"x_min":0,"x_max":0,"o":"m -731 -51 l -619 283 l -506 -51 l -151 -51 l -437 -265 l -332 -603 l -619 -397 l -914 -603 l -801 -265 l -1089 -51 z "},"★":{"ha":0,"x_min":0,"x_max":0,"o":""},"○":{"ha":632,"x_min":0,"x_max":0,"o":"m 0 -74 b 421 -499 235 -74 421 -267 b 0 -922 421 -731 235 -922 b -419 -499 -233 -922 -419 -731 b 0 -74 -419 -267 -233 -74 z "},"●":{"ha":632,"x_min":0,"x_max":0,"o":""},"◎":{"ha":631,"x_min":0,"x_max":0,"o":"m 0 -72 b 426 -499 238 -72 426 -265 b 0 -924 426 -733 238 -924 b -425 -499 -235 -924 -425 -733 b 0 -72 -425 -265 -235 -72 z m 0 -200 b -299 -499 -165 -200 -299 -335 b 0 -797 -299 -664 -165 -797 b 299 -499 165 -797 299 -664 b 0 -200 299 -335 165 -200 z m 0 -272 b 226 -499 125 -272 226 -376 b 0 -724 226 -622 125 -724 b -225 -499 -124 -724 -225 -622 b 0 -272 -225 -376 -124 -272 z "},"◇":{"ha":0,"x_min":0,"x_max":0,"o":"m 1171 499 l 632 1039 l 92 499 l 632 -42 z m 199 500 l 632 932 l 1064 499 l 632 65 z "},"◆":{"ha":0,"x_min":0,"x_max":0,"o":"m 1172 499 l 632 1039 l 92 500 l 633 -42 z "},"□":{"ha":0,"x_min":0,"x_max":0,"o":"m 1108 976 l 156 976 l 156 22 l 1108 22 z m 226 94 l 226 906 l 1038 906 l 1038 94 z "},"■":{"ha":0,"x_min":0,"x_max":0,"o":"m 1108 976 l 156 976 l 156 22 l 1108 22 z "},"△":{"ha":0,"x_min":0,"x_max":0,"o":"m 115 69 l 507 854 l 899 69 z "},"▲":{"ha":0,"x_min":0,"x_max":0,"o":""},"▽":{"ha":0,"x_min":0,"x_max":0,"o":"m 0 160 l -392 944 l 392 944 z "},"▼":{"ha":0,"x_min":0,"x_max":0,"o":""},"→":{"ha":338,"x_min":0,"x_max":0,"o":"m 118 496 b 164 442 118 467 133 442 l 900 442 l 900 -294 b 854 -349 869 -294 854 -319 z "},"←":{"ha":338,"x_min":0,"x_max":0,"o":"m 1063 496 b 1017 550 1063 525 1047 550 l 281 550 l 281 1286 b 326 1340 311 1286 326 1311 z "},"↑":{"ha":88,"x_min":0,"x_max":0,"o":"m 465 15 b 519 61 494 15 519 31 l 519 797 l -217 797 b -162 751 -217 767 -192 751 z "},"↓":{"ha":88,"x_min":0,"x_max":0,"o":"m 465 990 b 411 944 436 990 411 975 l 411 208 l 1147 208 b 1093 254 1147 239 1122 254 z "},"↔":{"ha":-686,"x_min":0,"x_max":0,"o":"m 975 550 z "},"〓":{"ha":0,"x_min":0,"x_max":0,"o":"m 1082 661 l 182 661 l 182 608 l 1082 608 z m 1082 389 l 182 389 l 182 336 l 1082 336 z "},"«":{"ha":0,"x_min":0,"x_max":0,"o":"m 836 911 l 788 979 l 131 524 l 131 461 l 797 19 l 842 89 l 229 492 z m 1129 907 l 1081 972 l 422 524 l 422 461 l 1092 25 l 1133 93 l 521 493 z "},"≪":{"ha":0,"x_min":0,"x_max":0,"o":"m 836 911 l 788 979 l 131 524 l 131 461 l 797 19 l 842 89 l 229 492 z m 1129 907 l 1081 972 l 422 524 l 422 461 l 1092 25 l 1133 93 l 521 493 z "},"»":{"ha":0,"x_min":0,"x_max":0,"o":"m 1133 524 l 475 979 l 428 911 l 1035 492 l 421 89 l 467 19 l 1133 461 z m 842 524 l 183 972 l 135 907 l 744 494 l 132 93 l 172 25 l 842 461 z "},"≫":{"ha":0,"x_min":0,"x_max":0,"o":"m 1133 524 l 475 979 l 428 911 l 1035 492 l 421 89 l 467 19 l 1133 461 z m 842 524 l 183 972 l 135 907 l 744 494 l 132 93 l 172 25 l 842 461 z "},"√":{"ha":-79,"x_min":0,"x_max":0,"o":"m 789 1139 l 713 1139 l 429 -22 l 428 -22 l 224 546 l 49 474 l 74 417 l 174 461 l 397 -140 l 468 -140 z "},"∽":{"ha":0,"x_min":0,"x_max":0,"o":"m 361 760 b 113 500 235 760 113 667 b 363 240 113 329 239 240 b 675 489 547 240 629 401 b 900 675 736 607 799 675 b 1064 500 999 675 1064 589 b 899 324 1064 400 996 324 b 776 365 853 324 815 335 l 729 299 b 899 239 783 261 839 239 b 1151 500 1046 239 1151 361 b 897 760 1151 636 1046 760 b 614 546 757 760 669 657 b 369 328 574 467 508 328 b 201 500 263 328 201 397 b 371 672 201 601 268 672 b 489 633 410 672 450 656 l 532 701 b 361 760 481 735 422 760 z "},"∝":{"ha":0,"x_min":0,"x_max":0,"o":"m 417 760 b 158 500 289 760 158 667 b 418 240 158 328 293 240 b 681 417 565 240 633 333 b 946 239 735 326 826 239 b 1082 275 989 239 1035 249 l 1058 353 b 946 322 1025 335 978 322 b 725 499 843 322 786 383 b 946 675 785 613 843 675 b 1057 631 982 675 1019 656 l 1104 700 b 946 760 1053 738 1000 760 b 681 579 819 760 736 678 b 417 760 631 664 557 760 z m 418 672 b 639 499 528 672 600 576 b 418 326 600 418 533 326 b 250 500 310 326 250 394 b 418 672 250 600 315 672 z "},"∵":{"ha":-29,"x_min":0,"x_max":0,"o":"m 147 819 z m 675 819 z m 411 272 b 332 192 367 272 332 235 b 411 114 332 149 367 114 b 490 192 454 114 490 149 b 411 272 490 235 454 272 z "},"∫":{"ha":-399,"x_min":0,"x_max":0,"o":"m 364 1121 z "},"∬":{"ha":-82,"x_min":0,"x_max":0,"o":"m 364 1121 z m 681 1121 z "},"∈":{"ha":0,"x_min":0,"x_max":0,"o":"b -297 217 -196 0 -282 92 l 558 217 l 558 300 l -296 300 b 0 500 -281 410 -196 500 l 561 500 "},"∋":{"ha":0,"x_min":0,"x_max":0,"o":"m 715 832 l 156 832 l 156 750 l 715 750 b 1011 549 914 750 997 658 l 158 549 l 158 465 l 1013 465 b 715 249 999 340 914 249 l 156 249 l 156 165 l 710 165 b 1107 508 983 165 1107 318 b 715 832 1107 688 990 832 z "},"⊆":{"ha":0,"x_min":0,"x_max":0,"o":"m 1107 897 l 546 897 b 156 586 271 897 156 760 b 553 258 156 400 279 258 l 1107 258 l 1107 342 l 546 342 b 244 585 331 342 244 443 b 546 814 244 713 325 814 l 1107 814 z m 1104 119 l 207 119 l 207 36 l 1104 36 z "},"⊇":{"ha":0,"x_min":0,"x_max":0,"o":"m 718 897 l 156 897 l 156 814 l 718 814 b 1018 585 939 814 1018 713 b 718 342 1018 443 932 342 l 156 342 l 156 258 l 710 258 b 1107 586 983 258 1107 400 b 718 897 1107 760 993 897 z m 1056 119 l 158 119 l 158 36 l 1056 36 z "},"⊂":{"ha":0,"x_min":0,"x_max":0,"o":"b -300 256 -215 0 -300 110 b 0 500 -300 388 -221 500 l 561 500 "},"⊃":{"ha":0,"x_min":0,"x_max":0,"o":"m 717 832 l 156 832 l 156 749 l 717 749 b 1017 504 938 749 1017 636 b 717 249 1017 358 932 249 l 156 249 l 156 165 l 710 165 b 1107 508 983 165 1107 318 b 717 832 1107 686 992 832 z "},"∪":{"ha":0,"x_min":0,"x_max":0,"o":"m 382 938 l 293 938 l 293 376 b 622 -14 293 101 444 -14 b 971 383 813 -14 971 110 l 971 938 l 882 938 l 882 376 b 626 71 882 161 772 71 b 382 376 494 71 382 156 z "},"∩":{"ha":0,"x_min":0,"x_max":0,"o":"m 632 938 b 294 540 440 938 294 814 l 294 -14 l 383 -14 l 383 547 b 632 857 383 763 486 857 b 881 547 778 857 881 763 l 881 -14 l 969 -14 l 969 540 b 632 938 969 814 824 938 z "},"∧":{"ha":0,"x_min":0,"x_max":0,"o":"m 669 876 l 594 876 l 186 86 l 261 50 l 632 771 l 1003 50 l 1078 86 z "},"∨":{"ha":0,"x_min":0,"x_max":0,"o":"m 632 164 l 261 886 l 186 850 l 594 60 l 669 60 l 1078 850 l 1003 886 z "},"¬":{"ha":0,"x_min":0,"x_max":0,"o":"m 1226 535 l 38 535 l 38 467 l 1154 467 l 1154 106 l 1226 106 z "},"￢":{"ha":0,"x_min":0,"x_max":0,"o":"m 1226 535 l 38 535 l 38 467 l 1154 467 l 1154 106 l 1226 106 z "},"⇒":{"ha":0,"x_min":0,"x_max":0,"o":"m 1229 499 l 872 856 l 828 811 l 986 656 l 94 656 l 94 594 l 1047 594 l 1143 499 l 1047 404 l 94 404 l 94 343 l 988 343 l 828 185 l 872 140 z "},"⇔":{"ha":0,"x_min":0,"x_max":0,"o":"m 436 811 l 390 856 l 35 499 l 390 140 l 436 185 l 276 343 l 988 343 l 828 185 l 874 140 l 1229 499 l 874 856 l 828 811 l 986 656 l 278 656 z m 121 499 l 217 594 l 1047 594 l 1143 499 l 1047 404 l 217 404 z "},"∀":{"ha":74,"x_min":0,"x_max":0,"o":"m 79 994 b 51 933 53 986 40 963 l 399 44 b 460 0 411 11 432 0 b 522 44 488 0 510 11 l 865 935 b 838 994 876 964 864 986 b 772 969 810 1004 783 999 l 668 692 l 250 692 l 146 968 b 79 994 135 999 107 1004 z m 389 328 l 283 606 l 636 606 l 533 328 b 461 121 506 253 481 186 b 389 328 442 186 419 249 z "},"∃":{"ha":-3,"x_min":0,"x_max":0,"o":"m 619 993 l 132 993 l 132 1474 l -236 1474 l -236 1028 l -260 1028 l -260 1017 l -279 1017 l -279 992 l 167 992 l 167 633 l -311 633 "},"´":{"ha":-385,"x_min":0,"x_max":0,"o":"m 317 1056 b 246 1049 294 1074 264 1075 l 139 899 b 146 849 126 881 129 861 b 200 853 163 835 183 836 l 325 989 b 317 1056 344 1010 339 1038 z "},"˜":{"ha":-10,"x_min":0,"x_max":0,"o":"m 589 1019 b 547 1000 568 1024 553 1017 b 496 961 539 978 522 961 b 338 1015 450 961 403 1015 b 224 919 281 1015 239 971 b 246 878 218 897 224 882 b 288 896 267 872 281 879 b 338 935 296 919 313 935 b 496 881 383 935 431 881 b 610 978 553 881 596 925 b 589 1019 615 999 610 1015 z "},"ˇ":{"ha":-10,"x_min":0,"x_max":0,"o":"m 271 1040 b 263 997 257 1029 251 1011 l 351 879 b 417 843 371 856 389 843 b 482 879 444 843 463 856 l 571 997 b 563 1040 582 1011 576 1029 b 517 1036 547 1051 528 1049 l 418 921 l 315 1036 b 271 1040 303 1050 286 1051 z "},"˘":{"ha":0,"x_min":0,"x_max":0,"o":""},"˝":{"ha":-10,"x_min":0,"x_max":0,"o":"m 361 1054 b 301 1031 336 1063 310 1054 l 251 900 b 274 856 244 879 253 863 b 328 876 293 849 317 854 l 392 999 b 361 1054 406 1024 390 1046 z m 550 1054 b 490 1031 525 1063 499 1054 l 439 900 b 463 856 431 879 440 863 b 517 876 482 849 506 854 l 579 999 b 550 1054 592 1025 578 1046 z "},"˚":{"ha":-385,"x_min":0,"x_max":0,"o":"m 229 1078 b 100 953 151 1078 100 1024 b 229 828 100 883 151 828 b 358 953 307 828 358 883 b 229 1078 358 1024 307 1078 z m 229 1022 b 297 953 269 1022 297 990 b 229 886 297 915 269 886 b 163 953 190 886 163 915 b 229 1022 163 990 190 1022 z "},"˙":{"ha":-385,"x_min":0,"x_max":0,"o":"m 231 1033 b 151 954 185 1033 151 999 b 231 876 151 911 185 876 b 310 954 275 876 310 911 b 231 1033 310 999 275 1033 z "},"¸":{"ha":-385,"x_min":0,"x_max":0,"o":"m 221 33 l 151 33 l 151 -90 b 274 -136 233 -90 274 -97 b 140 -200 274 -174 225 -193 b 114 -232 121 -201 114 -212 b 146 -262 115 -250 126 -264 b 356 -128 286 -254 356 -211 b 221 -35 356 -64 300 -39 z "},"˛":{"ha":-385,"x_min":0,"x_max":0,"o":"m 319 7 l 242 7 b 121 -150 188 -22 121 -76 b 265 -262 121 -219 176 -261 b 296 -214 288 -236 290 -219 b 344 -232 311 -218 328 -222 b NaN NaN 353 -247 350 NaN b NaN NaN NaN NaN NaN NaN b NaN NaN NaN NaN NaN NaN b NaN NaN NaN NaN NaN NaN z "},"¡":{"ha":-447,"x_min":0,"x_max":0,"o":"m 0 -292 b 1007 -335 199 -292 1007 -317 b NaN -347 1007 -346 975 -347 l NaN -1008 b NaN -1057 NaN -1042 NaN -1057 b NaN -1008 NaN -1057 NaN -1042 l NaN -347 b NaN -304 NaN -315 NaN -304 z "},"¿":{"ha":-117,"x_min":0,"x_max":0,"o":"m -1 -283 b 1203 -331 394 -283 1203 -307 b 1165 -414 1203 -344 1178 -414 b 1010 NaN 1124 -414 1010 -517 b 865 NaN 915 NaN 865 NaN l 865 NaN b 1161 NaN 865 NaN 978 NaN b 1428 NaN 1274 NaN 1369 NaN b 1431 NaN 1449 NaN 1449 NaN b 1368 NaN 1414 NaN 1389 NaN b 1160 NaN 1315 NaN 1253 NaN b 967 NaN 1038 NaN 967 NaN l 967 NaN b 1100 NaN 967 NaN 1001 NaN b 1233 NaN 1217 NaN 1233 NaN z "},"ː":{"ha":0,"x_min":0,"x_max":0,"o":"m 767 833 l 497 833 l 632 701 z m 767 165 l 632 297 l 497 165 z "},"∶":{"ha":0,"x_min":0,"x_max":0,"o":"m 767 833 l 497 833 l 632 701 z m 767 165 l 632 297 l 497 165 z "},"∮":{"ha":0,"x_min":0,"x_max":0,"o":"m 792 1071 b 601 694 685 1071 626 903 b 419 476 506 674 419 600 b 576 299 419 374 490 313 b 474 -12 557 100 514 -12 b 403 44 442 -12 419 10 l 342 8 b 469 -74 371 -47 414 -74 b 658 297 576 -74 633 92 b 854 517 760 311 854 389 b 685 699 854 625 778 688 b 788 1010 707 896 747 1010 b 857 954 819 1010 842 989 l 922 983 b 792 1071 893 1042 850 1071 z m 681 657 b 786 514 747 643 786 585 l 786 497 b 663 339 779 415 731 356 b 681 657 674 435 672 563 z m 597 651 b 581 340 589 554 589 432 b 488 478 524 357 488 407 b 597 651 488 564 533 628 z "},"∑":{"ha":-58,"x_min":0,"x_max":0,"o":"m 663 993 l 131 993 b 56 939 75 993 56 976 b 94 864 56 919 61 904 l 393 500 l 94 135 b 56 60 61 94 56 79 b 131 6 56 22 75 6 l 667 6 l 692 6 l 692 17 l 711 17 l 711 42 l 226 42 l 481 -212 l 788 NaN l 1268 NaN "},"∏":{"ha":42,"x_min":0,"x_max":0,"o":"m 813 993 l 72 993 l 72 1122 l -837 1122 l -837 1093 l -812 1093 l -812 2003 l -533 2003 l -533 1093 l -533 1064 l -510 1064 l -510 1051 l -483 1051 l -483 1961 l -354 1961 "},"¤":{"ha":-10,"x_min":0,"x_max":0,"o":"m 672 811 l 574 710 b 417 761 532 742 475 761 b 260 711 357 761 303 742 l 161 811 b 103 807 144 829 121 825 b 99 749 85 789 81 765 l 199 650 b 150 496 168 606 150 553 b 199 342 150 438 168 385 l 99 243 b 103 185 81 226 85 203 b 161 181 121 167 144 163 l 260 281 b 417 231 304 249 357 231 b 574 281 475 231 531 250 l 672 181 b 731 185 689 163 713 167 b 735 243 749 203 753 226 l 633 342 b 683 496 665 385 683 438 b 633 650 683 553 664 608 l 735 749 b 731 807 753 765 749 789 b 672 811 713 825 689 829 z m 417 681 b 597 496 518 681 597 599 b 417 311 597 393 518 311 b 236 496 315 311 236 393 b 417 681 236 599 315 681 z "},"℉":{"ha":258,"x_min":0,"x_max":0,"o":"m 793 -26 l 793 -499 l 1203 -499 l 1203 -64 b 1203 NaN 1228 -64 1203 NaN "},"‰":{"ha":0,"x_min":0,"x_max":0,"o":"m 893 -61 b 751 -61 893 28 842 -61 b 758 NaN 707 -61 758 57 l 758 NaN b 893 NaN 758 NaN 803 NaN z m 1492 NaN z m 2003 NaN z m 1492 NaN b 1350 NaN 1492 NaN 1439 NaN b 1358 NaN 1306 NaN 1358 NaN l 1358 NaN b 1492 NaN 1358 NaN 1403 NaN z m 2003 NaN b 1860 NaN 2003 NaN 1950 NaN b 1868 NaN 1815 NaN 1868 NaN l 1868 NaN b 2003 NaN 1868 NaN 1913 NaN z "},"◁":{"ha":0,"x_min":0,"x_max":0,"o":"m 88 0 l 814 457 l 814 -454 z "},"◀":{"ha":0,"x_min":0,"x_max":0,"o":""},"▷":{"ha":0,"x_min":0,"x_max":0,"o":"m 44 85 l 44 996 l 771 539 z "},"▶":{"ha":0,"x_min":0,"x_max":0,"o":""},"♤":{"ha":0,"x_min":0,"x_max":0,"o":"m 0 -114 b 379 -721 160 -306 379 -585 b 257 -869 379 -783 346 -869 b 76 -794 178 -869 110 -794 b 29 -868 35 -794 25 -815 b 72 -1072 32 -928 47 -990 b 53 -1094 76 -1083 71 -1092 b 0 -1097 39 -1096 19 -1097 b -53 -1094 -21 -1097 -39 -1096 b -72 -1072 -71 -1092 -76 -1083 b -29 -868 -46 -990 -33 -928 b -76 -794 -25 -815 -36 -794 b -257 -869 -110 -794 -178 -869 b -379 -721 -346 -869 -379 -783 b 0 -114 -379 -585 -160 -306 z "},"♠":{"ha":0,"x_min":0,"x_max":0,"o":""},"♡":{"ha":0,"x_min":0,"x_max":0,"o":"m 10 -92 b 190 -296 93 -92 156 -144 b 251 -347 199 -329 221 -347 b 313 -296 282 -347 304 -329 b 493 -92 347 -144 410 -92 b 658 -300 596 -92 658 -171 b 251 -911 658 -483 444 -756 b -156 -300 58 -756 -156 -483 b 10 -92 -156 -171 -93 -92 z "},"♥":{"ha":0,"x_min":0,"x_max":0,"o":""},"♧":{"ha":0,"x_min":0,"x_max":0,"o":"m 0 -72 b 179 -231 90 -72 179 -129 b 33 -500 179 -401 33 -417 b 113 -585 33 -550 61 -585 b 319 -512 164 -585 224 -512 b 476 -697 417 -512 476 -611 b 313 -885 476 -792 418 -885 b 67 -757 174 -885 125 -757 b 36 -797 40 -757 33 -771 b 75 -1071 42 -876 72 -947 b 60 -1086 75 -1079 71 -1085 b 0 -1090 40 -1089 21 -1090 b -60 -1086 -21 -1090 -40 -1089 b -75 -1071 -71 -1085 -75 -1079 b -36 -797 -72 -947 -42 -876 b -67 -757 -33 -771 -40 -757 b -312 -885 -126 -757 -174 -885 b -476 -697 -418 -885 -476 -792 b -319 -512 -476 -611 -417 -512 b -112 -585 -225 -512 -164 -585 b -33 -500 -61 -585 -33 -550 b -179 -231 -33 -417 -179 -401 b 0 -72 -179 -129 -89 -72 z "},"♣":{"ha":0,"x_min":0,"x_max":0,"o":""},"⊙":{"ha":0,"x_min":0,"x_max":0,"o":"m 0 -54 b -486 432 -267 -54 -486 165 b 0 919 -486 699 -267 919 z m 0 647 b -215 432 -117 647 -215 551 b 0 217 -215 313 -117 217 b 215 432 119 217 215 313 b 0 647 215 551 119 647 z "},"◉":{"ha":0,"x_min":0,"x_max":0,"o":"m 0 -54 b -486 432 -267 -54 -486 165 b 0 919 -486 699 -267 919 z m 0 647 b -215 432 -117 647 -215 551 b 0 217 -215 313 -117 217 b 215 432 119 217 215 313 b 0 647 215 551 119 647 z "},"◈":{"ha":0,"x_min":0,"x_max":0,"o":"m 1235 499 l 632 1101 l 29 497 l 631 -104 z m 97 497 l 632 1031 l 1165 499 l 631 -36 z m 1004 497 l 632 869 l 258 497 l 632 125 z "},"▣":{"ha":0,"x_min":0,"x_max":0,"o":"m -981 53 l -981 979 l -53 979 l -53 53 z m -197 835 l -836 835 l -836 196 l -197 196 z "},"◐":{"ha":0,"x_min":0,"x_max":0,"o":"m 0 -1028 l 0 -54 z "},"◑":{"ha":0,"x_min":0,"x_max":0,"o":"m 632 1040 b 90 499 332 1040 90 799 b 632 -43 90 199 332 -43 b 1174 499 928 -43 1174 199 b 632 1040 1174 799 928 1040 z m 632 986 l 632 13 b 144 499 365 13 144 232 b 632 986 144 765 365 986 z "},"▒":{"ha":-21,"x_min":0,"x_max":0,"o":"m -987 46 l -987 986 l -46 986 l -46 46 z m -906 946 z m -775 946 z m -1554 815 b -1585 774 -1569 815 -1585 794 b -1576 810 -1585 789 -1599 810 b -1554 854 -1565 810 -1554 833 b -1589 849 -1554 833 -1575 849 b -1550 879 -1568 849 -1550 865 b -1514 883 -1550 900 -1529 883 b -1550 851 -1532 883 -1550 867 b -1585 847 -1550 831 -1571 847 b -1543 869 -1567 847 -1543 858 b -1537 879 -1543 893 -1522 879 b -1574 874 -1553 879 -1574 858 b -1537 881 -1574 860 -1553 881 b -1503 886 -1524 881 -1503 901 b -1542 851 -1503 872 -1518 851 b -1542 899 -1531 851 -1542 875 b -1510 933 -1542 910 -1531 933 b -1508 892 -1524 933 -1508 913 b -1542 856 -1508 876 -1524 856 b -1542 897 -1526 856 -1542 876 b -1506 928 -1542 910 -1526 928 b -1544 928 -1526 928 -1544 943 b -1511 965 -1544 949 -1526 965 b -1490 964 -1493 965 -1472 949 z m -1361 964 b -1396 928 -1382 964 -1396 949 b -1361 894 -1396 910 -1382 894 b -1325 928 -1340 894 -1325 910 b -1361 964 -1325 949 -1340 964 z m -1231 964 b -1265 928 -1249 964 -1265 949 b -1231 894 -1265 910 -1249 894 b -1196 928 -1210 894 -1196 910 b -1225 933 -1196 949 -1210 933 b -1264 933 -1246 933 -1264 949 b -1228 969 -1264 954 -1243 969 b -1189 940 -1210 969 -1189 954 b -1196 907 -1189 925 -1210 907 b -1190 942 -1211 907 -1190 928 b -1186 978 -1190 957 -1172 978 b -1192 NaN -1171 978 -1192 NaN z m -1062 NaN b -1097 NaN -1083 NaN -1097 NaN b -1062 NaN -1097 NaN -1083 NaN b -1026 NaN -1042 NaN -1026 NaN b -1056 NaN -1026 NaN -1042 NaN b -1094 NaN -1076 NaN -1094 NaN b -1057 NaN -1094 NaN -1074 NaN b -1037 NaN -1039 NaN -1015 NaN z m -908 NaN b -944 NaN -929 NaN -944 NaN b -908 NaN -944 NaN -929 NaN b -874 NaN -890 NaN -874 NaN b -908 NaN -874 NaN -890 NaN z m -779 NaN b -814 NaN -803 NaN -814 NaN b -779 NaN -814 NaN -800 NaN b -743 NaN -758 NaN -743 NaN b -779 NaN -743 NaN -758 NaN z m -649 NaN b -683 NaN -667 NaN -683 NaN b -649 NaN -683 NaN -667 NaN b -614 NaN -628 NaN -614 NaN b -649 NaN -614 NaN -625 NaN z m -518 NaN b -554 NaN -539 NaN -554 NaN b -518 NaN -554 NaN -539 NaN b -482 NaN -497 NaN -482 NaN b -518 NaN -482 NaN -497 NaN z m -387 NaN b -422 NaN -411 NaN -422 NaN b -387 NaN -422 NaN -408 NaN b -353 NaN -367 NaN -353 NaN b -387 NaN -353 NaN -364 NaN z m -258 NaN z m -128 NaN z m -907 NaN b -942 NaN -931 NaN -942 NaN b -907 NaN -942 NaN -928 NaN b -871 NaN -886 NaN -871 NaN b -901 NaN -871 NaN -886 NaN b -940 NaN -919 NaN -940 NaN b -904 NaN -940 NaN -919 NaN b -865 NaN -883 NaN -865 NaN b -862 NaN -865 NaN -881 NaN b -831 NaN -846 NaN -831 NaN b -833 NaN -831 NaN -815 NaN b -865 NaN -850 NaN -865 NaN b -860 NaN -865 NaN -881 NaN b -831 NaN -846 NaN -831 NaN b -864 NaN -831 NaN -846 NaN b -869 NaN -885 NaN -869 NaN b -833 NaN -869 NaN -854 NaN b -831 NaN -815 NaN -831 NaN b -867 NaN -831 NaN -851 NaN b -825 NaN -846 NaN -825 NaN b -792 NaN -825 NaN -807 NaN b -833 NaN -812 NaN -833 NaN b -869 NaN -833 NaN -854 NaN b -828 NaN -849 NaN -828 NaN b -793 NaN -828 NaN -804 NaN z m -664 NaN z m -533 NaN b -569 NaN -554 NaN -569 NaN b -533 NaN -569 NaN -554 NaN b -499 NaN -515 NaN -499 NaN b -533 NaN -499 NaN -515 NaN b -568 NaN -551 NaN -568 NaN b -533 NaN -568 NaN -551 NaN b -499 NaN -512 NaN -499 NaN b -533 NaN -499 NaN -510 NaN z m -403 NaN b -439 NaN -424 NaN -439 NaN b -403 NaN -439 NaN -424 NaN b -367 NaN -382 NaN -367 NaN b -403 NaN -367 NaN -382 NaN z m -272 NaN z "},"▤":{"ha":0,"x_min":0,"x_max":0,"o":"m -987 892 l -987 986 l -46 986 l -46 892 z m -987 746 l -987 847 l -46 847 l -46 746 z m -987 610 l -987 701 l -46 701 l -46 610 z m -987 467 l -987 565 l -46 565 l -46 467 z m -987 322 l -987 422 l -46 422 l -46 322 z m -987 183 l -987 278 l -46 278 l -46 183 z m -987 46 l -987 139 l -46 139 l -46 46 z "},"▥":{"ha":0,"x_min":0,"x_max":0,"o":"m -987 46 l -987 986 l -893 986 l -893 1088 l -801 1088 l -801 1186 l -701 1186 l -701 1281 l -607 1281 l -607 340 z "},"▨":{"ha":0,"x_min":0,"x_max":0,"o":"m -987 772 l -987 986 l -772 986 z m -987 706 l -706 986 l -540 986 l -987 540 z m -987 474 l -474 986 l -310 986 l -987 310 z m -987 243 l -243 986 l -81 986 l -987 79 z m -954 46 l -46 954 l -46 790 l -790 46 z m -724 46 l -46 724 l -46 560 l -560 46 z m -493 46 l -46 493 l -46 329 l -329 46 z m -262 46 l -46 263 l -46 46 z "},"▧":{"ha":0,"x_min":0,"x_max":0,"o":"m -46 79 l -953 986 l -790 986 l -46 243 z m -46 310 l -724 986 l -560 986 l -46 474 z m -46 540 l -493 986 l -328 986 l -46 706 z m -46 772 l -261 986 l -46 986 z m -987 790 l -987 954 l -79 46 l -243 46 z m -987 560 l -987 724 l -310 46 l -474 46 z m -987 329 l -987 493 l -540 46 l -704 46 z m -987 46 l -987 263 l -771 46 z "},"▦":{"ha":-987,"x_min":0,"x_max":0,"o":""},"▩":{"ha":0,"x_min":0,"x_max":0,"o":"m -872 906 l -953 986 l -790 986 z m -642 904 l -724 986 l -560 986 z m -410 903 l -493 986 l -326 986 z m -172 897 l -261 986 l -82 986 z m -139 864 l -46 957 l -46 772 z m -987 790 l -987 954 l -906 872 z m -839 872 l -758 954 l -675 871 l -757 790 z m -608 871 l -526 953 l -443 871 l -526 789 z m -378 871 l -294 953 l -206 864 l -287 781 l -954 757 l -874 838 l -790 756 l -871 674 z m -724 756 l -642 836 l -551 749 l -633 667 z m -486 749 l -401 832 l -310 739 l -393 656 z m -1218 560 l -1218 724 l -1136 642 z m -1069 642 l -987 724 l -906 642 l -987 560 z m -837 640 l -757 722 l -668 633 l -749 551 z m -600 633 l -518 715 l -426 624 l -508 540 z m -360 622 l -276 706 l -276 539 l -1185 526 l -1103 608 l -1014 518 l -1094 438 z m -946 518 l -865 600 l -771 507 l -854 426 z m -706 507 l -624 589 l -540 507 l -622 425 z m -1449 331 l -1449 493 l -1367 411 z m -1300 411 l -1218 493 l -1129 404 l -1211 322 z m -1061 403 l -979 486 l -886 392 l -969 311 z m -819 393 l -739 474 l -656 392 l -737 310 z m -589 392 l -507 474 l -507 310 z m -1415 296 l -1333 378 l -1244 289 l -1326 207 z m -1178 289 l -1094 371 l -1001 276 l -1085 194 l -935 276 l -853 358 l -771 276 l -853 194 z m -1679 85 l -1679 263 l -1590 174 z m -1524 174 l -1442 256 l -1349 163 l -1429 79 z m -1281 161 l -1199 243 l -1117 161 l -1199 79 l -1050 161 l -968 243 l -968 79 z m -1881 46 l -1787 140 l -1693 46 z m -1628 46 l -1544 128 l -1462 46 z m -1396 46 l -1314 128 l -1232 46 z m -1165 46 l -1083 128 l -1001 46 z "},"♨":{"ha":15,"x_min":0,"x_max":0,"o":"m 669 1086 b 649 1083 663 1101 649 1104 b 617 954 649 1054 643 1008 b 588 615 579 876 514 786 b 589 314 601 585 644 443 b 578 143 557 236 565 172 b 601 144 583 131 600 128 b 643 246 603 163 615 194 b 729 508 669 299 744 426 b 674 858 700 653 626 724 b 669 1086 707 950 688 1046 z m 489 1022 b 469 1021 485 1033 474 1036 b 438 938 464 994 453 964 b 407 590 382 835 354 717 b 397 293 449 489 417 346 b 399 158 376 233 388 182 b 422 158 408 142 421 143 b 456 244 424 175 432 200 b 532 474 501 333 538 418 b 475 814 517 613 453 733 b 489 1022 507 925 499 994 z m 833 1017 b 814 1014 824 1038 814 1031 b 796 918 814 990 808 950 b 796 594 756 822 733 735 b 760 288 836 499 793 371 b 754 150 742 244 743 176 b 774 150 760 133 769 140 b 813 251 778 167 789 206 b 913 525 843 311 924 386 b 850 818 897 664 832 690 z m 383 260 b 367 353 383 365 367 429 b 154 108 367 331 154 257 b 715 -144 154 -40 422 -144 b 1261 146 1007 -144 1261 -25 b 1022 340 1261 269 1076 333 b 1017 318 1004 344 994 325 b 1176 165 1067 303 1176 242 b 717 -6 1176 60 938 -6 b 256 136 494 -6 256 42 b 446 328 256 247 431 321 b 443 353 469 336 464 360 z "},"☏":{"ha":0,"x_min":0,"x_max":0,"o":"m 632 944 b 83 774 410 944 174 890 b -10 653 32 708 22 597 b 33 714 -3 679 4 717 b 76 642 68 717 74 674 b 149 711 108 647 151 682 b 88 693 151 718 114 722 b NaN NaN 199 642 264 NaN b NaN NaN NaN NaN NaN NaN z m NaN NaN b NaN NaN NaN NaN NaN NaN b NaN NaN NaN NaN NaN NaN b NaN NaN NaN NaN NaN NaN b NaN NaN NaN NaN NaN NaN b NaN NaN NaN NaN NaN NaN b NaN NaN NaN NaN NaN NaN b NaN NaN NaN NaN NaN NaN b NaN NaN NaN NaN NaN NaN b NaN NaN NaN NaN NaN NaN b NaN NaN NaN NaN NaN NaN b NaN NaN NaN NaN NaN NaN b NaN NaN NaN NaN NaN NaN b NaN NaN NaN NaN NaN NaN b NaN NaN NaN NaN NaN NaN z m NaN NaN l NaN NaN l NaN NaN l NaN NaN l NaN NaN l NaN NaN b NaN NaN NaN NaN NaN NaN b NaN NaN NaN NaN NaN NaN b NaN NaN NaN NaN NaN NaN b NaN NaN NaN NaN NaN NaN l NaN NaN b NaN NaN NaN NaN NaN NaN b NaN NaN NaN NaN NaN NaN b NaN NaN NaN NaN NaN NaN b NaN NaN NaN NaN NaN NaN z m NaN NaN l NaN NaN b NaN NaN NaN NaN NaN NaN b NaN NaN NaN NaN NaN NaN l NaN NaN z m NaN NaN b NaN NaN NaN NaN NaN NaN b NaN NaN NaN NaN NaN NaN b NaN NaN NaN NaN NaN NaN b NaN NaN NaN NaN NaN NaN z m NaN NaN b NaN NaN NaN NaN NaN NaN b NaN NaN NaN NaN NaN NaN b NaN NaN NaN NaN NaN NaN b NaN NaN NaN NaN NaN NaN z "},"☎":{"ha":0,"x_min":0,"x_max":0,"o":"m 632 944 b 83 776 410 944 174 893 b -15 653 32 711 22 597 b 33 725 -8 679 -1 717 b 76 642 68 731 74 688 b 160 717 122 647 165 682 b 88 693 151 724 114 728 b NaN NaN 201 642 267 NaN b NaN NaN NaN NaN NaN NaN z m NaN NaN l NaN NaN b NaN NaN NaN NaN NaN NaN b NaN NaN NaN NaN NaN NaN l NaN NaN z m NaN NaN b NaN NaN NaN NaN NaN NaN b NaN NaN NaN NaN NaN NaN b NaN NaN NaN NaN NaN NaN b NaN NaN NaN NaN NaN NaN z "},"☜":{"ha":0,"x_min":0,"x_max":0,"o":"m 649 668 b 250 661 494 668 301 665 b 86 607 158 656 86 654 b 258 547 86 550 179 551 b 496 538 361 542 408 540 l 500 526 b 386 471 419 526 386 511 b 436 425 386 439 411 428 b 421 383 426 415 419 404 b 474 338 422 356 449 338 b 453 293 458 328 449 315 b 529 247 460 263 496 253 b 797 247 589 239 729 238 b 1031 324 917 267 982 294 l 1071 324 l 1071 294 l 1176 294 l 1176 622 l 1072 622 l 1072 578 b 989 586 1050 576 1018 579 b 649 668 893 674 767 668 z m 667 646 b 924 608 717 653 867 646 b 1004 540 963 582 989 558 b 1014 547 1014 529 1017 529 l 1011 558 b 1072 554 1028 554 1058 553 l 1072 340 l 1044 340 l 1047 351 b 1038 353 1049 358 1043 358 b 757 267 979 315 901 279 b 708 267 739 264 721 264 b 726 313 710 268 729 285 b 682 351 724 333 707 346 b 703 396 696 361 706 371 b 660 435 700 415 686 428 b 675 492 674 446 682 467 b 585 526 669 514 633 526 l 606 544 b 664 535 615 542 638 536 b 696 540 674 535 688 535 b 835 447 711 519 758 472 b 956 440 879 435 956 428 b 828 471 956 457 901 446 b 718 543 769 490 729 526 b 738 575 732 553 740 567 b 679 553 735 582 717 563 b 622 558 665 550 636 553 b 628 579 629 565 633 574 b 561 535 619 589 599 549 b 518 542 522 519 511 532 b 544 575 529 549 538 560 b 575 613 553 590 561 604 b 667 646 601 629 640 643 z m 596 646 b 540 603 571 638 554 622 l 511 558 b 251 569 435 560 367 564 b 110 607 149 576 110 578 b 251 640 110 635 163 638 b 596 646 376 643 506 646 z m 1093 317 l 1093 599 l 1154 599 l 1154 317 z m 435 501 b 621 501 493 508 553 506 b 649 478 642 500 649 489 b 622 447 649 457 638 450 b 436 444 581 443 493 442 b 408 471 418 444 408 458 b 435 501 407 485 417 499 z m 476 421 b 642 421 510 422 617 424 b 681 382 669 417 682 410 b 638 354 679 363 656 354 b 479 358 635 353 499 354 b 444 386 454 363 444 374 b 476 421 444 404 458 419 z m 661 333 b 704 308 678 333 703 328 b 663 268 707 283 693 269 b 504 274 617 264 553 264 b 479 299 489 276 481 288 b 504 332 476 314 485 331 b 661 333 544 335 611 335 z "},"☞":{"ha":0,"x_min":0,"x_max":0,"o":"m 614 668 b 274 586 496 668 369 674 b 190 578 244 579 213 576 l 190 622 l 86 622 l 86 294 l 192 294 l 192 324 l 232 324 b 465 247 281 294 346 267 b 733 247 533 238 674 239 b 810 293 767 253 803 263 b 789 338 814 315 804 328 b 842 383 814 338 840 356 b 826 425 843 404 836 415 b 876 471 851 428 876 439 b 763 526 876 511 843 526 l 767 538 b 1004 547 854 540 901 542 b 1176 607 1083 551 1176 550 b 1013 661 1176 654 1104 656 b 614 668 961 665 768 668 z m 596 646 b 688 613 622 643 661 629 b 718 575 701 604 710 590 b 744 542 725 560 733 549 b 701 535 751 532 740 519 b 635 579 664 549 643 589 b 640 558 629 574 633 565 b 583 553 626 553 597 550 b 525 575 546 563 528 582 b 544 543 522 567 531 553 b 435 471 533 526 493 490 b 307 440 361 446 307 457 b 428 447 307 428 383 435 b 567 540 504 472 551 519 b 599 535 575 535 589 535 b 657 544 625 536 647 542 l 678 526 b 588 492 629 526 594 514 b 603 435 581 467 589 446 b 560 396 576 428 564 415 b 581 351 557 371 567 361 b 536 313 556 346 539 333 b 550 267 531 285 546 268 b 506 267 538 264 522 264 b 225 353 361 279 283 315 b 215 351 219 357 213 361 l 218 340 l 190 340 l 190 554 b 251 558 204 553 235 554 l 249 547 b 258 540 246 529 249 529 b 339 608 274 558 300 582 b 596 646 396 646 546 653 z m 667 646 b 1011 640 757 646 886 643 b 1153 607 1100 638 1153 635 b 1011 569 1153 578 1114 576 b 751 558 896 564 828 560 l 722 603 b 667 646 708 622 692 638 z m 108 317 l 108 599 l 169 599 l 169 317 z m 621 421 b 786 421 646 424 753 422 b 818 386 804 419 818 404 b 783 358 818 374 808 363 b 625 354 764 354 628 353 b 582 382 607 354 583 363 b 621 421 581 410 594 417 z m 601 333 b 758 332 651 335 718 335 b 783 299 778 331 786 314 b 758 274 782 288 774 276 b 600 268 710 264 646 264 b 558 308 569 269 556 283 b 601 333 560 328 585 333 z m 642 501 b 828 501 710 506 769 508 b 854 471 846 499 856 485 b 826 444 854 458 844 444 b 640 447 769 442 682 443 b 614 478 625 450 614 457 b 642 501 614 489 621 500 z "},"¶":{"ha":-6,"x_min":0,"x_max":0,"o":"m 615 993 l 374 993 b 69 736 146 993 69 878 b 347 482 69 565 201 482 l 421 482 l 421 -150 b 463 -185 421 -174 442 -185 b 507 -150 486 -185 507 -174 l 507 906 l 625 906 l 625 -150 b 665 -185 625 -174 646 -185 b 710 -150 690 -185 710 -174 "},"†":{"ha":0,"x_min":0,"x_max":0,"o":"l 0 -211 l 314 -211 l 314 783 l 69 783 l 69 593 l 260 593 l 260 -90 "},"‡":{"ha":0,"x_min":0,"x_max":0,"o":"l 0 -211 l 314 -211 l 314 783 l 69 783 l 69 593 l 260 593 l 260 233 l 69 233 l 260 233 l 260 -8 l 260 -37 l 283 -37 l 283 204 l 475 204 "},"↕":{"ha":88,"x_min":0,"x_max":0,"o":"m 411 797 z "},"↗":{"ha":117,"x_min":0,"x_max":0,"o":"m 718 399 b 769 356 718 369 742 356 b 821 399 797 356 821 369 l 821 768 b 808 822 821 801 817 813 b 754 835 799 831 788 835 l 385 835 b 342 783 356 835 342 811 b 385 732 342 756 356 732 l 547 732 b 651 742 583 732 625 735 l 132 222 b 138 151 110 200 117 172 b 208 146 158 131 186 124 l 728 665 b 718 561 721 639 718 597 z "},"↙":{"ha":117,"x_min":0,"x_max":0,"o":"m 242 593 b 190 636 242 622 218 636 b 139 593 163 636 139 622 l 139 224 b 151 169 139 190 143 179 b 206 157 161 161 172 157 l 575 157 b 618 208 604 157 618 181 b 575 260 618 236 604 260 l 413 260 b 308 250 376 260 335 257 l 828 769 b 822 840 850 792 843 819 b 751 846 801 861 774 868 l 232 326 b 242 431 239 353 242 394 z "},"↖":{"ha":117,"x_min":0,"x_max":0,"o":"m 242 561 b 232 665 242 597 239 639 l 751 146 b 822 151 774 124 801 131 b 828 222 843 172 850 200 l 308 742 b 413 732 335 735 376 732 l 575 732 b 618 783 604 732 618 756 b 575 835 618 811 604 835 l 206 835 b 151 822 172 835 161 831 b 139 768 143 813 139 801 l 139 399 b 190 356 139 369 163 356 b 242 399 218 356 242 369 z "},"↘":{"ha":117,"x_min":0,"x_max":0,"o":"m 718 431 b 728 326 718 394 721 353 l 208 846 b 138 840 186 868 158 861 b 132 769 117 819 110 792 l 651 250 b 547 260 625 257 583 260 l 385 260 b 342 208 356 260 342 236 b 385 157 342 181 356 157 l 754 157 b 808 169 788 157 799 161 b 821 224 817 179 821 190 l 821 593 b 769 636 821 622 797 636 b 718 593 742 636 718 622 z "},"♭":{"ha":-192,"x_min":0,"x_max":0,"o":"m 476 374 b 226 89 476 171 335 97 l 226 386 b 378 550 226 451 274 550 b 476 374 439 550 476 472 z m 582 425 b 421 621 582 544 510 621 b 226 489 296 621 247 547 l 226 944 l 139 944 l 139 21 b 582 425 325 31 582 111 z "},"♩":{"ha":-372,"x_min":0,"x_max":0,"o":"m 332 975 l 279 975 l 279 218 z "},"♪":{"ha":-121,"x_min":0,"x_max":0,"o":"m 653 526 b 432 836 653 611 592 699 b 335 935 382 879 358 907 b 292 968 313 960 304 968 b 279 913 279 968 279 936 l 279 218 l 279 690 b 521 497 361 665 521 618 b 383 229 521 371 432 276 b 397 213 369 215 376 200 b 546 356 447 242 510 300 b 600 529 585 415 600 474 z "},"♬":{"ha":175,"x_min":0,"x_max":0,"o":"m 342 628 l 342 708 l 824 811 l 824 731 z m 879 951 l 286 832 l 286 213 l 596 213 l 1078 317 z "},"㉿":{"ha":0,"x_min":0,"x_max":0,"o":"m 1222 501 b 1218 572 1222 525 1221 549 l 878 572 l 878 472 l 1121 472 b 631 10 1107 214 917 10 b 164 372 382 10 219 160 l 56 371 b 631 -89 117 106 332 -89 b 1222 501 985 -89 1222 179 z m 1185 697 b 631 1090 1097 932 907 1090 b 42 501 281 1090 42 822 l 42 472 l 315 472 l 315 572 l 146 572 b 631 993 185 813 363 993 b 1075 697 853 993 1000 872 z m 931 822 l 788 822 l 518 535 l 518 822 l 407 822 l 407 199 l 518 199 l 518 400 l 607 490 l 803 199 l 942 199 l 683 569 z "},"㈜":{"ha":0,"x_min":0,"x_max":0,"o":"m 279 1115 b 229 1101 261 1122 240 1117 b 35 460 124 961 35 775 b 229 -182 35 144 124 -42 b 279 -196 240 -197 261 -203 b 299 -153 297 -189 307 -168 b 129 460 193 17 129 182 b 299 1072 129 738 193 903 b 279 1115 307 1088 297 1108 z m 986 1115 b NaN NaN 968 1108 957 NaN b NaN NaN NaN NaN NaN NaN b NaN NaN NaN NaN NaN NaN b NaN NaN NaN NaN NaN NaN b NaN NaN NaN NaN NaN NaN b NaN NaN NaN NaN NaN NaN b NaN NaN NaN NaN NaN NaN b NaN NaN NaN NaN NaN NaN z m NaN NaN l NaN NaN b NaN NaN NaN NaN NaN NaN b NaN NaN NaN NaN NaN NaN l NaN NaN l NaN NaN b NaN NaN NaN NaN NaN NaN b NaN NaN NaN NaN NaN NaN b NaN NaN NaN NaN NaN NaN b NaN NaN NaN NaN NaN NaN b NaN NaN NaN NaN NaN NaN b NaN NaN NaN NaN NaN NaN b NaN NaN NaN NaN NaN NaN b NaN NaN NaN NaN NaN NaN b NaN NaN NaN NaN NaN NaN b NaN NaN NaN NaN NaN NaN b NaN NaN NaN NaN NaN NaN b NaN NaN NaN NaN NaN NaN l NaN NaN l NaN NaN b NaN NaN NaN NaN NaN NaN b NaN NaN NaN NaN NaN NaN z m NaN NaN l NaN NaN b NaN NaN NaN NaN NaN NaN b NaN NaN NaN NaN NaN NaN l NaN NaN l NaN NaN b NaN NaN NaN NaN NaN NaN b NaN NaN NaN NaN NaN NaN l NaN NaN l NaN NaN b NaN NaN NaN NaN NaN NaN b NaN NaN NaN NaN NaN NaN z "},"№":{"ha":676,"x_min":0,"x_max":0,"o":"m 1204 1008 z m 1613 942 "},"㏇":{"ha":0,"x_min":0,"x_max":0,"o":"b 353 539 488 607 435 539 b NaN NaN 325 539 214 NaN b NaN NaN NaN NaN NaN NaN b NaN NaN NaN NaN NaN NaN b NaN NaN NaN NaN NaN NaN m NaN NaN z m NaN NaN "},"™":{"ha":0,"x_min":0,"x_max":0,"o":""},"㏂":{"ha":0,"x_min":0,"x_max":0,"o":"m 193 736 b 57 674 138 736 90 708 b 56 615 39 653 42 631 b 108 608 69 597 90 593 b 193 647 133 632 161 647 b 267 494 238 647 267 626 l 267 426 l 213 426 b 26 222 83 426 26 342 l 26 199 b 172 -6 26 61 82 -6 b 281 65 232 -6 267 26 l 281 31 b 317 0 281 10 299 0 b 354 31 336 0 354 8 l 354 518 b 193 736 354 682 286 736 z m 713 736 b 589 653 664 736 610 703 l 589 692 b 558 625 589 669 569 649 l 558 -32 b 601 -67 558 -56 579 -67 b 646 -32 625 -67 646 -56 l 646 426 b 743 581 646 511 678 581 b 821 435 804 581 821 542 l 821 -32 b 864 -67 821 -56 842 -67 b 908 -32 888 -67 908 -56 l 908 431 b 1004 581 908 515 939 581 b 1083 425 1067 581 1083 533 l 1083 -32 b 1126 -67 1083 -56 1106 -67 b 1171 -32 1150 -67 1171 -56 l 1171 453 b 1025 669 1171 604 1110 669 b 888 581 958 669 913 635 b 765 669 864 651 814 669 z m 261 281 l 321 281 l 321 125 b 235 8 321 56 297 8 b 165 140 194 8 165 39 l 165 150 b 261 281 165 228 194 281 z m 482 24 z m 1250 24 z "},"㏘":{"ha":0,"x_min":0,"x_max":0,"o":"m 244 742 b 129 658 193 742 149 710 l 129 699 b 89 732 129 722 110 732 b 50 699 69 732 50 722 l 50 -233 b 93 -269 50 -258 72 -269 b 138 -233 117 -269 138 -258 l 138 78 b 246 -6 156 19 199 -6 b 406 321 340 -6 406 82 l 406 417 b 244 742 406 635 354 742 z m 726 736 b 607 653 678 736 629 703 l 607 692 b 565 726 607 717 588 726 b 524 692 544 726 524 715 l 524 35 l 982 35 b 1075 189 982 119 1008 189 b 1150 43 1135 189 1150 147 l 1150 -424 l 1613 -424 b 1704 -274 1613 -339 1639 -274 b 1779 -429 1769 -274 1779 -328 l 1779 -886 l 2264 -886 b 2121 -669 2264 -735 2204 -669 b 1986 -758 2054 -669 2013 -704 b 1865 -669 1964 -687 1914 -669 z m 1372 -753 b 1460 -990 1440 -753 1460 -861 l 1460 -1079 b 1372 -1322 1460 -1253 1442 -1322 b 1276 -1126 1307 -1322 1276 -1211 l 1276 -949 b 1372 -753 1276 -854 1288 -753 z m 1586 -1315 b 1540 -1361 1561 -1315 1540 -1335 b 1586 -1407 1540 -1386 1561 -1407 b 1635 -1361 1613 -1407 1635 -1386 b 1586 -1315 1635 -1335 1613 -1315 z m 2342 -1315 z "},"℡":{"ha":621,"x_min":0,"x_max":0,"o":"m 607 993 l 49 993 b 11 949 22 993 11 974 b 49 906 11 924 22 906 l 275 906 l 275 42 l 275 13 l 299 13 l 299 0 l 324 0 l 324 28 l 1188 28 l 1188 258 b 1225 301 1214 258 1225 276 b 1188 346 1225 326 1214 346 l 1188 850 l 921 850 l 921 251 b 1006 169 921 189 942 169 l 1279 169 b 1311 213 1301 169 1311 192 b 1279 256 1311 233 1301 256 l 1021 256 l 1021 850 b 969 890 1021 879 997 890 z m 783 888 l 499 888 b 415 806 436 888 415 867 l 415 251 b 499 169 415 189 436 169 l 794 169 b 794 NaN 819 169 794 NaN l 515 NaN l 515 NaN l 757 NaN l 757 NaN l 979 NaN l 979 NaN z "},"！":{"ha":0,"x_min":0,"x_max":0,"o":"m 632 1021 b 576 972 599 1021 576 1006 l 589 296 b 632 251 589 264 607 251 b 675 296 657 251 675 264 b 753 372 719 296 753 329 b 675 450 753 415 719 450 z "},"＂":{"ha":0,"x_min":0,"x_max":0,"o":"m 532 1021 z m 732 1021 b 678 975 703 1021 676 1006 l 689 719 b 732 679 690 692 706 679 b 774 719 758 679 772 692 l 785 975 b 732 1021 786 1006 761 1021 z "},"＃":{"ha":0,"x_min":0,"x_max":0,"o":"m 557 999 b 510 964 531 1000 513 989 l 474 719 l 343 719 l 343 839 l 306 575 l 179 575 l 179 690 l 146 690 l 146 450 l 142 450 l 142 424 l 157 424 l 157 410 l 182 410 l 182 617 l 147 617 l 147 376 l 144 376 l 144 350 l 160 350 l 160 336 l 183 336 l 183 467 l 65 467 l 101 731 l 228 731 l 228 617 b 19 NaN 261 854 264 819 l NaN NaN l NaN NaN l NaN NaN b NaN NaN NaN NaN NaN NaN "},"＄":{"ha":0,"x_min":0,"x_max":0,"o":"m 635 1076 b 568 1071 615 1061 590 1076 b 543 997 553 1047 539 1025 b 747 903 567 983 643 933 b NaN NaN 851 897 NaN NaN l NaN NaN b NaN NaN NaN NaN NaN NaN b NaN NaN NaN NaN NaN NaN l NaN NaN b NaN NaN NaN NaN NaN NaN l NaN NaN b NaN NaN NaN NaN NaN NaN l NaN NaN b NaN NaN NaN NaN NaN NaN b NaN NaN NaN NaN NaN NaN b NaN NaN NaN NaN NaN NaN b NaN NaN NaN NaN NaN NaN l NaN NaN b NaN NaN NaN NaN NaN NaN l NaN NaN l NaN NaN b NaN NaN NaN NaN NaN NaN l NaN NaN b NaN NaN NaN NaN NaN NaN z m NaN NaN l NaN NaN b NaN NaN NaN NaN NaN NaN l NaN NaN b NaN NaN NaN NaN NaN NaN z "},"％":{"ha":0,"x_min":0,"x_max":0,"o":"m 333 1008 z m 935 993 b 881 981 915 1003 893 1000 l 315 60 b 331 7 303 38 311 17 b 386 19 350 -3 374 -1 l 950 940 b 935 993 964 963 954 982 z m 333 933 b 468 761 425 933 468 881 l 468 739 b 333 568 468 621 425 568 b 199 739 243 568 199 621 l 199 761 b 333 933 199 881 243 933 "},"＆":{"ha":0,"x_min":0,"x_max":0,"o":"b NaN 1026 0 1025 -26 1026 b NaN 988 NaN 1028 NaN 1014 b NaN 760 NaN 907 NaN 828 l NaN 1033 b NaN 1294 NaN 1122 NaN 1207 l NaN 1311 b NaN 1508 NaN 1411 NaN 1508 b NaN 1313 NaN 1508 NaN 1425 l NaN 1297 b NaN 1090 NaN 1218 NaN 1151 l NaN 1057 l NaN 954 l NaN 972 b NaN NaN NaN 997 NaN 1018 b NaN NaN NaN NaN NaN NaN m NaN NaN l NaN NaN b NaN NaN NaN NaN NaN NaN b NaN NaN NaN NaN NaN NaN l NaN NaN b NaN NaN NaN NaN NaN NaN l NaN NaN b NaN NaN NaN NaN NaN NaN z m NaN NaN b NaN NaN NaN NaN NaN NaN l NaN NaN b NaN NaN NaN NaN NaN NaN l NaN NaN b NaN NaN NaN NaN NaN NaN z "},"＇":{"ha":0,"x_min":0,"x_max":0,"o":"m 632 1021 z "},"（":{"ha":0,"x_min":0,"x_max":0,"o":"b -65 711 0 1164 -65 946 l -65 682 b -276 779 -300 747 -282 758 b NaN NaN -287 799 NaN NaN b NaN NaN NaN NaN NaN NaN l NaN NaN b NaN NaN NaN NaN NaN NaN b NaN NaN NaN NaN NaN NaN "},"）":{"ha":0,"x_min":0,"x_max":0,"o":""},"＊":{"ha":0,"x_min":0,"x_max":0,"o":"m 631 1035 b 588 996 604 1035 585 1019 l 600 810 l 443 914 b 389 894 425 926 400 918 b 404 839 378 872 382 849 l 578 756 l 404 675 b 389 618 382 665 378 640 b 443 600 400 596 425 588 l 600 703 l 588 519 b 631 481 585 494 604 481 b 675 519 657 481 678 494 l 661 703 l 819 600 b 874 618 838 588 863 596 b 858 675 885 640 881 665 l 685 756 "},"＋":{"ha":0,"x_min":0,"x_max":0,"o":"m 943 542 l 678 542 l 678 811 b 632 849 678 838 656 849 b 585 811 608 849 585 838 z "},"，":{"ha":0,"x_min":0,"x_max":0,"o":""},"－":{"ha":0,"x_min":0,"x_max":0,"o":"m 818 543 "},"．":{"ha":0,"x_min":0,"x_max":0,"o":"m 632 121 z "},"／":{"ha":0,"x_min":0,"x_max":0,"o":"m 847 1108 b 788 1083 822 1117 796 1111 l 388 -122 b 417 -174 379 -149 393 -167 b 476 -149 442 -182 467 -176 l 876 1056 b 847 1108 885 1082 871 1101 z "},"０":{"ha":0,"x_min":0,"x_max":0,"o":""},"１":{"ha":0,"x_min":0,"x_max":0,"o":"m 782 999 b 711 972 761 999 738 989 l 449 808 b 435 746 425 793 424 767 b 497 726 449 724 474 713 l 735 876 l 735 42 l 1647 42 b 1593 86 1647 74 1625 86 z "},"２":{"ha":0,"x_min":0,"x_max":0,"o":"m 621 1008 b 325 842 478 1008 383 936 b 340 778 310 818 318 793 b 403 789 363 763 388 768 b 624 917 456 869 521 917 b 814 757 749 917 814 854 l 814 749 b 697 515 814 672 792 619 l 343 126 b 306 60 314 93 306 78 b 382 6 306 24 326 6 l 922 6 b 922 NaN 947 6 922 NaN l 439 NaN l 785 NaN b 915 NaN 876 NaN 915 NaN l 915 NaN b 621 NaN 915 NaN 814 NaN z "},"３":{"ha":0,"x_min":0,"x_max":0,"o":"m 613 1008 b 346 882 490 1008 397 953 b 374 882 331 882 311 882 b NaN NaN 410 882 499 NaN b NaN NaN NaN NaN NaN NaN l NaN NaN b NaN NaN NaN NaN NaN NaN l NaN NaN b NaN NaN NaN NaN NaN NaN b NaN NaN NaN NaN NaN NaN l NaN NaN b NaN NaN NaN NaN NaN NaN l NaN NaN b NaN NaN NaN NaN NaN NaN b NaN NaN NaN NaN NaN NaN b NaN NaN NaN NaN NaN NaN z "},"４":{"ha":0,"x_min":0,"x_max":0,"o":"m 976 313 l 858 313 l 858 593 l 858 622 l 835 622 l 835 635 l 807 635 l 807 354 l 422 354 l 846 965 b 833 1031 865 993 856 1017 b 769 1021 813 1044 786 1044 l 332 389 b 299 319 303 344 299 333 b 371 268 299 285 318 268 l 807 268 l 807 83 l 807 54 l 831 54 l 831 239 l 949 239 b 985 282 975 239 985 258 b 949 325 985 306 975 325 z "},"５":{"ha":0,"x_min":0,"x_max":0,"o":""},"６":{"ha":0,"x_min":0,"x_max":0,"o":""},"７":{"ha":0,"x_min":0,"x_max":0,"o":""},"８":{"ha":0,"x_min":0,"x_max":0,"o":""},"９":{"ha":0,"x_min":0,"x_max":0,"o":"m 626 1008 b 297 690 438 1008 297 888 l 297 665 b 608 356 297 474 419 356 b 867 493 717 356 822 406 b 596 83 857 199 774 83 b 411 129 522 83 463 100 b 350 108 385 142 363 133 b 368 44 338 83 343 60 b 590 -10 422 13 501 -10 b 965 221 825 -10 965 129 b NaN NaN 965 126 815 NaN l NaN NaN b NaN NaN NaN NaN NaN NaN b NaN NaN NaN NaN NaN NaN l NaN NaN b NaN NaN NaN NaN NaN NaN z "},"：":{"ha":0,"x_min":0,"x_max":0,"o":"m 632 808 z m 632 278 z "},"；":{"ha":0,"x_min":0,"x_max":0,"o":"m 638 808 z m 658 276 b 585 229 622 282 590 268 l 547 -6 b 579 -53 543 -32 554 -49 b 633 -19 604 -57 624 -47 l 701 207 b 658 276 713 244 693 271 z "},"＜":{"ha":0,"x_min":0,"x_max":0,"o":""},"＝":{"ha":-567,"x_min":0,"x_max":0,"o":"m 915 689 z m 915 396 l 1482 396 l 1482 -171 l 2049 -171 b 2049 NaN 2074 -171 2049 NaN z "},"＞":{"ha":0,"x_min":0,"x_max":0,"o":""},"？":{"ha":-24,"x_min":0,"x_max":0,"o":"m 626 1008 b 358 904 513 1008 417 960 b 356 840 339 886 339 860 b 418 833 372 819 397 817 b 372 853 418 882 472 943 b 238 604 256 749 238 699 b 288 564 238 576 263 564 b 336 603 313 564 336 578 b 461 813 336 672 347 710 b 606 1056 558 899 606 963 l 606 1071 b 311 1321 606 1222 493 1321 z "},"＠":{"ha":0,"x_min":0,"x_max":0,"o":""},"Ａ":{"ha":0,"x_min":0,"x_max":0,"o":"m 632 999 b 571 954 606 999 583 988 l 224 64 b 251 4 213 35 225 13 b 317 29 279 -6 306 0 l 421 307 b NaN NaN 839 -37 1728 NaN l NaN NaN b NaN NaN NaN NaN NaN NaN z m NaN NaN b NaN NaN NaN NaN NaN NaN l NaN NaN l NaN NaN l NaN NaN b NaN NaN NaN NaN NaN NaN z "},"Ｂ":{"ha":0,"x_min":0,"x_max":0,"o":"m 625 993 l 379 993 l 379 1283 b 689 1547 596 1283 689 1382 l 689 1575 b 481 1803 689 1715 610 1785 b 643 2004 600 1832 643 1915 l 643 2026 b 335 2271 643 2192 544 2271 z m 94 1843 l 94 2183 l 313 2183 b 542 2024 478 2183 542 2131 l 542 2006 b 319 1843 542 1889 467 1843 z m 94 1371 l 94 1757 l 322 1757 b 586 1578 518 1757 586 1694 l 586 1554 b 351 1371 586 1421 508 1371 z "},"Ｃ":{"ha":0,"x_min":0,"x_max":0,"o":"b 528 -68 663 0 610 -68 b NaN NaN 500 -68 389 NaN b NaN NaN NaN NaN NaN NaN b NaN NaN NaN NaN NaN NaN b NaN NaN NaN NaN NaN NaN b NaN NaN NaN NaN NaN NaN b NaN NaN NaN NaN NaN NaN b NaN NaN NaN NaN NaN NaN "},"Ｄ":{"ha":0,"x_min":0,"x_max":0,"o":""},"Ｅ":{"ha":0,"x_min":0,"x_max":0,"o":"m 896 993 "},"Ｆ":{"ha":-436,"x_min":0,"x_max":0,"o":"m 896 993 l 425 993 l 425 922 l 835 922 l 835 1358 z "},"Ｇ":{"ha":0,"x_min":0,"x_max":0,"o":"m 671 1008 b 379 865 671 729 536 865 b 778 983 656 865 778 960 b NaN NaN 778 1015 840 NaN l NaN NaN l NaN NaN b NaN NaN NaN NaN NaN NaN b NaN NaN NaN NaN NaN NaN l NaN NaN l NaN NaN b NaN NaN NaN NaN NaN NaN b NaN NaN NaN NaN NaN NaN b NaN NaN NaN NaN NaN NaN b NaN NaN NaN NaN NaN NaN b NaN NaN NaN NaN NaN NaN b NaN NaN NaN NaN NaN NaN b NaN NaN NaN NaN NaN NaN z "},"Ｈ":{"ha":0,"x_min":0,"x_max":0,"o":"l 0 322 l 999 322 l 999 350 l 1436 350 l 1436 863 l 999 863 l 999 890 l 1914 890 b 1861 932 1914 919 1889 932 b 1811 890 1836 932 1811 919 "},"Ｉ":{"ha":0,"x_min":0,"x_max":0,"o":"m 631 999 "},"Ｊ":{"ha":0,"x_min":0,"x_max":0,"o":"l 0 825 l -672 825 b -839 625 -672 685 -726 625 b -990 669 -900 625 -947 642 b -1001 742 -1015 669 -1001 646 b NaN NaN -1001 831 -814 NaN "},"Ｋ":{"ha":0,"x_min":0,"x_max":0,"o":"l 0 329 l 317 329 l 454 468 l 829 -8 b 899 -18 849 -33 876 -35 b 907 50 921 0 928 25 l 524 535 b 888 938 874 890 893 911 b NaN NaN 868 917 382 414 l NaN NaN "},"Ｌ":{"ha":379,"x_min":0,"x_max":0,"o":""},"Ｍ":{"ha":0,"x_min":0,"x_max":0,"o":"m 249 994 l 238 994 b 169 913 189 994 169 972 l 169 40 b 217 0 169 13 193 0 b 265 40 243 0 265 13 l 265 878 b 332 721 289 815 308 771 l 574 207 b 633 165 588 175 604 165 b 690 206 661 165 676 175 l 933 721 b 997 878 957 772 975 815 l 997 40 l 997 13 l 1019 13 l 1019 0 l 1046 0 l 1046 872 b 978 954 1046 932 1026 954 l 965 954 b 882 883 925 954 906 942 l 586 246 l 283 885 b 200 954 258 943 240 954 z "},"Ｎ":{"ha":53,"x_min":0,"x_max":0,"o":"l 0 942 l 999 942 l 999 110 b 1025 128 986 110 1025 92 b 1747 -296 1025 111 1056 -296 b 1671 -383 1694 -296 1671 -318 l 1671 -1250 l 1671 -1278 l 1694 -1278 l 1694 -446 b 1742 -551 1707 -485 1725 -521 l 2149 -1243 b 2239 -1314 2185 -1304 2201 -1314 "},"Ｏ":{"ha":632,"x_min":0,"x_max":0,"o":""},"Ｐ":{"ha":0,"x_min":0,"x_max":0,"o":""},"Ｑ":{"ha":0,"x_min":0,"x_max":0,"o":"m 626 1008 b 156 878 626 743 317 878 b 522 981 421 878 522 956 b NaN NaN 522 1021 581 NaN l NaN NaN b NaN NaN NaN NaN NaN NaN b NaN NaN NaN NaN NaN NaN l NaN NaN b NaN NaN NaN NaN NaN NaN l NaN NaN b NaN NaN NaN NaN NaN NaN z m NaN NaN b NaN NaN NaN NaN NaN NaN l NaN NaN b NaN NaN NaN NaN NaN NaN l NaN NaN b NaN NaN NaN NaN NaN NaN b NaN NaN NaN NaN NaN NaN b NaN NaN NaN NaN NaN NaN l NaN NaN b NaN NaN NaN NaN NaN NaN z "},"Ｒ":{"ha":117,"x_min":0,"x_max":0,"o":"m 625 993 l 390 993 l 390 922 l 415 922 l 415 910 l 440 910 l 440 938 l 825 938 l 825 1147 b 886 1151 846 1147 867 1149 l 1089 746 b 1156 728 1103 719 1128 714 b 1176 790 1181 740 1190 763 l 985 1168 z m 758 690 "},"Ｓ":{"ha":0,"x_min":0,"x_max":0,"o":"m 633 1008 b 425 828 436 879 421 854 b NaN NaN 450 811 NaN NaN b NaN NaN NaN NaN NaN NaN b NaN NaN NaN NaN NaN NaN l NaN NaN b NaN NaN NaN NaN NaN NaN b NaN NaN NaN NaN NaN NaN l NaN NaN b NaN NaN NaN NaN NaN NaN b NaN NaN NaN NaN NaN NaN b NaN NaN NaN NaN NaN NaN b NaN NaN NaN NaN NaN NaN z "},"Ｔ":{"ha":0,"x_min":0,"x_max":0,"o":"m 974 993 l 290 993 b 290 NaN 264 993 290 NaN l 581 NaN l 581 NaN l 581 NaN l 1443 NaN l 1443 NaN "},"Ｕ":{"ha":0,"x_min":0,"x_max":0,"o":""},"Ｖ":{"ha":0,"x_min":0,"x_max":0,"o":"b 964 29 1003 0 993 29 b 1028 18 978 29 1000 18 b 1092 63 1056 18 1079 29 l 1429 953 b 1400 1013 1442 983 1426 1004 "},"Ｗ":{"ha":0,"x_min":0,"x_max":0,"o":"m 633 999 l 603 974 b 571 NaN 588 938 578 908 b 535 NaN 542 NaN 526 NaN l 785 NaN b 851 NaN 794 NaN 822 NaN b 917 NaN 879 NaN 907 NaN l 1146 NaN l 1371 NaN b 1436 NaN 1381 NaN 1408 NaN b 1503 NaN 1465 NaN 1492 NaN l 1754 NaN b 1719 NaN 1763 NaN 1749 NaN b 1660 NaN 1693 NaN 1668 NaN l 1438 NaN l 1211 NaN b 1146 NaN 1200 NaN 1175 NaN z "},"Ｘ":{"ha":0,"x_min":0,"x_max":0,"o":"m 964 990 b 897 974 940 1006 914 1000 l 640 583 "},"Ｙ":{"ha":0,"x_min":0,"x_max":0,"o":"m 969 993 b 904 974 944 1004 919 1000 l 636 501 l 357 974 b 289 992 342 1001 313 1004 b 272 928 265 976 257 954 l 582 408 l 582 42 l 610 42 l 610 408 l 915 931 b 894 993 932 958 919 981 z "},"Ｚ":{"ha":0,"x_min":0,"x_max":0,"o":"m 906 993 l 322 993 b 322 NaN 296 993 322 NaN l 851 NaN l 299 NaN b 254 NaN 258 NaN 254 NaN b 332 NaN 254 NaN 274 NaN l 972 NaN l 379 NaN l 942 NaN b 979 NaN 976 NaN 979 NaN b 906 NaN 979 NaN 960 NaN z "},"［":{"ha":0,"x_min":0,"x_max":0,"o":"m 1176 1106 l 1176 903 l 82 903 b 175 813 82 835 106 813 "},"￦":{"ha":0,"x_min":0,"x_max":0,"o":"m 633 999 b 575 947 604 999 583 983 l 479 576 l 267 576 l 174 963 b 118 997 165 994 143 1003 b 83 940 90 990 75 972 l 175 576 l 47 576 b 19 542 28 576 19 561 b 47 508 19 524 28 508 l 192 508 l 308 51 b 368 0 317 15 343 0 b 428 51 393 0 418 15 l 543 508 l 721 508 l 833 51 b 893 0 843 15 867 0 b 953 51 918 0 943 15 l 1068 508 b 1232 546 1217 508 1232 526 b NaN 519 1232 539 1247 519 l NaN 519 l NaN 883 b NaN 940 NaN 915 NaN 933 b NaN 906 NaN 946 NaN 936 l NaN 519 l NaN 519 l NaN 890 b NaN 942 NaN 926 NaN 942 z m NaN 519 l NaN 806 l NaN 519 z m NaN 92 l NaN 451 l NaN 451 z m NaN 93 l NaN 451 l NaN 451 z "},"］":{"ha":0,"x_min":0,"x_max":0,"o":""},"＾":{"ha":0,"x_min":0,"x_max":0,"o":"m 632 1025 b 564 975 601 1025 585 1013 b 736 NaN 365 988 389 1178 l NaN NaN l NaN NaN b NaN NaN NaN NaN NaN NaN b NaN NaN NaN NaN NaN NaN l NaN NaN b NaN NaN NaN NaN NaN NaN z "},"＿":{"ha":0,"x_min":0,"x_max":0,"o":"m 933 -57 l 331 -57 b 299 -97 308 -57 299 -74 b 331 -135 299 -119 308 -135 l 933 -135 b 965 -97 956 -135 965 -119 b 933 -57 965 -74 956 -57 z "},"｀":{"ha":0,"x_min":0,"x_max":0,"o":"m 549 1056 b 540 989 528 1038 521 1010 l 667 853 "},"ａ":{"ha":0,"x_min":0,"x_max":0,"o":"m 646 742 b 660 703 557 644 594 703 b NaN NaN 682 703 751 NaN b NaN NaN NaN NaN NaN NaN l NaN NaN l NaN NaN b NaN NaN NaN NaN NaN NaN l NaN NaN b NaN NaN NaN NaN NaN NaN b NaN NaN NaN NaN NaN NaN b NaN NaN NaN NaN NaN NaN l NaN NaN l NaN NaN l NaN NaN l NaN NaN l NaN NaN l NaN NaN l NaN NaN b NaN NaN NaN NaN NaN NaN z m NaN NaN l NaN NaN l NaN NaN b NaN NaN NaN NaN NaN NaN b NaN NaN NaN NaN NaN NaN b NaN NaN NaN NaN NaN NaN l NaN NaN b NaN NaN NaN NaN NaN NaN z "},"ｂ":{"ha":0,"x_min":0,"x_max":0,"o":"l 0 372 l -951 372 l -951 344 l -928 344 l -928 404 l -926 404 b -706 299 -887 339 -801 299 b -996 600 -706 482 -806 600 b -1225 481 -1093 600 -1183 554 "},"ｃ":{"ha":0,"x_min":0,"x_max":0,"o":""},"ｄ":{"ha":0,"x_min":0,"x_max":0,"o":"l 0 892 l 1033 892 l 1033 543 b 814 642 997 600 917 642 b 514 297 631 642 514 529 l 514 239 b 803 -106 514 13 615 -106 b 1035 18 910 -106 997 -57 l 1038 18 l 1038 -60 "},"ｅ":{"ha":0,"x_min":0,"x_max":0,"o":""},"ｆ":{"ha":0,"x_min":0,"x_max":0,"o":""},"ｇ":{"ha":0,"x_min":0,"x_max":0,"o":"m 622 742 b 322 403 439 742 322 629 l 322 353 b 611 14 322 132 424 14 b 840 138 718 14 803 61 l 842 138 l 842 28 b 633 -192 842 -126 765 -192 b 458 -139 567 -192 507 -171 b 399 -156 433 -126 413 -133 b 411 -219 386 -176 388 -206 b 511 -340 411 -256 469 -340 b 303 -532 410 -340 303 -422 b 411 -587 303 -671 238 -587 l 411 -549 b 619 -292 411 -372 490 -292 z "},"ｈ":{"ha":0,"x_min":0,"x_max":0,"o":"b 910 -569 0 382 1033 -569 b 761 -653 825 -569 761 -626 l 758 -653 l 758 -281 b 710 -240 758 -253 735 -240 "},"ｉ":{"ha":0,"x_min":0,"x_max":0,"o":"b -675 1281 0 632 -649 1281 "},"ｊ":{"ha":0,"x_min":0,"x_max":0,"o":""},"ｋ":{"ha":0,"x_min":0,"x_max":0,"o":"b 171 NaN 390 -950 511 -840 l NaN NaN "},"ｌ":{"ha":0,"x_min":0,"x_max":0,"o":"l 0 631 l 1033 631 l 1033 -319 "},"ｍ":{"ha":0,"x_min":0,"x_max":0,"o":"m 438 742 b 218 617 322 742 251 681 l 218 692 l 218 1119 b 406 1303 218 1201 279 1303 b 578 1108 528 1303 578 1238 l 578 692 l 578 663 l 601 663 l 601 1089 b 790 1274 601 1176 665 1274 b 960 1079 910 1274 960 1210 l 960 663 l 1400 663 b 1154 922 1400 811 1321 922 b 914 789 1033 922 956 865 b 697 922 886 867 815 922 z "},"ｎ":{"ha":0,"x_min":0,"x_max":0,"o":"m 668 742 b 432 621 544 742 460 676 b NaN -31 432 619 503 -31 z "},"ｏ":{"ha":0,"x_min":0,"x_max":0,"o":"m 632 742 b 983 1061 632 943 757 1061 l 983 1119 b 657 1464 983 1346 858 1464 z m 657 1375 b 658 1436 657 1518 739 1436 b 372 1436 515 1436 372 1354 b NaN NaN 372 1517 515 NaN z "},"ｐ":{"ha":0,"x_min":0,"x_max":0,"o":"m 651 742 b 419 617 550 742 461 694 l 419 692 b 721 -518 419 -228 603 -328 "},"ｑ":{"ha":0,"x_min":0,"x_max":0,"o":"m 622 742 b 322 397 439 742 322 629 l 322 339 b 611 -6 322 113 424 -6 b 840 118 718 -6 803 42 l 842 118 l 842 -229 b 892 -269 842 -257 867 -269 b 942 -229 917 -269 942 -257 l 942 692 l 942 643 l 939 643 b 719 742 904 700 821 742 "},"ｒ":{"ha":0,"x_min":0,"x_max":0,"o":"m 732 742 b 682 658 732 632 658 658 b 672 NaN 676 658 672 679 b 725 NaN 697 NaN 718 NaN b 703 NaN 731 NaN 724 NaN b 621 NaN 681 NaN 653 NaN z "},"ｓ":{"ha":0,"x_min":0,"x_max":0,"o":"b -182 586 0 636 -62 586 b -397 647 -265 586 -344 614 b -458 631 -422 663 -446 654 b -444 569 -469 610 -467 585 b -182 500 -385 532 -289 500 b 99 703 -8 500 99 588 l 99 711 b -167 929 99 840 38 890 b -353 1050 -314 957 -353 986 l -353 1054 b -176 1163 -353 1115 -299 1163 b 6 1117 -104 1163 -43 1144 b 61 1133 29 1104 50 1113 b 43 1194 74 1157 68 1181 b -179 1247 -10 1226 -86 1247 "},"ｔ":{"ha":0,"x_min":0,"x_max":0,"o":""},"ｕ":{"ha":0,"x_min":0,"x_max":0,"o":""},"ｖ":{"ha":0,"x_min":0,"x_max":0,"o":""},"ｗ":{"ha":0,"x_min":0,"x_max":0,"o":"l 633 -151 l 1215 -160 b 1251 NaN 1250 -186 1257 -214 b 1215 NaN 1222 NaN 1207 NaN l 1393 NaN b 1463 NaN 1403 NaN 1426 NaN b 1532 NaN 1499 NaN 1521 NaN l 1699 NaN l 1703 NaN l 1872 NaN "},"ｘ":{"ha":0,"x_min":0,"x_max":0,"o":""},"ｙ":{"ha":0,"x_min":0,"x_max":0,"o":"m 914 728 b 851 703 890 736 861 732 l 636 125 l 635 125 l 414 704 b 350 728 404 733 375 736 b 321 668 326 718 310 697 l 585 10 l 493 -214 b 519 -269 482 -240 496 -260 b 582 -249 544 -279 572 -274 l 943 671 b 914 728 954 699 938 721 z "},"ｚ":{"ha":0,"x_min":0,"x_max":0,"o":"m 836 726 l 393 726 l 393 1117 l -15 597 "},"｛":{"ha":0,"x_min":0,"x_max":0,"o":"m 1176 1106 l 1078 1106 b 939 989 949 1035 939 1017 b 893 1163 939 963 949 1033 l 992 1163 b 992 NaN 1017 1163 992 NaN l 903 NaN b 913 NaN 903 NaN 878 NaN "},"｜":{"ha":0,"x_min":0,"x_max":0,"o":"l 0 632 l 1111 632 l 1111 -572 "},"｝":{"ha":0,"x_min":0,"x_max":0,"o":""},"‾":{"ha":0,"x_min":0,"x_max":0,"o":"m 1242 1086 l 22 1086 b 0 1060 7 1086 0 1074 b 22 1032 0 1044 7 1032 l 1242 1032 b 1264 1060 1257 1032 1264 1044 b 1242 1086 1264 1074 1257 1086 z "},"￣":{"ha":0,"x_min":0,"x_max":0,"o":"m 1242 1086 l 22 1086 b 0 1060 7 1086 0 1074 b 22 1032 0 1044 7 1032 l 1242 1032 b 1264 1060 1257 1032 1264 1044 b 1242 1086 1264 1074 1257 1086 z "},"ㄱ":{"ha":0,"x_min":0,"x_max":0,"o":"m 914 778 l 231 778 "},"ㄲ":{"ha":-297,"x_min":0,"x_max":0,"o":"m 468 778 z m 983 778 "},"ㄳ":{"ha":911,"x_min":0,"x_max":0,"o":"m -443 -12 "},"ㄴ":{"ha":0,"x_min":0,"x_max":0,"o":"m 306 800 b 254 757 278 800 254 788 l -296 757 l -296 1443 "},"ㄵ":{"ha":-7,"x_min":0,"x_max":0,"o":"b 879 -287 0 264 786 -287 b 890 NaN 883 -287 890 -235 b 921 NaN 914 NaN 924 NaN b 882 NaN 919 NaN 906 NaN m 1689 NaN l 1635 NaN l 1635 NaN l 1632 NaN l 1632 NaN l 2164 NaN l 2164 NaN l 2336 NaN l 2336 NaN b 2263 NaN 2336 NaN 2317 NaN b 2135 NaN 2221 NaN 2181 NaN b 2136 NaN 2117 NaN 2121 NaN b 2197 NaN 2151 NaN 2181 NaN b 2311 NaN 2236 NaN 2275 NaN b 2385 NaN 2357 NaN 2375 NaN b 2457 NaN 2393 NaN 2411 NaN b 2571 NaN 2493 NaN 2532 NaN b 2632 NaN 2589 NaN 2617 NaN b 2633 NaN 2647 NaN 2650 NaN b 2506 NaN 2588 NaN 2547 NaN b 2432 NaN 2451 NaN 2432 NaN z "},"ㄶ":{"ha":531,"x_min":0,"x_max":0,"o":"l 0 850 l 824 850 l 824 747 l 626 747 l 604 747 l 604 736 l 583 736 l 583 1226 b 617 1269 606 1226 617 1246 b 583 1313 617 1292 606 1313 b 651 525 583 1119 686 525 b 208 621 101 525 208 618 b NaN NaN 208 629 263 NaN b NaN NaN NaN NaN NaN NaN b NaN NaN NaN NaN NaN NaN b NaN NaN NaN NaN NaN NaN m NaN NaN b NaN NaN NaN NaN NaN NaN b NaN NaN NaN NaN NaN NaN b NaN NaN NaN NaN NaN NaN b NaN NaN NaN NaN NaN NaN z m NaN NaN b NaN NaN NaN NaN NaN NaN b NaN NaN NaN NaN NaN NaN b NaN NaN NaN NaN NaN NaN b NaN NaN NaN NaN NaN NaN z "},"ㄷ":{"ha":0,"x_min":0,"x_max":0,"o":"m 1008 778 l 332 778 l 332 299 l 1022 299 l 1022 -360 l 1460 -360 l 1460 285 b 1460 NaN 1483 285 1460 NaN z "},"ㄸ":{"ha":0,"x_min":0,"x_max":0,"o":"m 565 776 l 318 776 l 318 299 l 593 299 b 593 NaN 618 299 593 NaN l 350 NaN l 350 NaN l 565 NaN b 565 NaN 590 NaN 565 NaN z m 1049 NaN l 571 NaN l 571 NaN b 571 NaN 596 NaN 571 NaN l 1010 NaN l 1010 NaN b 1010 NaN 1035 NaN 1010 NaN z "},"ㄹ":{"ha":0,"x_min":0,"x_max":0,"o":"m 944 794 "},"ㄺ":{"ha":-296,"x_min":0,"x_max":0,"o":"m 504 779 l 221 779 b 178 NaN 197 779 178 803 l 436 NaN l 436 NaN l 243 NaN l 243 NaN l 564 NaN z m 1056 NaN l 1056 NaN l 1249 NaN l 1249 NaN l 967 NaN l 967 NaN l 446 NaN "},"ㄻ":{"ha":476,"x_min":0,"x_max":0,"o":"m 521 0 z m 311 -82 "},"ㄼ":{"ha":-242,"x_min":0,"x_max":0,"o":"m 718 789 b 672 751 696 789 672 776 l 672 976 l 1219 976 b 1172 1014 1219 1001 1196 1014 b 1128 976 1150 1014 1128 1001 l 1128 761 l 894 761 l 894 976 b 849 1014 894 1001 871 1014 z m 1136 451 "},"ㄽ":{"ha":890,"x_min":0,"x_max":0,"o":"m -410 -11 b 111 75 381 -11 111 233 b NaN -175 111 -103 90 -175 b NaN NaN NaN -364 NaN NaN "},"ㄾ":{"ha":0,"x_min":0,"x_max":0,"o":"m 1053 782 l 1053 493 l 568 493 l 568 796 l 285 796 l 285 989 l 564 989 l 285 989 l 285 1178 b 308 1200 285 1194 292 1200 "},"ㄿ":{"ha":-262,"x_min":0,"x_max":0,"o":"m 465 779 z m 1071 779 l 1308 779 l 1308 621 l 1136 621 l 1136 919 l 863 919 l 863 1092 l 1049 1092 l 1049 689 b 1017 647 1026 689 1017 668 b 1049 606 1017 626 1026 606 l 1106 606 l 1106 104 l 1043 104 b 1011 63 1021 104 1011 83 b 1043 21 1011 42 1021 21 l 1457 21 b 1489 63 1479 21 1489 42 b 1457 104 1489 83 1479 104 l 1394 104 l 1394 606 l 1451 606 b 1483 647 1474 606 1483 626 b 1451 689 1483 668 1474 689 z m 1193 104 l 1193 606 l 1307 606 l 1307 104 z "},"ㅀ":{"ha":-22,"x_min":0,"x_max":0,"o":"l 0 871 l 824 871 l 824 768 l 629 768 m 208 724 l 197 724 l 197 703 l 682 703 l 682 513 l 785 513 l 785 258 l 1015 258 l 1015 100 l 850 100 l 850 390 b 850 NaN 874 390 850 NaN z m 1271 NaN b 1169 NaN 1004 NaN 1169 NaN b 954 NaN 1169 NaN 1081 NaN b 946 NaN 1035 NaN 946 NaN b 1161 NaN 946 NaN 1035 NaN b 1168 NaN 1079 NaN 1168 NaN z m 1168 NaN b 1308 NaN 1261 NaN 1308 NaN b 1168 NaN 1308 NaN 1261 NaN b 1028 NaN 1076 NaN 1028 NaN b 1168 NaN 1028 NaN 1076 NaN z "},"ㅁ":{"ha":-619,"x_min":0,"x_max":0,"o":"m 942 782 z m 356 694 "},"ㅂ":{"ha":28,"x_min":0,"x_max":0,"o":"m 276 803 b 226 761 251 803 226 789 l 226 201 l 846 201 l 846 761 b 794 803 846 789 821 803 b 744 761 769 803 744 789 l 744 538 l 136 538 l 136 761 z m 188 181 "},"ㅃ":{"ha":558,"x_min":0,"x_max":0,"o":"l 0 228 l 801 228 l 801 -331 b 897 -424 801 -404 822 -424 b 1179 NaN 1106 -424 1179 NaN m 1681 NaN b 910 NaN 1681 NaN 1468 NaN b 1244 NaN 1468 NaN 1244 NaN z m 790 NaN z m 1292 NaN "},"ㅄ":{"ha":193,"x_min":0,"x_max":0,"o":"l 0 896 l 793 896 l 793 703 b 721 482 793 597 772 547 b 589 328 679 431 632 376 b 589 267 572 308 572 286 b 650 264 606 249 632 244 b 779 414 686 303 744 368 b 843 524 819 465 838 492 b 907 414 849 492 865 465 b 1035 264 942 368 1000 303 b 1096 267 1053 244 1079 249 b 1097 328 1114 286 1114 308 b 965 482 1053 376 1006 431 b 892 703 914 547 892 597 m 215 701 b 168 664 192 701 168 690 z m 215 92 z "},"ㅅ":{"ha":135,"x_min":0,"x_max":0,"o":"l 0 632 l 811 632 l 811 497 b 671 231 811 367 779 304 b 411 68 589 176 508 126 b 418 114 392 57 392 28 b 572 376 469 194 518 275 b 731 443 640 413 686 428 b 574 660 688 479 642 581 b 419 849 519 740 471 828 b 439 899 407 875 417 888 b 500 782 460 899 489 878 b 663 NaN 558 700 608 619 b 521 NaN 553 NaN 521 NaN "},"ㅆ":{"ha":0,"x_min":0,"x_max":0,"o":"l 0 399 l 815 399 l 815 229 b 729 -18 815 117 794 54 b 589 -161 678 -76 642 -114 b 589 -225 571 -178 572 -207 b 653 -229 606 -246 633 -247 b 776 -104 696 -192 739 -146 b 865 3 835 -42 861 0 b 736 99 836 19 796 67 b 625 211 696 138 658 169 b 625 326 583 253 583 294 b 736 444 658 365 696 397 b 840 436 796 461 836 465 b 964 290 865 394 924 332 b 1068 189 1006 244 1047 207 b 1142 189 1094 206 1113 207 b 1243 49 1158 136 1206 100 b NaN NaN 1301 NaN NaN NaN b NaN NaN NaN NaN NaN NaN l NaN NaN l NaN NaN b NaN NaN NaN NaN NaN NaN b NaN NaN NaN NaN NaN NaN b NaN NaN NaN NaN NaN NaN b NaN NaN NaN NaN NaN NaN b NaN NaN NaN NaN NaN NaN "},"ㅇ":{"ha":0,"x_min":0,"x_max":0,"o":"m 632 799 b 231 453 374 799 231 664 b 632 107 231 242 374 107 b 1033 453 890 107 1033 242 b 632 799 1033 664 890 799 z m 632 711 b 932 453 838 711 932 600 b 632 194 932 306 838 194 b 332 453 426 194 332 306 b 632 711 332 600 426 711 z "},"ㅈ":{"ha":113,"x_min":0,"x_max":0,"o":"m 1018 793 l 246 793 l 221 793 l 221 782 l 200 782 l 200 1117 l 88 1117 b -50 871 88 990 57 939 b -294 725 -136 815 -192 785 b -306 664 -317 713 -317 685 b -246 642 -292 642 -267 629 b -12 779 -161 690 -93 729 b 86 989 90 843 129 886 b -69 1222 22 1069 -28 1139 b -193 1321 -69 1250 -92 1263 b NaN NaN -249 1353 -336 1408 b NaN NaN NaN NaN NaN NaN z "},"ㅉ":{"ha":104,"x_min":0,"x_max":0,"o":"m 1057 793 l 207 793 l 207 949 l 103 949 b 19 703 103 842 94 783 b -118 568 -19 660 -62 617 b -118 506 -135 553 -135 525 b -56 501 -101 488 -76 483 b 65 621 -11 543 32 583 b 149 683 124 685 140 713 b 235 561 160 656 204 599 b 344 449 274 519 304 489 b 453 519 382 449 422 489 b 567 656 492 561 521 599 b 601 626 578 683 585 654 b 738 485 660 563 694 525 b 828 429 782 443 803 424 b 861 494 844 447 861 467 b 744 601 844 510 789 558 b NaN NaN 706 644 NaN NaN b NaN NaN NaN NaN NaN NaN z m NaN NaN l NaN NaN l NaN NaN l NaN NaN l NaN NaN b NaN NaN NaN NaN NaN NaN b NaN NaN NaN NaN NaN NaN b NaN NaN NaN NaN NaN NaN b NaN NaN NaN NaN NaN NaN b NaN NaN NaN NaN NaN NaN z "},"ㅊ":{"ha":51,"x_min":0,"x_max":0,"o":"l 0 631 l 899 631 l 899 497 l 551 497 l 526 497 l 526 486 l 506 486 l 506 835 l 454 835 b 317 601 454 717 424 668 b 69 456 231 547 168 511 b 58 394 49 443 47 417 b 117 372 71 372 96 361 b 353 511 203 421 272 463 b 504 661 458 575 494 622 b 654 513 515 622 550 576 b 890 374 738 463 806 422 b 950 396 913 363 936 374 b 939 456 961 417 960 443 b 690 601 839 511 778 547 b 554 835 583 669 554 717 "},"ㅋ":{"ha":0,"x_min":0,"x_max":0,"o":"m 938 792 l 253 792 l 253 1446 l 49 1446 l -660 1439 b -694 1392 -685 1439 -696 1418 b -657 1349 -694 1367 -683 1347 l 49 1360 "},"ㅌ":{"ha":24,"x_min":0,"x_max":0,"o":"m 1015 786 l 1015 104 l 525 104 l 525 -575 l 708 -575 l 708 90 z "},"ㅍ":{"ha":0,"x_min":0,"x_max":0,"o":"m 1043 779 l 222 779 l 222 935 l -274 935 l -274 771 l 563 771 l 563 607 l 1058 607 l 1058 764 z m 493 182 l 493 678 l 801 678 l 801 182 z "},"ㅎ":{"ha":-356,"x_min":0,"x_max":0,"o":"l 632 0 l 632 904 l 494 904 l 494 549 l 1308 549 b 1308 NaN 1332 549 1308 NaN m 1308 NaN b 1217 NaN 1446 NaN 1217 NaN b 982 NaN 1217 NaN 1067 NaN b 1440 NaN 1211 NaN 1440 NaN b 1674 NaN 1440 NaN 1589 NaN z m 1674 NaN b 1939 NaN 1851 NaN 1939 NaN b 1674 NaN 1939 NaN 1851 NaN b 1408 NaN 1496 NaN 1408 NaN b 1674 NaN 1408 NaN 1496 NaN z "},"ㅏ":{"ha":0,"x_min":0,"x_max":0,"o":"l 0 596 l -1106 596 l -1106 1224 l -887 1224 b -850 1269 -861 1224 -850 1244 b -887 1314 -850 1293 -861 1314 "},"ㅐ":{"ha":0,"x_min":0,"x_max":0,"o":"l 0 789 l 1075 789 l 1075 393 l 853 393 l 853 615 l 228 615 "},"ㅑ":{"ha":0,"x_min":0,"x_max":0,"o":"l 603 0 l 603 1075 l 1072 1075 l 1072 1289 l 858 1289 l 858 1519 l 1072 1519 b 1118 NaN 1097 1519 1118 1494 "},"ㅒ":{"ha":0,"x_min":0,"x_max":0,"o":"l 0 788 l 1075 788 l 1075 564 l 1304 564 b 1293 643 1304 592 1281 615 l 1293 1056 l 1517 1056 l 1517 585 l 1247 585 l 1247 808 l 1028 808 "},"ㅓ":{"ha":0,"x_min":0,"x_max":0,"o":""},"ㅔ":{"ha":-25,"x_min":0,"x_max":0,"o":"l 0 879 l 1075 879 l 1075 -229 l 1075 -257 l 1099 -257 l 1099 851 l 731 851 l 731 643 "},"ㅕ":{"ha":0,"x_min":0,"x_max":0,"o":"l 0 753 l -229 753 l -229 544 b -264 501 -254 544 -264 525 b -229 457 -264 476 -254 457 "},"ㅖ":{"ha":878,"x_min":0,"x_max":0,"o":""},"ㅗ":{"ha":0,"x_min":0,"x_max":0,"o":""},"ㅘ":{"ha":0,"x_min":0,"x_max":0,"o":"l 0 997 l -1106 997 l -1106 968 l -1082 968 l -1082 1554 l -925 1554 b -887 1600 -899 1554 -887 1575 b -925 1644 -887 1624 -899 1644 l -925 1488 l -496 1488 l -496 933 l -990 933 l -990 629 b -1296 628 -1094 628 -1194 628 b -1051 911 -1315 651 -1058 890 b -824 585 -807 796 -817 689 b NaN NaN -826 NaN NaN NaN "},"ㅙ":{"ha":0,"x_min":0,"x_max":0,"o":"l 0 1114 l 1075 1114 l 1075 676 l 906 676 l 906 1100 l -131 1100 l -131 1625 l 39 1625 l 39 1042 l 39 1014 l 63 1014 l 63 2122 l -661 2122 l -661 1628 l -942 1628 b -1189 1625 -1028 1625 -1111 1625 "},"ㅚ":{"ha":0,"x_min":0,"x_max":0,"o":"b -893 -733 -579 -494 -882 -618 b NaN NaN -900 -844 -904 NaN "},"ㅛ":{"ha":0,"x_min":0,"x_max":0,"o":"l 0 435 l 710 435 l 710 -15 l 413 -15 l 115 -15 l 115 435 "},"ㅜ":{"ha":0,"x_min":0,"x_max":0,"o":"l 1175 0 l 1175 500 l 707 500 "},"ㅝ":{"ha":0,"x_min":0,"x_max":0,"o":"l 0 1058 l -807 1058 l -807 803 l -807 1058 l -1019 1058 l -1019 461 l -1444 461 l -1444 889 "},"ㅞ":{"ha":-760,"x_min":0,"x_max":0,"o":"m -211 -572 b -211 -824 -407 -572 -211 -589 b -126 -1215 -211 -1029 -212 -1215 b -40 -1125 -40 -1215 -40 -1212 l -40 -1531 l 368 -1531 b 640 -1517 458 -1528 549 -1524 b NaN NaN 663 -1515 674 -1517 z "},"ㅟ":{"ha":0,"x_min":0,"x_max":0,"o":"b -810 222 -179 0 -810 115 l -810 -169 l -415 -169 "},"ㅠ":{"ha":24,"x_min":0,"x_max":0,"o":"l 1176 0 l 1176 500 l 714 500 "},"ㅡ":{"ha":0,"x_min":0,"x_max":0,"o":""},"ㅢ":{"ha":-179,"x_min":0,"x_max":0,"o":""},"ㅣ":{"ha":0,"x_min":0,"x_max":0,"o":"l 0 629 l -1106 629 "},"ㅥ":{"ha":-539,"x_min":0,"x_max":0,"o":"m 256 786 b 206 743 229 786 206 774 z m 668 743 b 700 693 925 743 700 717 b NaN NaN 700 681 669 NaN "},"ㅦ":{"ha":-539,"x_min":0,"x_max":0,"o":"m 256 786 b 206 743 229 786 206 774 z m 965 733 z "},"ㅧ":{"ha":838,"x_min":0,"x_max":0,"o":"m -644 -4 b 89 -40 146 -4 119 -28 l -450 -40 l -450 211 "},"ㅨ":{"ha":851,"x_min":0,"x_max":0,"o":"m -628 -33 b -678 -76 -654 -33 -678 -46 l -678 -612 l -407 -612 l -407 -851 l 108 -851 b 57 -808 108 -821 85 -808 "},"ㅩ":{"ha":0,"x_min":0,"x_max":0,"o":"m 1189 182 b 1072 342 1147 233 1107 289 b 956 182 1038 289 997 233 b 946 165 951 176 949 171 l 946 693 b 851 786 946 764 924 786 l 851 596 l 1017 596 l 1017 71 b 1063 29 1017 42 1038 29 b 1110 64 1086 29 1106 39 b 1119 47 1111 58 1115 53 z m 335 64 l 106 64 l 106 224 l 210 224 b 306 318 285 224 306 244 l 494 318 l 494 126 b 461 83 471 126 461 106 b 494 40 461 61 471 40 b 146 106 494 210 336 106 l 397 106 b 431 149 419 106 431 126 b 397 192 431 171 419 192 z "},"ㅪ":{"ha":0,"x_min":0,"x_max":0,"o":"m 1033 781 l 774 781 l 774 299 l 1050 299 l 1050 54 l 1492 54 l 1492 282 b 1492 NaN 1517 282 1492 NaN z m 958 NaN l 681 NaN l 681 NaN l 526 NaN l 526 NaN l 335 NaN b 431 NaN 335 NaN 358 NaN b 529 NaN 742 NaN 456 NaN "},"ㅫ":{"ha":-190,"x_min":0,"x_max":0,"o":"m 1189 182 b 1072 342 1147 233 1107 289 b 963 190 1039 292 1001 239 l 963 754 b 918 793 963 782 942 793 b 875 754 894 793 875 782 l 875 539 l 729 539 l 729 754 b 685 793 729 782 710 793 b 642 754 663 793 642 782 l 642 204 b 738 111 642 131 664 111 l 867 111 b 947 135 907 111 932 117 b 956 122 949 131 951 126 z m 129 136 l -54 136 l -54 299 l 39 299 b 132 392 111 299 132 318 l 132 581 l -46 581 l -46 738 l -207 738 l -225 738 l -225 644 b -319 551 -297 644 -319 624 z m -17 576 l -17 782 l -110 782 l -110 1015 l 36 1015 z "},"ㅬ":{"ha":865,"x_min":0,"x_max":0,"o":"m -396 -40 l -657 -40 b -647 -232 -421 -40 -575 -211 l -839 -232 l -839 64 l -1110 64 l -1110 225 l -939 225 b -843 318 -864 225 -843 244 "},"ㅭ":{"ha":414,"x_min":0,"x_max":0,"o":"m 1076 782 l 663 782 z m 63 779 l 63 508 l 310 508 l 310 351 l 128 351 l 128 161 b 224 68 128 89 151 68 l 540 68 l 540 -225 l 704 -225 b NaN NaN 704 -206 NaN NaN z m NaN NaN b NaN NaN NaN NaN NaN NaN b NaN NaN NaN NaN NaN NaN b NaN NaN NaN NaN NaN NaN b NaN NaN NaN NaN NaN NaN b NaN NaN NaN NaN NaN NaN z m NaN NaN b NaN NaN NaN NaN NaN NaN b NaN NaN NaN NaN NaN NaN b NaN NaN NaN NaN NaN NaN b NaN NaN NaN NaN NaN NaN z "},"ㅮ":{"ha":719,"x_min":0,"x_max":0,"o":"m -224 -10 z m 261 -96 l 261 696 l -286 696 l -286 904 l 261 904 l 261 690 l 49 690 l 49 904 l -158 904 l -158 419 l 49 419 l 49 579 l -400 579 l -400 561 l -560 561 l -560 1010 b NaN NaN -560 1029 NaN NaN z m NaN NaN "},"ㅯ":{"ha":861,"x_min":0,"x_max":0,"o":"m -399 -8 z m -594 -93 l -594 697 l -815 697 l -815 213 l -594 213 l -594 697 l -421 697 l -421 249 z "},"ㅰ":{"ha":863,"x_min":0,"x_max":0,"o":"m -381 -37 z m -574 -124 "},"ㅱ":{"ha":-444,"x_min":0,"x_max":0,"o":"m 853 939 z m 1167 854 "},"ㅲ":{"ha":549,"x_min":0,"x_max":0,"o":"l 0 228 l 792 228 l 792 -321 b 888 -414 792 -394 813 -414 b 1192 NaN 1118 -414 1192 NaN m 1946 NaN b 1492 NaN 1726 NaN 1492 NaN b NaN NaN 1492 NaN 1482 NaN z m NaN NaN "},"ㅳ":{"ha":238,"x_min":0,"x_max":0,"o":"m 785 -11 l 1576 -11 l 1576 -558 l 1786 -558 l 1786 -11 l 1567 -11 l 1567 -225 l 1786 -225 l 1786 -468 l 1304 -468 l 1304 -211 l 1076 -211 l 1076 229 l 1290 229 b 1290 NaN 1315 229 1290 NaN z m 553 NaN "},"ㅴ":{"ha":0,"x_min":0,"x_max":0,"o":"m 776 342 b 667 190 743 292 706 239 l 667 751 b 622 789 667 778 646 789 b 579 751 599 789 579 778 l 579 532 l 418 532 l 418 751 b 374 789 418 778 399 789 b 331 751 351 789 331 778 l 475 751 b 556 775 515 751 540 758 b 564 763 557 771 560 767 b 447 922 522 814 482 869 z m 725 1363 l 725 1151 l 911 1151 l 911 629 l 911 600 l 932 600 l 932 588 l 957 588 l 957 614 l 978 614 l 978 1157 b 883 1250 978 1228 956 1250 z m 199 689 l 199 581 l 425 581 l 425 742 z "},"ㅵ":{"ha":0,"x_min":0,"x_max":0,"o":"m 1119 201 l 981 201 l 981 642 l 1106 642 b 1106 NaN 1131 642 1106 NaN l 1106 NaN l 624 NaN b 625 NaN 624 NaN 624 NaN b 622 NaN 625 NaN 624 NaN b 510 NaN 583 NaN 544 NaN b 399 NaN 475 NaN 436 NaN b 400 NaN 400 NaN 400 NaN l 400 NaN b 356 NaN 400 NaN 381 NaN b 313 NaN 333 NaN 313 NaN l 313 NaN l 169 NaN l 169 NaN b 125 NaN 169 NaN 150 NaN b 82 NaN 101 NaN 82 NaN l 208 NaN b 292 NaN 253 NaN 278 NaN b 301 NaN 293 NaN 296 NaN b 363 NaN 318 NaN 346 NaN b 469 NaN 397 NaN 435 NaN b 483 NaN 499 NaN 513 NaN b 365 NaN 460 NaN 417 NaN b 244 NaN 313 NaN 265 NaN b 274 NaN 247 NaN 265 NaN b NaN NaN 281 NaN 289 NaN b NaN NaN NaN NaN NaN NaN l NaN NaN z m NaN NaN b NaN NaN NaN NaN NaN NaN l NaN NaN l NaN NaN l NaN NaN z "},"ㅶ":{"ha":158,"x_min":0,"x_max":0,"o":"b 1339 432 0 210 792 432 b 1292 393 1315 432 1292 421 b NaN 393 1292 179 1067 393 m NaN 383 l NaN 383 l NaN 383 l NaN 225 b NaN 15 NaN 140 NaN 85 b NaN -135 NaN -36 NaN -81 b NaN -196 NaN -156 NaN -178 b NaN -197 NaN -212 NaN -218 b NaN -57 NaN -149 NaN -103 b NaN 72 NaN 6 NaN 28 b NaN -57 NaN 28 NaN 6 b NaN -197 NaN -103 NaN -150 b NaN -196 NaN -217 NaN -212 b NaN -135 NaN -178 NaN -156 b NaN 15 NaN -79 NaN -36 b NaN 225 NaN 85 NaN 140 z m NaN -333 l NaN -183 l NaN -183 l NaN 42 l NaN 42 b NaN 17 NaN 24 NaN 17 "},"ㅷ":{"ha":21,"x_min":0,"x_max":0,"o":"b 1001 -310 0 236 792 -310 b 1336 -312 1547 -310 1336 -524 m 2111 -324 l 2111 -557 l 1628 -557 l 1628 -310 l 1400 -310 l 1400 -117 l 1624 -117 z m 896 -674 "},"ㅸ":{"ha":0,"x_min":0,"x_max":0,"o":"m 358 963 b 310 921 333 963 310 949 b 775 921 310 539 761 921 b 697 885 750 921 725 899 l 697 749 l 246 749 l 246 885 b 199 926 246 913 224 926 z m 246 519 "},"ㅹ":{"ha":146,"x_min":0,"x_max":0,"o":"m 313 939 b 268 900 289 939 268 928 l 268 526 l 403 526 l 403 900 b 358 939 403 928 383 939 b 315 900 335 939 315 928 l 315 765 l 164 765 l 164 900 b 121 939 164 928 144 939 z m 519 939 b 476 900 497 939 476 928 l 476 526 l 611 526 l 611 900 b 565 939 611 928 590 939 b 524 900 543 939 524 928 l 524 765 l 372 765 l 372 900 b 328 939 372 928 353 939 z m -28 539 z m 372 539 "},"ㅺ":{"ha":458,"x_min":0,"x_max":0,"o":"m 526 -12 l 1317 -12 l 1317 -312 l 1586 -312 b 1613 -342 1604 -312 1613 -324 l 1613 -865 "},"ㅻ":{"ha":415,"x_min":0,"x_max":0,"o":"m 351 0 "},"ㅼ":{"ha":415,"x_min":0,"x_max":0,"o":"m 650 -12 l 1440 -12 l 1440 -262 l 961 -262 l 961 1 b 961 NaN 986 1 961 NaN l 726 NaN l 726 NaN l 947 NaN b 947 NaN 972 NaN 947 NaN z "},"ㅽ":{"ha":-226,"x_min":0,"x_max":0,"o":"b 993 200 0 751 792 200 b 1494 165 1544 200 1521 176 m 1878 -408 l 1878 -614 l 2104 -614 l 2104 -950 l 2103 -950 l 2103 -719 l 2308 -719 l 2308 -950 b 2283 -975 2308 -968 2301 -975 "},"ㅾ":{"ha":0,"x_min":0,"x_max":0,"o":"l 0 414 l 790 414 l 790 224 b 718 3 790 118 769 68 b 586 -151 676 -49 629 -103 b 586 -212 569 -171 569 -193 b 647 -215 603 -231 629 -235 b 776 -65 683 -176 742 -111 b 807 44 817 -14 835 3 b 654 165 756 78 711 128 b NaN NaN 613 NaN NaN NaN b NaN NaN NaN NaN NaN NaN b NaN NaN NaN NaN NaN NaN b NaN NaN NaN NaN NaN NaN b NaN NaN NaN NaN NaN NaN b NaN NaN NaN NaN NaN NaN b NaN NaN NaN NaN NaN NaN b NaN NaN NaN NaN NaN NaN b NaN NaN NaN NaN NaN NaN b NaN NaN NaN NaN NaN NaN b NaN NaN NaN NaN NaN NaN l NaN NaN l NaN NaN l NaN NaN l NaN NaN l NaN NaN b NaN NaN NaN NaN NaN NaN b NaN NaN NaN NaN NaN NaN b NaN NaN NaN NaN NaN NaN b NaN NaN NaN NaN NaN NaN b NaN NaN NaN NaN NaN NaN b NaN NaN NaN NaN NaN NaN "},"ㅿ":{"ha":0,"x_min":0,"x_max":0,"o":"m 631 876 b 582 836 610 876 590 861 l 340 206 b 343 143 331 176 333 156 b 396 122 356 128 372 122 l 865 122 b 918 143 889 122 906 128 b 921 206 929 156 931 176 l 679 836 b 631 876 671 861 651 876 z m 631 714 b 644 696 639 714 642 706 l 813 238 b 811 214 817 226 817 219 b 790 207 807 208 800 207 l 472 207 b 450 214 461 207 456 208 b 449 238 446 219 446 226 l 617 696 b 631 714 619 706 622 714 z "},"ㆀ":{"ha":-161,"x_min":0,"x_max":0,"o":"m 374 803 z m 886 803 z m 374 715 b 172 269 306 715 172 492 b -122 499 172 338 38 499 b -324 53 -190 499 -324 275 b -356 281 -324 121 -458 281 b -429 -46 -324 281 -429 117 b -639 -181 -429 -78 -536 -181 b -564 146 -671 -181 -564 -18 b NaN 281 -564 178 -458 281 z m NaN 281 b NaN 11 NaN 281 NaN 175 b NaN -258 NaN -151 NaN -258 b NaN 11 NaN -258 NaN -151 b NaN 281 NaN 175 NaN 281 z "},"ㆁ":{"ha":211,"x_min":0,"x_max":0,"o":"l 0 631 l 947 631 l 947 419 b 649 86 756 403 649 276 b 997 -250 649 -122 778 -250 b 1347 86 1217 -250 1347 -122 b 1049 419 1347 278 1239 403 m 1049 83 b 1296 -167 1215 83 1296 -26 b 1049 -415 1296 -306 1215 -415 b 801 -167 883 -415 801 -310 b 1049 83 801 -22 883 83 z "},"ㆂ":{"ha":0,"x_min":0,"x_max":0,"o":"l 0 374 l 813 374 l 813 254 b 633 -18 688 233 633 121 b 863 -297 633 -174 703 -297 b 1090 -18 1022 -297 1090 -174 b 913 254 1090 121 1036 233 l 913 374 l 1381 374 l 1381 351 l 1190 351 b 1118 131 1190 246 1169 196 b 986 -24 1076 79 1029 25 b 986 -85 969 -43 969 -65 b 1047 -87 1003 -103 1029 -107 b 1176 63 1083 -49 1142 17 b 1240 117 1219 117 1233 146 b 1332 -12 1253 88 1297 33 b 1443 -136 1390 -78 1425 -117 b 1504 -94 1469 -132 1486 -114 b 1443 -4 1504 -72 1488 -53 b NaN NaN 1396 50 1356 101 b NaN NaN NaN NaN NaN NaN "},"ㆃ":{"ha":119,"x_min":0,"x_max":0,"o":"m 872 819 b 825 781 851 819 832 806 l 649 194 b 651 135 639 168 642 147 b 703 115 663 121 679 115 l 1040 115 b 1092 135 1064 115 1081 121 b 1096 194 1103 147 1104 168 l 918 781 b 872 819 911 806 892 819 l 872 340 l 865 340 l 865 221 b 686 -51 740 200 686 88 b 914 -331 686 -207 754 -331 b 1143 -51 1074 -331 1143 -207 b 965 221 1143 88 1088 200 z m 1444 65 b 1458 46 1451 65 1456 57 l 1572 -362 b 1571 -386 1575 -374 1575 -381 b 1550 -393 1567 -392 1560 -393 l 1339 -393 b 1317 -386 1328 -393 1321 -392 b 1315 -362 1313 -381 1313 -374 l 1431 46 b 1444 65 1433 57 1436 65 "},"ㆄ":{"ha":-110,"x_min":0,"x_max":0,"o":"m 931 947 l 333 947 l 333 1044 l 6 1044 l 6 936 b 643 NaN 625 936 643 913 z m 236 NaN l 236 NaN l 335 NaN l 335 NaN l 550 NaN l 550 NaN "},"ㆅ":{"ha":0,"x_min":0,"x_max":0,"o":"b 1235 -260 383 0 1235 -110 b NaN NaN 1235 -278 1257 NaN l NaN NaN b NaN NaN NaN NaN NaN NaN b NaN NaN NaN NaN NaN NaN l NaN NaN l NaN NaN b NaN NaN NaN NaN NaN NaN m NaN NaN b NaN NaN NaN NaN NaN NaN l NaN NaN l NaN NaN l NaN NaN l NaN NaN l NaN NaN l NaN NaN l NaN NaN l NaN NaN l NaN NaN b NaN NaN NaN NaN NaN NaN z m NaN NaN b NaN NaN NaN NaN NaN NaN b NaN NaN NaN NaN NaN NaN b NaN NaN NaN NaN NaN NaN b NaN NaN NaN NaN NaN NaN z m NaN NaN b NaN NaN NaN NaN NaN NaN b NaN NaN NaN NaN NaN NaN b NaN NaN NaN NaN NaN NaN b NaN NaN NaN NaN NaN NaN z m NaN NaN b NaN NaN NaN NaN NaN NaN b NaN NaN NaN NaN NaN NaN b NaN NaN NaN NaN NaN NaN b NaN NaN NaN NaN NaN NaN z m NaN NaN b NaN NaN NaN NaN NaN NaN b NaN NaN NaN NaN NaN NaN b NaN NaN NaN NaN NaN NaN b NaN NaN NaN NaN NaN NaN z "},"ㆆ":{"ha":-647,"x_min":0,"x_max":0,"o":"m 956 907 z m 633 674 b 1069 431 1281 674 1069 558 b 751 356 1069 240 879 356 b 1174 599 963 356 1174 471 b 1492 463 1174 789 1364 674 z m 1492 378 b 1721 144 1644 378 1721 281 b 1492 -89 1721 8 1644 -89 b 1261 144 1339 -89 1261 8 b 1492 378 1261 281 1339 378 z "},"ㆇ":{"ha":0,"x_min":0,"x_max":0,"o":"l 0 997 l -1106 997 l -1135 997 l -1135 1021 l -665 1021 l -665 1179 l -824 1179 l -824 1410 l -665 1410 b -619 NaN -640 1410 -619 1385 l -619 NaN l -392 NaN l -392 NaN l -886 NaN l -886 NaN l -1044 NaN b -800 NaN -1064 NaN -807 NaN b -567 NaN -556 NaN -561 NaN b NaN NaN -569 NaN NaN NaN l NaN NaN l NaN NaN l NaN NaN l NaN NaN l NaN NaN l NaN NaN b NaN NaN NaN NaN NaN NaN "},"ㆈ":{"ha":0,"x_min":0,"x_max":0,"o":"m 1114 1075 l 1114 1050 l 1092 1050 l 1092 807 l 921 807 l 921 1036 l -115 1036 l -115 1449 l 56 1449 l 56 978 l 1164 978 l 1164 760 l 1335 760 l 1335 540 l 1335 -272 l 1431 -272 l 1431 -556 l 1318 -556 b 1206 -564 1281 -560 1242 -561 b 1154 -303 1206 -290 1183 -303 l 1154 -581 l 976 -585 "},"ㆉ":{"ha":0,"x_min":0,"x_max":0,"o":"l 0 -724 l -494 -724 l -494 -1029 l -674 -1029 b -742 -1026 -699 -1040 -719 -1024 b -936 -1042 -810 -1032 -874 -1037 l -936 -749 b NaN NaN -936 -719 -965 NaN l NaN NaN b NaN NaN NaN NaN NaN NaN "},"ㆊ":{"ha":81,"x_min":0,"x_max":0,"o":"l 1058 0 l 1058 -733 l 831 -733 l 831 -506 l 718 -506 l 718 -733 b 854 -1249 946 -733 854 -1303 b 907 -1194 854 -1196 854 -1194 l 907 -1644 l 1357 -1644 b 1529 -1637 1414 -1643 1472 -1640 l 1529 -2094 b NaN NaN 1529 -2124 1558 NaN l NaN NaN "},"ㆋ":{"ha":168,"x_min":0,"x_max":0,"o":"l 0 -704 l -168 -704 l 0 -704 l 0 -815 l -168 -815 m -242 -1360 b -679 -1567 -258 -1360 -493 -1565 l -565 -1567 l -565 -1997 l -565 -2026 l -542 -2026 l -542 -2039 l -518 -2039 l -518 -2012 l -496 -2012 l -496 -1581 b -351 -1576 -449 -1581 -400 -1578 l -351 -2012 l -351 -2042 l -328 -2042 l -328 -2054 l -304 -2054 l -304 -1615 b -124 -1604 -244 -1612 -183 -1610 b -92 -1558 -101 -1601 -90 -1582 b -129 -1519 -93 -1533 -108 -1518 z "},"ㆌ":{"ha":65,"x_min":0,"x_max":0,"o":"b -782 110 -179 0 -782 56 b NaN 164 -782 110 -781 164 l NaN -253 l NaN -253 b NaN -246 NaN -251 NaN -249 l NaN -671 b NaN NaN NaN -700 NaN NaN l NaN NaN "},"ㆍ":{"ha":0,"x_min":0,"x_max":0,"o":"m 632 567 b 547 483 585 567 547 531 b 632 400 547 436 585 400 b 715 483 678 400 715 436 b 632 567 715 531 678 567 z "},"ㆎ":{"ha":-29,"x_min":0,"x_max":0,"o":"l 0 719 l -1106 719 m -1432 231 b -1421 1363 -1408 231 -1421 257 b -1506 1278 -1421 1315 -1458 1278 b -1514 1288 -1551 1278 -1514 1240 b -1431 1371 -1514 1333 -1476 1371 b -1421 1363 -1383 1371 -1421 1408 z "},"ⅰ":{"ha":0,"x_min":0,"x_max":0,"o":"b -675 1281 0 632 -649 1281 "},"ⅱ":{"ha":-353,"x_min":0,"x_max":0,"o":"m 456 996 z m 808 996 z m 1161 996 "},"ⅲ":{"ha":-633,"x_min":0,"x_max":0,"o":"m 315 996 z m 632 996 z m 949 996 z m 1265 996 l 1265 971 l 617 971 z m 933 971 "},"ⅳ":{"ha":182,"x_min":0,"x_max":0,"o":"m 361 996 z m 179 999 "},"ⅴ":{"ha":0,"x_min":0,"x_max":0,"o":"l 347 243 l 967 256 b 1026 NaN 997 239 1017 215 b 964 NaN 1003 NaN 975 NaN l 744 NaN l 521 NaN b 457 NaN 511 NaN 482 NaN "},"ⅵ":{"ha":0,"x_min":0,"x_max":0,"o":"m 904 996 l 904 350 l 1550 350 l 1550 353 l 901 353 "},"ⅶ":{"ha":-43,"x_min":0,"x_max":0,"o":"m 797 996 z m 1050 996 b 1050 1007 1019 996 1050 964 b 1039 1018 1050 1049 1081 1018 b 1039 1028 1008 1018 1039 986 b 1101 997 1039 1071 1069 1040 z m 213 731 b 181 675 188 725 172 704 l 374 49 b 440 1 385 14 411 1 b 508 50 469 1 497 14 l 696 675 b 665 731 704 704 690 725 b 607 701 639 738 615 732 l 442 121 l 271 701 b 213 731 263 732 239 738 l 213 1367 l 215 1367 l 215 718 l 215 689 l 238 689 l 238 676 l 264 676 l 264 703 l 286 703 l 286 1351 z m 539 1351 l 539 1381 l 517 1381 l 517 1356 l -132 1356 l -132 1326 l -108 1326 l -108 1314 l -83 1314 l -83 1342 l -61 1342 l -61 1990 b -111 2032 -61 2019 -83 2032 z "},"ⅷ":{"ha":0,"x_min":0,"x_max":0,"o":"m 699 996 z m 907 996 z m 1115 996 z m 124 731 b 90 674 99 724 82 703 l 265 47 b 329 0 275 13 300 0 b 396 49 358 0 386 13 l 565 674 b 533 731 574 703 558 724 b 475 700 507 736 482 729 l 332 129 l 182 700 b 124 731 174 729 150 736 z m 699 732 z m 907 732 z m 1115 732 z "},"ⅸ":{"ha":0,"x_min":0,"x_max":0,"o":"m 365 996 z m 1022 724 b 956 710 999 738 971 735 l 799 440 l 640 710 b 574 724 625 735 596 738 b 558 661 551 708 543 685 l 733 372 l 542 71 b 554 8 525 47 532 22 b 618 22 575 -4 601 -3 l 794 310 l 971 22 b 1036 8 988 -3 1015 -4 b 1050 71 1057 22 1065 47 l 860 375 l 1036 661 b 1022 724 1051 685 1044 708 z m 365 732 "},"ⅹ":{"ha":0,"x_min":0,"x_max":0,"o":""},"Ⅰ":{"ha":0,"x_min":0,"x_max":0,"o":"m 631 999 "},"Ⅱ":{"ha":464,"x_min":0,"x_max":0,"o":""},"Ⅲ":{"ha":306,"x_min":0,"x_max":0,"o":"m 324 0 "},"Ⅳ":{"ha":0,"x_min":0,"x_max":0,"o":"m 513 996 b 478 938 486 990 468 969 l 740 44 b 804 0 750 11 776 0 b 867 44 832 0 857 11 l 1125 939 b 1092 996 1133 969 1118 990 b 1032 965 1061 1003 1040 996 l 806 140 l 575 965 b 513 996 567 996 543 1003 z m 308 999 "},"Ⅴ":{"ha":0,"x_min":0,"x_max":0,"o":"m 1004 994 b 940 968 975 1004 951 997 l 633 131 l 328 969 b 261 994 317 999 289 1004 b 232 933 235 985 219 965 l 568 44 b 632 0 581 11 603 0 b 694 44 658 0 681 11 l 1032 935 b 1004 994 1044 965 1031 986 z "},"Ⅵ":{"ha":0,"x_min":0,"x_max":0,"o":"m 175 996 b 139 938 147 990 131 969 l 403 44 b 467 0 413 11 438 0 b 529 44 493 0 518 11 l 786 939 b 753 996 796 969 781 990 b 694 965 724 1003 703 996 l 468 140 l 236 965 b 175 996 228 996 204 1003 "},"Ⅶ":{"ha":0,"x_min":0,"x_max":0,"o":"m 104 996 b 71 939 78 990 63 969 l 310 44 b 374 0 319 11 344 0 b 436 44 400 0 425 11 l 669 939 b 636 996 678 969 664 990 b 579 965 607 1003 586 994 l 375 144 l 165 965 b 104 996 158 996 135 1003 z m 817 999 z m 1063 999 z "},"Ⅷ":{"ha":0,"x_min":0,"x_max":0,"o":"m 114 997 b 75 947 88 993 69 978 l 253 44 b 317 0 258 10 288 0 b 379 44 343 0 372 11 l 551 947 b 515 997 558 978 542 993 b 463 963 488 1001 468 993 l 318 144 l 168 963 b 114 997 163 993 142 1001 z m 672 999 z m 888 999 l 888 972 l 869 972 l 869 57 l 869 28 l 888 28 l 888 15 l 914 15 l 914 44 l 932 44 l 932 960 b 885 1001 932 989 914 1001 z m 1104 1001 z "},"Ⅸ":{"ha":0,"x_min":0,"x_max":0,"o":"m 1090 992 b 1024 974 1065 1006 1038 999 l 818 582 l 603 974 b 535 992 589 999 560 1006 b 515 928 508 976 501 954 l 750 515 l 496 68 b 511 7 482 44 488 21 b 576 24 538 -7 563 0 l 811 446 l 1042 24 b 1108 7 1056 0 1082 -7 b 1125 68 1132 21 1139 44 l 876 515 l 1106 928 b 1090 992 1121 954 1117 976 "},"Ⅹ":{"ha":0,"x_min":0,"x_max":0,"o":"m 964 990 b 897 974 940 1006 914 1000 l 640 582 "},"Α":{"ha":0,"x_min":0,"x_max":0,"o":""},"Β":{"ha":0,"x_min":0,"x_max":0,"o":""},"Γ":{"ha":-83,"x_min":0,"x_max":0,"o":"m 696 993 l 696 518 l 1558 518 l 1558 985 "},"Δ":{"ha":61,"x_min":0,"x_max":0,"o":"m 454 1001 b 390 957 426 1001 404 990 l 61 89 b 72 18 50 58 50 35 b 167 6 92 3 135 6 l 738 6 b 832 18 768 6 813 3 b 843 89 853 35 854 58 l 517 957 b 454 1001 504 990 482 1001 z m 169 94 l 453 879 l 733 94 z "},"Ε":{"ha":0,"x_min":0,"x_max":0,"o":""},"Ζ":{"ha":0,"x_min":0,"x_max":0,"o":""},"Η":{"ha":0,"x_min":0,"x_max":0,"o":""},"Θ":{"ha":135,"x_min":0,"x_max":0,"o":"m 208 -369 l 697 -369 l 697 -778 l 1106 -778 z "},"Ι":{"ha":-486,"x_min":0,"x_max":0,"o":""},"Κ":{"ha":0,"x_min":0,"x_max":0,"o":""},"Λ":{"ha":54,"x_min":0,"x_max":0,"o":"m 450 999 b 388 954 422 999 400 988 l 51 64 b 81 4 40 33 54 13 b 144 29 108 -6 133 -1 l 379 671 b 450 878 408 749 429 811 b 519 671 469 813 490 750 l 750 31 b 817 4 761 0 789 -6 b 846 65 843 13 858 35 l 514 954 b 450 999 500 988 478 999 z "},"Μ":{"ha":0,"x_min":0,"x_max":0,"o":""},"Ν":{"ha":51,"x_min":0,"x_max":0,"o":"l 0 129 l 796 129 l 796 1128 l -33 1128 b -6 1146 -46 1128 -6 1108 b 711 724 -6 1131 21 724 b 636 636 660 724 636 701 l 636 -231 l 636 -258 l 660 -258 l 660 -271 l 683 -271 l 683 557 b 729 454 694 521 713 483 l 1138 -236 b 1228 -307 1172 -297 1190 -307 "},"Ξ":{"ha":-14,"x_min":0,"x_max":0,"o":"m 693 993 z m 656 557 z m 700 94 z "},"Ο":{"ha":135,"x_min":0,"x_max":0,"o":""},"Π":{"ha":101,"x_min":0,"x_max":0,"o":"m 722 993 b 722 907 722 492 1586 978 z "},"Ρ":{"ha":0,"x_min":0,"x_max":0,"o":""},"Σ":{"ha":-31,"x_min":0,"x_max":0,"o":"m 700 993 l 167 993 b 93 939 113 993 93 976 b 131 864 93 919 97 904 l 431 500 l 131 135 b 93 60 97 94 93 79 b 167 6 93 22 113 6 l 703 6 b 750 NaN 729 6 750 -21 l 265 NaN l 521 NaN l 828 NaN "},"Τ":{"ha":-31,"x_min":0,"x_max":0,"o":"m 749 993 l 64 993 l 64 1285 l -799 1285 l -799 2147 l -507 2147 "},"Υ":{"ha":0,"x_min":0,"x_max":0,"o":""},"Φ":{"ha":0,"x_min":0,"x_max":0,"o":"l 0 201 l 521 201 l 521 1232 l 432 1232 b 46 876 190 1219 46 1097 l 46 814 b 432 458 46 593 190 472 l 432 374 b 479 332 432 343 454 332 b 526 374 504 332 526 343 l 526 458 b 914 814 767 472 914 593 l 914 876 b 526 1232 914 1099 768 1219 l 526 1321 b 479 1363 526 1350 504 1363 m 432 1142 l 432 549 b 147 821 250 561 147 649 l 147 871 b 432 1142 147 1042 250 1131 z m 526 549 l 526 1142 b 813 871 708 1131 813 1043 l 813 821 b 526 549 813 647 708 561 z "},"Χ":{"ha":42,"x_min":0,"x_max":0,"o":"m 775 990 b 708 974 751 1006 725 1000 l 451 582 "},"Ψ":{"ha":0,"x_min":0,"x_max":0,"o":"l 0 140 l 139 140 l 139 1111 l -87 1111 b 265 667 -87 822 32 683 l 265 450 l 482 450 b 836 894 717 467 836 606 b 789 1092 836 1121 810 1092 b 747 NaN 776 1092 747 NaN l 747 NaN b 493 NaN 747 NaN 667 NaN l 493 NaN l 493 NaN b 240 NaN 319 NaN 240 NaN l 240 NaN b 190 NaN 240 NaN 219 NaN "},"Ω":{"ha":178,"x_min":0,"x_max":0,"o":"m 511 1008 b 125 538 253 1008 125 844 l 125 472 b 289 92 125 268 186 147 l 67 92 l 365 92 b 417 139 403 92 417 114 b 383 197 417 167 407 183 l 383 85 l 449 85 l 449 42 l 571 42 l 571 88 b 854 476 571 347 657 476 b 1136 88 1050 476 1136 347 l 1136 42 b 981 -328 1136 -140 1093 -262 b 947 -386 958 -342 947 -358 b 999 -433 947 -411 961 -433 l 1297 -433 l 1321 -433 l 1321 -421 l 1340 -421 l 1340 -396 l 1363 -396 l 1363 -408 l 1140 -408 b 1304 -28 1243 -353 1304 -232 l 1304 38 b 919 508 1304 344 1176 508 z "},"α":{"ha":-21,"x_min":0,"x_max":0,"o":"m 382 742 b 468 904 382 829 431 904 b NaN 876 468 906 390 876 l NaN 826 l NaN 826 b NaN 928 NaN 883 NaN 928 "},"β":{"ha":-19,"x_min":0,"x_max":0,"o":"m 399 1050 b 121 772 250 1050 121 968 l 121 -228 l 121 -257 l 143 -257 l 143 60 b 385 -49 181 3 263 -49 b 664 225 543 -49 664 56 l 664 274 b 435 514 664 428 568 501 b 592 751 533 546 592 615 l 592 781 b 322 1021 592 907 508 1021 z m 324 935 b 492 769 432 935 492 865 l 492 746 b 321 551 492 640 457 551 b 564 356 472 551 564 507 l 564 314 b 374 126 564 233 517 126 b 143 299 217 126 143 218 l 143 813 b 324 1021 143 950 213 1021 z "},"γ":{"ha":-140,"x_min":0,"x_max":0,"o":"m 72 733 b 42 676 47 726 31 707 l 301 13 l 301 -228 l 544 -228 l 803 433 b 774 490 815 463 799 483 b 714 464 747 499 724 490 l 496 -126 l 274 464 b 214 490 264 492 242 499 z "},"δ":{"ha":-39,"x_min":0,"x_max":0,"o":"m 424 1050 b 203 904 271 1050 203 981 l 203 889 b 374 703 203 822 260 764 b 83 372 194 703 83 579 l 83 332 b 403 -6 83 110 206 -6 b 721 332 599 -6 721 110 l 721 372 b 544 685 721 511 672 606 b 300 889 389 779 300 825 b 435 967 300 935 336 967 b 581 936 485 967 536 957 b 633 958 603 925 622 935 b 611 1013 643 982 633 1004 b 424 1050 556 1039 493 1050 z m 403 622 b 622 367 542 622 622 543 l 622 338 b 403 83 622 163 542 83 b 183 338 264 83 183 163 l 183 367 b 403 622 183 543 264 622 z "},"ε":{"ha":-162,"x_min":0,"x_max":0,"o":"m 371 753 b 99 575 207 753 99 694 l 99 561 b 258 396 99 478 151 419 b 81 222 147 382 81 328 l 81 206 b 364 -6 81 67 188 -6 b 618 58 454 -6 543 18 b 632 115 639 69 644 94 b 576 132 619 138 599 143 b 364 79 506 94 440 79 b 185 208 251 79 185 129 l 185 222 b 368 353 185 321 260 353 l 440 353 b 475 394 465 353 475 371 b 440 436 475 418 465 436 l 378 436 b 201 560 274 436 201 467 l 201 572 b 374 671 201 633 263 671 b 539 644 426 671 488 664 b 590 667 561 638 581 644 b 572 719 600 690 593 711 b 371 753 511 743 447 753 z "},"ζ":{"ha":-219,"x_min":0,"x_max":0,"o":"m 521 1042 l 185 1042 l 185 1281 b -165 692 -19 1128 -165 919 l -165 681 b 147 358 -165 488 -33 407 b 281 285 211 340 281 325 b 225 211 281 261 267 239 b 217 153 201 196 203 171 b 279 143 232 132 256 126 b 378 290 333 179 378 224 b 194 440 378 363 344 393 b -65 693 44 488 -65 535 l -65 700 b 303 1272 -65 938 103 1122 b 336 1332 333 1293 338 1314 b 282 1368 333 1356 318 1368 z "},"η":{"ha":0,"x_min":0,"x_max":0,"o":"l 0 -14 l -687 -14 b NaN 668 -687 -43 -664 668 "},"θ":{"ha":-65,"x_min":0,"x_max":0,"o":"m 389 1050 b 83 576 178 1050 83 896 l 83 464 b 389 -10 83 146 178 -10 b 694 464 600 -10 694 146 l 694 576 b 389 1050 694 896 600 1050 z m 389 958 b 594 588 536 958 592 843 l 594 572 l 183 572 l 183 588 b 389 958 186 843 242 958 z m 183 460 l 183 488 l 594 488 l 594 460 b 389 82 594 213 542 82 b 183 460 236 82 183 213 z "},"ι":{"ha":0,"x_min":0,"x_max":0,"o":"l 0 -483 l 163 -483 l 163 249 l -393 249 b -253 104 -393 147 -340 106 b -176 115 -224 103 -192 108 b -154 165 -157 124 -150 143 b -196 199 -160 189 -175 203 b -235 193 -207 196 -222 193 b -293 268 -281 193 -293 214 "},"κ":{"ha":0,"x_min":0,"x_max":0,"o":"l 0 -115 l 171 -115 l 171 617 l -478 617 l -478 588 l -454 588 l -454 575 l -428 575 l -428 782 l -326 883 l -67 551 b 0 546 -50 529 -22 528 b 7 614 22 563 28 589 l -258 950 b -7 1233 -22 1188 -3 1208 b NaN NaN -25 1213 -362 864 l NaN NaN "},"λ":{"ha":-144,"x_min":0,"x_max":0,"o":"m 192 1050 b 128 1036 169 1050 146 1043 b 111 985 106 1026 103 1004 b 161 963 121 964 139 954 b 186 967 169 965 179 967 b 235 918 210 967 222 953 l 303 728 l 42 60 b 72 3 31 32 47 11 b 132 29 99 -4 122 3 l 350 606 l 351 606 l 567 31 b 625 3 576 4 599 -4 b 657 60 651 11 667 32 l 313 963 b 192 1050 289 1025 258 1050 z "},"μ":{"ha":0,"x_min":0,"x_max":0,"o":"l 0 -10 l 171 -10 l 171 722 l -747 722 l -747 693 l -724 693 l -724 989 b -554 915 -694 942 -632 915 b -329 1035 -439 915 -358 978 b -429 1686 -329 1036 -403 1686 b -467 NaN -454 1686 -467 1657 l -467 NaN b -681 NaN -467 NaN -546 NaN b -858 NaN -800 NaN -858 NaN "},"ν":{"ha":0,"x_min":0,"x_max":0,"o":""},"ξ":{"ha":-224,"x_min":0,"x_max":0,"o":"m 386 1050 b 113 819 206 1050 113 951 l 113 803 b 301 586 113 667 206 604 b 76 356 181 569 76 508 l 76 333 b 403 32 76 142 221 79 b 526 -42 469 14 526 -6 b 469 -114 526 -65 513 -86 b 460 -172 446 -129 446 -154 b 524 -182 476 -193 500 -197 b 619 -35 576 -144 619 -101 b 440 114 619 44 583 69 b 176 336 288 163 176 200 l 176 351 b 425 540 176 476 267 540 l 489 540 b 524 583 514 540 524 560 b 489 626 524 607 514 626 l 429 626 b 210 806 292 626 210 697 l 210 819 b 389 967 210 924 293 967 b 556 933 443 967 507 961 b 610 951 576 924 597 928 b 594 1008 621 975 614 999 b 386 1050 525 1044 457 1050 z "},"ο":{"ha":0,"x_min":0,"x_max":0,"o":""},"π":{"ha":-39,"x_min":0,"x_max":0,"o":"m 742 743 l 63 743 b 63 NaN 36 743 63 NaN l 196 NaN l 196 NaN l 196 NaN l 218 NaN l 218 NaN l 432 NaN l 432 NaN b 572 NaN 432 NaN 483 NaN b 649 NaN 600 NaN 632 NaN b 669 NaN 668 NaN 674 NaN b 629 NaN 665 NaN 650 NaN b 590 NaN 617 NaN 603 NaN b 531 NaN 544 NaN 531 NaN l 531 NaN l 665 NaN "},"ρ":{"ha":-6,"x_min":0,"x_max":0,"o":"m 433 742 b 113 397 235 742 113 624 l 113 -228 l 140 -228 l 140 -206 l 467 -206 l 467 -203 b 685 -307 503 -267 593 -307 b 1006 38 883 -307 1006 -189 l 1006 96 b 685 440 1006 322 883 440 z m 685 351 b 683 413 685 492 764 413 b 403 413 543 413 403 333 b NaN NaN 403 493 543 NaN z "},"σ":{"ha":-29,"x_min":0,"x_max":0,"o":"m 751 742 l 410 742 b 761 1060 410 942 535 1060 l 761 1118 b 650 1378 761 1235 722 1331 l 778 1378 b 813 1419 801 1378 813 1397 b 778 1463 813 1444 801 1463 z m 436 1374 b 439 1432 436 1515 519 1432 b 154 1432 297 1432 154 1349 b NaN NaN 154 1513 297 NaN z "},"τ":{"ha":-58,"x_min":0,"x_max":0,"o":"m 721 743 l 64 743 l 64 1003 l -454 1003 b -314 858 -454 901 -401 860 b -233 869 -285 858 -249 864 b -211 921 -214 878 -207 897 b -253 953 -217 944 -232 958 b -293 947 -264 950 -279 947 b -354 1024 -339 947 -354 969 "},"υ":{"ha":0,"x_min":0,"x_max":0,"o":"l 0 -19 l 164 -19 l 164 713 l -272 713 b 28 453 -272 551 -144 453 b 326 713 199 453 326 551 l 326 1149 l 326 1178 l 301 1178 l 301 1190 l 275 1190 l 275 778 b 76 583 275 644 188 583 b -124 778 -37 583 -124 644 "},"φ":{"ha":110,"x_min":0,"x_max":0,"o":"m 476 742 b 83 397 243 742 83 624 l 83 339 b 428 -4 83 126 221 11 l 428 -229 b 475 -269 428 -258 450 -269 b 522 -229 500 -269 522 -258 l 522 -4 b 869 339 731 10 869 126 l 869 397 b 476 742 869 624 710 742 z m 428 650 l 428 85 b 183 344 281 97 183 181 l 183 392 b 428 650 183 556 281 638 z m 522 83 l 522 650 b 769 392 671 638 769 557 l 769 344 b 522 83 769 179 671 97 z "},"χ":{"ha":-51,"x_min":0,"x_max":0,"o":"m 151 742 b 72 725 117 742 93 736 b 56 676 51 714 50 694 b 99 651 63 656 78 644 b 128 657 108 654 118 657 b 169 606 143 657 150 649 l 325 247 l 107 -200 b 133 -260 92 -231 107 -253 b 193 -233 158 -268 181 -261 l 383 181 l 536 -187 b 647 -271 563 -253 593 -271 b 721 -254 675 -271 700 -264 b 738 -204 742 -243 743 -224 b 694 -181 731 -185 715 -174 b 665 -185 685 -183 675 -185 b 624 -135 650 -185 642 -178 l 457 250 l 658 668 b 631 728 672 699 656 719 b 571 703 606 738 583 731 l 399 317 l 257 658 b 151 742 231 724 200 742 z "},"ψ":{"ha":119,"x_min":0,"x_max":0,"o":"m 136 732 l 136 704 l -122 704 b 224 269 -122 414 -11 283 l 224 44 l 449 44 b 794 479 682 57 794 189 l 794 738 b 744 779 794 767 772 779 b 696 738 717 779 696 767 l 696 489 b 449 136 696 250 621 149 l 449 738 l 449 136 b 201 489 276 149 201 250 l 201 738 b 153 779 201 767 181 779 z "},"ω":{"ha":193,"x_min":0,"x_max":0,"o":"m 251 744 b 192 733 232 756 204 756 b 86 375 129 628 86 504 l 86 344 b 332 -6 86 78 206 -6 b 518 115 415 -6 486 40 l 519 115 b 704 -6 551 40 621 -6 b 950 344 831 -6 950 78 l 950 375 b 844 733 950 504 907 629 b 785 744 832 756 804 756 b 764 688 764 733 751 711 b 853 369 815 585 853 510 l 853 350 b 693 85 853 146 771 85 b 567 243 615 85 567 151 l 567 519 l 292 519 b 165 360 292 428 243 360 b 7 625 86 360 7 421 l 7 644 b 96 963 7 785 49 874 b 74 1019 108 986 94 1008 z "},"─":{"ha":0,"x_min":0,"x_max":0,"o":"m 1264 433 l 0 433 l 0 392 l 1264 392 z "},"│":{"ha":0,"x_min":0,"x_max":0,"o":"m 653 1181 l 611 1181 l 611 -354 l 653 -354 z "},"┌":{"ha":0,"x_min":0,"x_max":0,"o":"m 1264 433 "},"┐":{"ha":0,"x_min":0,"x_max":0,"o":"m 653 433 l 0 433 l 0 392 l 611 392 l 611 -354 l 653 -354 z "},"┘":{"ha":0,"x_min":0,"x_max":0,"o":"m 653 1181 l 611 1181 l 611 433 l 0 433 l 0 392 l 653 392 z "},"└":{"ha":0,"x_min":0,"x_max":0,"o":"l -789 0 l -789 653 "},"├":{"ha":0,"x_min":0,"x_max":0,"o":""},"┬":{"ha":0,"x_min":0,"x_max":0,"o":"m 1264 433 "},"┤":{"ha":0,"x_min":0,"x_max":0,"o":"m 0 392 l 611 392 l 611 -354 l 653 -354 l 653 1181 l 611 1181 l 611 433 l 0 433 z "},"┴":{"ha":0,"x_min":0,"x_max":0,"o":"l -747 0 l -747 -611 l -789 -611 l -789 653 "},"┼":{"ha":0,"x_min":0,"x_max":0,"o":""},"━":{"ha":0,"x_min":0,"x_max":0,"o":"l -1264 0 l -1264 -100 l 0 -100 "},"┃":{"ha":0,"x_min":0,"x_max":0,"o":"l -1535 0 l -1535 106 "},"┏":{"ha":0,"x_min":0,"x_max":0,"o":"l -685 0 l -685 -817 l -579 -817 l -579 -100 l 0 -100 "},"┓":{"ha":0,"x_min":0,"x_max":0,"o":"m 0 363 l 579 363 l 579 -354 l 685 -354 l 685 463 l 0 463 z "},"┛":{"ha":0,"x_min":0,"x_max":0,"o":"m 0 363 l 685 363 l 685 1181 l 579 1181 l 579 463 l 0 463 z "},"┗":{"ha":0,"x_min":0,"x_max":0,"o":"l -818 0 l -818 685 "},"┣":{"ha":0,"x_min":0,"x_max":0,"o":"l -1535 0 l -1535 106 l -818 106 l -818 685 "},"┳":{"ha":0,"x_min":0,"x_max":0,"o":"l -1264 0 l -1264 -100 l -685 -100 l -685 -817 l -579 -817 l -579 -100 l 0 -100 "},"┫":{"ha":0,"x_min":0,"x_max":0,"o":"m 685 1181 z "},"┻":{"ha":0,"x_min":0,"x_max":0,"o":"l -718 0 l -718 -579 l -818 -579 l -818 685 "},"╋":{"ha":0,"x_min":0,"x_max":0,"o":"m 1264 463 l 685 463 l 685 1181 l 1401 1181 l 1401 1760 z "},"┠":{"ha":0,"x_min":0,"x_max":0,"o":""},"┯":{"ha":0,"x_min":0,"x_max":0,"o":"l -1264 0 l -1264 -100 l -653 -100 l -653 -817 l -611 -817 l -611 -100 l 0 -100 "},"┨":{"ha":0,"x_min":0,"x_max":0,"o":"m 0 392 l 579 392 l 579 -354 l 685 -354 l 685 1181 l 579 1181 l 579 433 l 0 433 z "},"┷":{"ha":0,"x_min":0,"x_max":0,"o":"l -611 0 l -611 718 l -653 718 l -653 0 l -1264 0 l -1264 -100 l 0 -100 "},"┿":{"ha":0,"x_min":0,"x_max":0,"o":"l 611 0 l 611 -717 l 653 -717 l 653 0 l 1264 0 l 1264 100 l 653 100 "},"┝":{"ha":0,"x_min":0,"x_max":0,"o":"m 653 1181 l 611 1181 l 611 -354 l 653 -354 l 653 363 l 1264 363 l 1264 463 l 653 463 z "},"┰":{"ha":0,"x_min":0,"x_max":0,"o":"m 1264 433 "},"┥":{"ha":0,"x_min":0,"x_max":0,"o":"l 611 0 l 611 -717 l 653 -717 "},"┸":{"ha":0,"x_min":0,"x_max":0,"o":"l -747 0 l -747 -579 l -789 -579 l -789 685 "},"╂":{"ha":0,"x_min":0,"x_max":0,"o":"l -747 0 l -747 -579 l -789 -579 l -789 0 l -1535 0 l -1535 106 l -789 106 l -789 685 l -747 685 l -747 106 "},"┒":{"ha":0,"x_min":0,"x_max":0,"o":"m 685 433 l 0 433 l 0 392 l 579 392 l 579 -354 l 685 -354 z "},"┑":{"ha":0,"x_min":0,"x_max":0,"o":"m 653 463 l 0 463 l 0 363 l 611 363 l 611 -354 l 653 -354 z "},"┚":{"ha":0,"x_min":0,"x_max":0,"o":"l -747 0 l -747 -579 l -789 -579 l -789 106 "},"┙":{"ha":0,"x_min":0,"x_max":0,"o":"l 653 0 "},"┖":{"ha":0,"x_min":0,"x_max":0,"o":"m 579 392 l 1264 392 l 1264 433 l 685 433 l 685 1181 l 579 1181 z "},"┕":{"ha":0,"x_min":0,"x_max":0,"o":"m 611 363 l 1264 363 l 1264 463 l 653 463 l 653 1181 l 611 1181 z "},"┎":{"ha":0,"x_min":0,"x_max":0,"o":"m 579 -354 l 685 -354 l 685 392 l 1264 392 l 1264 433 l 579 433 z "},"┍":{"ha":0,"x_min":0,"x_max":0,"o":"m 611 -354 l 653 -354 l 653 363 l 1264 363 l 1264 463 l 611 463 z "},"┞":{"ha":0,"x_min":0,"x_max":0,"o":"l -768 0 l -768 32 l -1535 32 "},"┟":{"ha":0,"x_min":0,"x_max":0,"o":"m 685 392 l 1264 392 l 1264 433 l 653 433 l 653 1181 l 611 1181 l 611 413 l 579 413 l 579 -354 l 685 -354 z "},"┡":{"ha":0,"x_min":0,"x_max":0,"o":"l -768 0 l -768 32 l -1535 32 l -1535 74 l -818 74 l -818 685 "},"┢":{"ha":0,"x_min":0,"x_max":0,"o":"l -611 0 l -611 718 l -653 718 l -653 -50 l -685 -50 l -685 -817 l -579 -817 l -579 -100 l 0 -100 "},"┦":{"ha":0,"x_min":0,"x_max":0,"o":"m 579 433 l 0 433 l 0 392 l 611 392 l 611 -354 l 653 -354 l 653 413 l 685 413 l 685 1181 l 579 1181 z "},"┧":{"ha":0,"x_min":0,"x_max":0,"o":"m 579 -354 l 685 -354 l 685 413 l 653 413 l 653 1181 l 611 1181 l 611 433 l 0 433 l 0 392 l 579 392 z "},"┩":{"ha":0,"x_min":0,"x_max":0,"o":"m 0 363 l 611 363 l 611 -354 l 653 -354 l 653 413 l 685 413 l 685 1181 l 579 1181 l 579 463 l 0 463 z "},"┪":{"ha":0,"x_min":0,"x_max":0,"o":"m 0 363 l 579 363 l 579 -354 l 685 -354 l 685 413 l 653 413 l 653 1181 l 611 1181 l 611 463 l 0 463 z "},"┭":{"ha":0,"x_min":0,"x_max":0,"o":"m 1264 433 "},"┮":{"ha":0,"x_min":0,"x_max":0,"o":"l -632 0 l -632 -29 l -1264 -29 l -1264 -71 l -653 -71 l -653 -817 l -611 -817 l -611 -100 l 0 -100 "},"┱":{"ha":0,"x_min":0,"x_max":0,"o":"m 1264 433 "},"┲":{"ha":0,"x_min":0,"x_max":0,"o":"l -632 0 l -632 -29 l -1264 -29 "},"┵":{"ha":0,"x_min":0,"x_max":0,"o":"l -718 0 l -718 -611 l -818 -611 l -818 21 l -789 21 l -789 653 "},"┶":{"ha":0,"x_min":0,"x_max":0,"o":"m 0 392 "},"┹":{"ha":0,"x_min":0,"x_max":0,"o":"l -718 0 l -718 -579 l -818 -579 l -818 53 l -789 53 l -789 685 "},"┺":{"ha":0,"x_min":0,"x_max":0,"o":"m 0 392 "},"┽":{"ha":0,"x_min":0,"x_max":0,"o":""},"┾":{"ha":0,"x_min":0,"x_max":0,"o":"m 0 392 "},"╀":{"ha":0,"x_min":0,"x_max":0,"o":"l -747 0 l -747 -579 l -789 -579 l -789 32 l -1535 32 "},"╁":{"ha":0,"x_min":0,"x_max":0,"o":""},"╃":{"ha":0,"x_min":0,"x_max":0,"o":"m 0 363 l 611 363 l 611 -354 l 1358 -354 l 1358 -460 l 640 -460 l 640 -1039 z "},"╄":{"ha":0,"x_min":0,"x_max":0,"o":"m 0 392 "},"╅":{"ha":0,"x_min":0,"x_max":0,"o":""},"╆":{"ha":0,"x_min":0,"x_max":0,"o":"l -611 0 l -611 718 l -653 718 l -653 -29 l -1264 -29 "},"╇":{"ha":0,"x_min":0,"x_max":0,"o":"l -718 0 l -718 -579 l -818 -579 l -818 32 l -1535 32 l -1535 74 l -818 74 l -818 685 l -718 685 l -718 106 "},"╈":{"ha":0,"x_min":0,"x_max":0,"o":"m 685 363 l 1264 363 l 1264 463 l 653 463 l 653 1181 l 611 1181 l 611 463 l 0 463 l 0 363 l 579 363 l 579 -354 l 685 -354 z "},"╉":{"ha":0,"x_min":0,"x_max":0,"o":"m 1264 433 l 685 433 l 685 1181 l 1431 1181 l 1431 1760 z "},"╊":{"ha":0,"x_min":0,"x_max":0,"o":"l -579 0 l -579 718 l -685 718 l -685 -29 l -1264 -29 "},"㎕":{"ha":999,"x_min":0,"x_max":0,"o":"m 0 -92 z m -793 -274 l -793 -300 l -815 -300 l -815 -278 l -828 -278 l -828 -253 l -800 -253 l -800 -232 l -500 -232 b -329 -310 -471 -279 -410 -310 b -125 -199 -225 -310 -147 -250 l -124 -199 l -124 -264 b -78 -304 -124 -292 -101 -304 b -31 -264 -53 -304 -31 -292 b -69 340 -31 389 -57 368 l -69 -85 "},"㎖":{"ha":-685,"x_min":0,"x_max":0,"o":"m 1017 1007 b 854 743 892 1007 854 890 l 854 157 b 1017 -6 854 33 935 -6 b 1150 36 1067 -6 1118 11 b 1161 96 1171 53 1174 76 b 1107 110 1149 117 1128 122 b 1024 82 1082 92 1051 82 b 946 175 975 82 946 110 l 946 203 b 1181 633 1097 269 1181 397 l 1181 743 b 1017 1007 1181 889 1149 1007 z m 1017 917 b 1088 725 1078 917 1088 836 l 1088 633 b 946 299 1088 442 1026 332 l 946 725 b 1017 917 946 836 956 917 z "},"㎗":{"ha":-28,"x_min":0,"x_max":0,"o":"l 0 975 l -344 975 l -344 967 l -656 967 b -854 1065 -689 1024 -761 1065 b -1078 982 -854 892 -960 982 b -803 1107 -900 982 -803 1058 b NaN NaN -803 1182 -765 NaN l NaN NaN l NaN NaN m NaN NaN z m NaN NaN b NaN NaN NaN NaN NaN NaN b NaN NaN NaN NaN NaN NaN b NaN NaN NaN NaN NaN NaN z "},"ℓ":{"ha":0,"x_min":0,"x_max":0,"o":"m 665 1008 b 497 744 533 1008 497 886 l 497 157 b 671 -6 497 36 583 -6 b 806 38 721 -6 774 11 b 817 97 826 53 829 78 b 761 110 803 117 782 122 b 676 82 736 93 706 82 b 592 175 624 82 592 111 l 592 201 b 836 633 743 268 836 399 l 836 744 b 665 1008 836 885 804 1008 z m 665 917 b 740 726 729 917 740 831 l 740 633 b 592 300 740 446 672 335 l 592 726 b 665 917 592 831 601 917 z "},"㎘":{"ha":571,"x_min":0,"x_max":0,"o":"m 986 1007 b 825 743 861 1007 825 890 l 825 157 b 986 -6 825 33 904 -6 b 1121 36 1038 -6 1089 11 b 1132 96 1142 53 1143 76 b 1078 110 1118 117 1099 122 b 993 82 1051 92 1022 82 b 917 175 946 82 917 110 l 917 203 b 1150 633 1068 269 1150 397 l 1150 743 b 986 1007 1150 889 1118 1007 l 986 297 l 978 297 l 978 521 l 1088 640 l 1311 274 b 1379 268 1326 249 1358 251 b 1390 333 1399 285 1407 308 l 1157 707 l 1349 907 b 1350 974 1369 929 1367 956 b 1282 975 1333 992 1301 996 l 978 642 z m 1688 560 b 1758 368 1749 560 1758 479 l 1758 276 b 1618 -58 1758 85 1697 -25 l 1618 368 b 1688 560 1618 479 1626 560 z "},"㏄":{"ha":0,"x_min":0,"x_max":0,"o":"m 426 744 b 210 675 426 574 324 675 b 469 761 385 675 469 738 b NaN NaN 469 803 525 NaN b NaN NaN NaN NaN NaN NaN b NaN NaN NaN NaN NaN NaN b NaN NaN NaN NaN NaN NaN b NaN NaN NaN NaN NaN NaN b NaN NaN NaN NaN NaN NaN b NaN NaN NaN NaN NaN NaN z m NaN NaN b NaN NaN NaN NaN NaN NaN b NaN NaN NaN NaN NaN NaN b NaN NaN NaN NaN NaN NaN b NaN NaN NaN NaN NaN NaN b NaN NaN NaN NaN NaN NaN b NaN NaN NaN NaN NaN NaN b NaN NaN NaN NaN NaN NaN b NaN NaN NaN NaN NaN NaN b NaN NaN NaN NaN NaN NaN b NaN NaN NaN NaN NaN NaN z "},"㎣":{"ha":0,"x_min":0,"x_max":0,"o":""},"㎤":{"ha":0,"x_min":0,"x_max":0,"o":"m -796 -385 b -1004 -454 -796 -549 -890 -454 b -762 -375 -839 -454 -762 -394 b NaN NaN -762 -329 -711 NaN b NaN NaN NaN NaN NaN NaN b NaN NaN NaN NaN NaN NaN b NaN NaN NaN NaN NaN NaN b NaN NaN NaN NaN NaN NaN b NaN NaN NaN NaN NaN NaN b NaN NaN NaN NaN NaN NaN b NaN NaN NaN NaN NaN NaN b NaN NaN NaN NaN NaN NaN b NaN NaN NaN NaN NaN NaN z m NaN NaN "},"㎥":{"ha":0,"x_min":0,"x_max":0,"o":"m 1104 1129 b 1019 1090 1065 1129 1038 1113 b 1019 1058 1013 1081 1011 1067 b 1056 1057 1028 1049 1044 1044 b 1107 1079 1068 1072 1082 1079 b 1151 1043 1138 1079 1151 1065 b 1107 999 1151 1014 1128 999 l 1086 999 b 1065 975 1072 999 1065 988 b 1086 951 1065 963 1072 951 l 1108 951 b 1163 908 1133 951 1163 940 b 1107 861 1163 882 1149 861 b 1042 882 1083 861 1060 871 b 1008 872 1028 890 1017 886 b 1015 839 1001 861 1004 847 b 1108 813 1038 822 1075 813 b 1217 904 1182 813 1217 853 b 1167 978 1217 940 1197 969 b 1204 1044 1193 992 1204 1024 b 1104 1129 1204 1093 1169 1129 "},"㎦":{"ha":0,"x_min":0,"x_max":0,"o":"l 0 -999 l -131 -999 l -131 -776 l -50 -671 l 144 -1017 b 208 -1033 158 -1043 186 -1046 b 229 -971 232 -1019 240 -994 l 17 -601 l 188 -379 b 179 -318 204 -354 197 -331 b 115 -325 158 -303 131 -301 l -131 -650 m 540 -904 "},"㎙":{"ha":0,"x_min":0,"x_max":0,"o":"m 369 1008 b 167 790 233 1008 167 935 l 167 733 l 74 733 l 167 733 l 167 125 l 138 125 l 138 147 l 746 147 l 746 318 l 575 318 l 575 372 b 688 508 575 463 607 508 b 753 499 711 508 731 504 b 799 526 775 492 792 506 b 774 576 804 547 799 567 b 681 593 747 588 713 593 z m 1054 329 b 922 226 985 329 940 288 l 921 226 l 921 283 b 878 318 921 310 899 318 b 835 283 856 318 835 310 b 938 -297 835 -375 874 -297 b 1021 -467 1000 -297 1021 -362 b 1113 -833 1021 -911 1050 -833 b 1207 -822 1179 -833 1207 -811 b 1240 -744 1207 -797 1229 -774 l 1240 -272 b 1076 -40 1240 -132 1189 -40 b 938 -150 1003 -40 958 -85 b 806 -40 919 -83 875 -40 z "},"㎚":{"ha":0,"x_min":0,"x_max":0,"o":"m 317 744 b 176 640 231 744 192 694 l 175 640 l 175 697 b 131 733 175 724 154 733 b 86 697 107 733 86 724 l 86 40 l 86 13 l 110 13 l 110 0 l 133 0 l 133 443 b 244 614 133 521 164 614 b 336 435 318 614 336 554 l 336 0 l 793 0 b 629 247 793 146 761 247 z m 1090 247 "},"㎛":{"ha":0,"x_min":0,"x_max":0,"o":"m 778 744 "},"㎜":{"ha":0,"x_min":0,"x_max":0,"o":""},"㎝":{"ha":0,"x_min":0,"x_max":0,"o":"m 315 744 b 107 675 315 581 221 675 b 349 754 272 675 349 735 b NaN NaN 349 800 400 NaN b NaN NaN NaN NaN NaN NaN b NaN NaN NaN NaN NaN NaN b NaN NaN NaN NaN NaN NaN b NaN NaN NaN NaN NaN NaN b NaN NaN NaN NaN NaN NaN b NaN NaN NaN NaN NaN NaN b NaN NaN NaN NaN NaN NaN b NaN NaN NaN NaN NaN NaN b NaN NaN NaN NaN NaN NaN z m NaN NaN "},"㎞":{"ha":0,"x_min":0,"x_max":0,"o":"l 0 113 l 999 113 l 999 335 l 1079 440 l 1274 94 b 1338 78 1288 68 1315 65 b 1358 140 1361 92 1369 117 l 1146 510 l 1317 732 b 1308 793 1333 757 1326 781 b 1244 786 1288 808 1260 810 l 999 461 m 1669 207 "},"㎟":{"ha":0,"x_min":0,"x_max":0,"o":""},"㎠":{"ha":0,"x_min":0,"x_max":0,"o":"m -796 -386 b -1004 -456 -796 -550 -890 -456 b -762 -376 -839 -456 -762 -396 b NaN NaN -762 -331 -711 NaN b NaN NaN NaN NaN NaN NaN b NaN NaN NaN NaN NaN NaN b NaN NaN NaN NaN NaN NaN b NaN NaN NaN NaN NaN NaN b NaN NaN NaN NaN NaN NaN b NaN NaN NaN NaN NaN NaN b NaN NaN NaN NaN NaN NaN b NaN NaN NaN NaN NaN NaN b NaN NaN NaN NaN NaN NaN z m NaN NaN "},"㎡":{"ha":0,"x_min":0,"x_max":0,"o":""},"㎢":{"ha":0,"x_min":0,"x_max":0,"o":"l 0 -999 l -132 -999 l -132 -776 l -51 -671 l 143 -1017 b 207 -1033 157 -1043 185 -1046 b 228 -971 231 -1019 239 -994 l 15 -601 l 186 -379 b 178 -318 203 -354 196 -331 b 114 -325 157 -303 129 -301 l -132 -650 m 539 -904 "},"㏊":{"ha":28,"x_min":0,"x_max":0,"o":"l 0 185 l 999 185 l 999 -732 l 1422 -732 b 1578 -542 1422 -642 1478 -542 b 1710 -736 1675 -542 1710 -603 l 1710 -1156 l 2154 -1156 b 1951 -897 2154 -997 2090 -897 b 1771 -1012 1853 -897 1796 -956 l 1768 -1012 l 1768 -683 m 2496 -937 b 2404 -1032 2475 -937 2404 -1003 b NaN NaN 2404 -1076 2356 NaN b NaN NaN NaN NaN NaN NaN b NaN NaN NaN NaN NaN NaN b NaN NaN NaN NaN NaN NaN b NaN NaN NaN NaN NaN NaN l NaN NaN l NaN NaN b NaN NaN NaN NaN NaN NaN l NaN NaN b NaN NaN NaN NaN NaN NaN b NaN NaN NaN NaN NaN NaN b NaN NaN NaN NaN NaN NaN l NaN NaN l NaN NaN b NaN NaN NaN NaN NaN NaN b NaN NaN NaN NaN NaN NaN l NaN NaN b NaN NaN NaN NaN NaN NaN z m NaN NaN l NaN NaN l NaN NaN b NaN NaN NaN NaN NaN NaN b NaN NaN NaN NaN NaN NaN b NaN NaN NaN NaN NaN NaN l NaN NaN b NaN NaN NaN NaN NaN NaN z "},"㎍":{"ha":1138,"x_min":0,"x_max":0,"o":"m -981 0 l -981 736 l -1007 736 l -1007 715 l -1931 715 l -1931 686 l -1910 686 l -1910 674 l -1883 674 l -1883 701 l -1864 701 l -1864 1001 b -1732 924 -1846 957 -1790 924 b -1567 1031 -1640 924 -1587 979 l -1565 1031 l -1565 969 b -1521 929 -1565 942 -1544 929 b -1475 969 -1496 929 -1475 942 l -1475 1625 b -1522 1665 -1475 1653 -1497 1665 b -1569 1625 -1549 1665 -1569 1653 l -1569 1197 b -1731 1013 -1569 1114 -1619 1013 b -1864 1206 -1822 1013 -1864 1072 "},"㎎":{"ha":0,"x_min":0,"x_max":0,"o":"m 297 744 b 250 714 297 722 276 714 b 351 133 250 56 288 133 b 431 -36 413 133 431 68 l 431 -481 l 463 -481 l 463 -403 l 525 -403 l 525 -337 l 546 -337 l 546 -315 l 535 -315 l 535 -290 l 1007 -290 b 990 -199 1147 -290 1101 -199 b NaN NaN 917 -199 849 NaN z m NaN NaN b NaN NaN NaN NaN NaN NaN l NaN NaN l NaN NaN b NaN NaN NaN NaN NaN NaN b NaN NaN NaN NaN NaN NaN l NaN NaN b NaN NaN NaN NaN NaN NaN b NaN NaN NaN NaN NaN NaN l NaN NaN l NaN NaN b NaN NaN NaN NaN NaN NaN b NaN NaN NaN NaN NaN NaN b NaN NaN NaN NaN NaN NaN b NaN NaN NaN NaN NaN NaN b NaN NaN NaN NaN NaN NaN l NaN NaN l NaN NaN l NaN NaN l NaN NaN b NaN NaN NaN NaN NaN NaN z m NaN NaN b NaN NaN NaN NaN NaN NaN l NaN NaN b NaN NaN NaN NaN NaN NaN b NaN NaN NaN NaN NaN NaN l NaN NaN b NaN NaN NaN NaN NaN NaN z "},"㎏":{"ha":0,"x_min":0,"x_max":0,"o":"b 1024 206 0 179 999 206 b 1065 NaN 1036 206 1065 NaN l 1065 NaN l 1174 NaN l 1397 NaN b 1464 NaN 1411 NaN 1443 NaN b 1476 NaN 1485 NaN 1492 NaN l 1244 NaN l 1435 NaN b 1436 NaN 1456 NaN 1454 NaN b 1368 NaN 1419 NaN 1388 NaN l 1065 NaN "},"㏏":{"ha":0,"x_min":0,"x_max":0,"o":"l 0 224 l 999 224 l 999 447 l 1108 567 l 1331 200 b 1399 194 1346 175 1378 178 b 1410 260 1418 211 1425 235 l 1176 633 l 1361 838 b 1360 901 1381 860 1378 885 b 1293 899 1342 919 1311 921 l 999 568 l 999 1139 l 1697 1139 l 1697 1079 l 1533 1079 l 1533 969 l 1643 969 l 1643 524 b 1825 313 1643 364 1710 313 b 1925 332 1856 313 1899 319 b 1947 388 1949 343 1956 364 b 1897 413 1938 413 1918 419 b 1831 399 1875 403 1847 399 b 1743 532 1772 399 1743 425 l 1743 969 l 1897 969 "},"㎈":{"ha":29,"x_min":0,"x_max":0,"o":"l 0 1131 l 999 1131 l 999 215 l 1914 215 m 1097 -39 b 689 -243 1075 -39 919 -128 l 689 -303 b 935 -647 689 -536 779 -647 b 1111 -578 1007 -647 1071 -622 b 1117 -515 1131 -558 1132 -536 b 1060 -506 1103 -497 1079 -489 b 936 -557 1025 -539 985 -557 b 786 -297 846 -557 786 -487 l 786 -249 b 933 13 786 -68 842 13 b 1039 -29 972 13 1007 1 b 1094 -25 1056 -43 1078 -42 b 1096 36 1110 -8 1113 18 b 933 103 1058 79 994 103 z m 1383 103 b 1200 29 1313 103 1246 74 b 1190 -29 1182 11 1178 -10 b 1249 -43 1204 -49 1228 -58 b 1379 14 1294 -3 1333 14 b 1501 -158 1474 14 1501 -36 l 1501 -210 l 1354 -210 b 1150 -418 1203 -210 1150 -299 l 1150 -433 b 1344 -647 1150 -567 1222 -647 b 1449 -618 1397 -647 1422 -637 b 1504 -547 1471 -601 1492 -574 l 1506 -547 l 1506 -604 b 1551 -642 1506 -632 1531 -642 b 1599 -604 1572 -642 1599 -631 l 1599 -137 b 1383 103 1599 15 1525 103 z m 1363 -290 l 1503 -290 l 1503 -396 b 1439 -533 1503 -457 1474 -507 b 1353 -562 1413 -554 1389 -562 b 1249 -431 1275 -562 1249 -514 l 1249 -421 b 1363 -290 1249 -344 1265 -290 z "},"㎉":{"ha":449,"x_min":0,"x_max":0,"o":"m 82 999 b 39 961 60 999 39 988 l 39 38 b 82 0 39 11 60 0 b 126 38 107 0 126 11 l 126 276 l 176 369 l 289 26 b 346 4 299 -1 324 -4 b 367 57 367 13 375 33 l 232 454 l 349 676 b 332 728 361 701 350 719 b 278 713 313 738 289 736 l 126 414 l 126 961 b 82 999 126 988 107 999 z m 1208 999 b 1165 961 1186 999 1165 988 l 1165 38 l 1165 11 l 1185 11 l 1185 0 l 1208 0 l 1208 924 b 1163 961 1208 950 1188 961 z m 540 707 b 354 644 540 572 468 644 b 550 724 490 644 550 696 b NaN NaN 550 769 583 NaN b NaN NaN NaN NaN NaN NaN b NaN NaN NaN NaN NaN NaN b NaN NaN NaN NaN NaN NaN b NaN NaN NaN NaN NaN NaN b NaN NaN NaN NaN NaN NaN b NaN NaN NaN NaN NaN NaN b NaN NaN NaN NaN NaN NaN b NaN NaN NaN NaN NaN NaN b NaN NaN NaN NaN NaN NaN z m NaN NaN b NaN NaN NaN NaN NaN NaN b NaN NaN NaN NaN NaN NaN b NaN NaN NaN NaN NaN NaN b NaN NaN NaN NaN NaN NaN b NaN NaN NaN NaN NaN NaN l NaN NaN l NaN NaN b NaN NaN NaN NaN NaN NaN l NaN NaN b NaN NaN NaN NaN NaN NaN b NaN NaN NaN NaN NaN NaN b NaN NaN NaN NaN NaN NaN l NaN NaN l NaN NaN b NaN NaN NaN NaN NaN NaN b NaN NaN NaN NaN NaN NaN l NaN NaN b NaN NaN NaN NaN NaN NaN z m NaN NaN l NaN NaN l NaN NaN b NaN NaN NaN NaN NaN NaN b NaN NaN NaN NaN NaN NaN b NaN NaN NaN NaN NaN NaN l NaN NaN b NaN NaN NaN NaN NaN NaN z "},"㏈":{"ha":-28,"x_min":0,"x_max":0,"o":"l 0 564 l -311 564 b -489 663 -344 621 -406 663 b -700 576 -489 499 -582 576 b -443 685 -531 576 -443 640 b NaN NaN -443 760 -406 NaN l NaN NaN l NaN NaN m NaN NaN l NaN NaN l NaN NaN l NaN NaN l NaN NaN b NaN NaN NaN NaN NaN NaN l NaN NaN b NaN NaN NaN NaN NaN NaN b NaN NaN NaN NaN NaN NaN l NaN NaN b NaN NaN NaN NaN NaN NaN z m NaN NaN l NaN NaN l NaN NaN b NaN NaN NaN NaN NaN NaN l NaN NaN b NaN NaN NaN NaN NaN NaN z m NaN NaN b NaN NaN NaN NaN NaN NaN b NaN NaN NaN NaN NaN NaN b NaN NaN NaN NaN NaN NaN z m NaN NaN l NaN NaN l NaN NaN b NaN NaN NaN NaN NaN NaN l NaN NaN b NaN NaN NaN NaN NaN NaN z "},"㎧":{"ha":0,"x_min":0,"x_max":0,"o":""},"㎨":{"ha":0,"x_min":0,"x_max":0,"o":""},"㎰":{"ha":0,"x_min":0,"x_max":0,"o":"m 410 744 b 219 619 331 744 258 696 l 219 694 l 219 -228 l 539 -228 b 718 -325 576 -292 646 -325 b 931 -411 718 -164 813 -242 z m 1482 -411 b 1249 -604 1317 -411 1249 -500 l 1249 -614 b 1457 -818 1249 -729 1325 -778 b 1625 -953 1599 -860 1625 -892 l 1625 -957 b 1481 -1075 1625 -1025 1581 -1075 b 1301 -1014 1417 -1075 1353 -1050 b 1242 -1031 1278 -999 1254 -1007 b 1256 -1092 1231 -1051 1233 -1075 b 1479 -1161 1311 -1133 1392 -1161 b 1724 -958 1635 -1161 1724 -1074 l 1724 -950 b 1494 -731 1724 -843 1661 -782 b 1632 -790 1494 -842 1529 -790 b 1776 -835 1686 -790 1731 -801 b 1832 -819 1800 -847 1821 -840 b 1815 -758 1844 -796 1840 -774 b 1629 -704 1765 -722 1704 -704 z m 1063 -793 b 1026 -732 1063 -672 1107 -732 b 906 -719 922 -732 817 -801 l 906 -526 b 1079 -317 906 -396 990 -317 z "},"㎱":{"ha":0,"x_min":0,"x_max":0,"o":"m 410 744 b 222 631 306 744 247 685 b 386 681 222 629 286 681 b 464 657 496 681 597 718 l 464 236 l 910 236 b 700 494 910 394 844 494 z m 1239 494 z "},"㎲":{"ha":0,"x_min":0,"x_max":0,"o":"m 949 744 b 714 551 783 744 714 656 l 714 542 b 924 338 714 426 792 378 b 1090 203 1065 296 1090 264 l 1090 199 b 946 81 1090 131 1047 81 b 767 142 882 81 819 106 b 707 125 743 157 721 149 b 721 64 696 104 699 81 b 946 -6 776 22 858 -6 b 1189 197 1100 -6 1189 82 l 1189 206 b 961 425 1189 313 1128 374 b 1100 364 961 313 996 364 b 1243 319 1153 364 1197 353 b 1300 335 1267 307 1289 314 b 1283 396 1311 358 1307 381 b 1097 450 1232 432 1171 450 l 1097 -326 l 1086 -326 l 1086 -301 l 1114 -301 l 1114 -282 l 1413 -282 b 1547 -358 1432 -326 1490 -358 b 1501 -319 1547 -267 1603 -319 b 1432 -304 1390 -319 1299 -364 l 1432 113 b 1386 153 1432 140 1411 153 z "},"㎳":{"ha":282,"x_min":0,"x_max":0,"o":"m 726 0 b 1206 -153 1471 0 1310 -64 l 1206 -162 b 1406 -367 1206 -278 1276 -325 b 1563 -501 1544 -410 1563 -440 l 1563 -506 b 1428 -624 1563 -574 1519 -624 b 1258 -562 1367 -624 1308 -600 b 1199 -579 1235 -544 1211 -556 b 1213 -640 1188 -600 1190 -622 b 1428 -710 1265 -683 1343 -710 b 1663 -507 1581 -710 1663 -622 l 1663 -499 b 1443 -279 1663 -392 1607 -332 b 1304 -157 1333 -246 1304 -218 l 1304 -154 b 1433 -46 1304 -97 1338 -46 b 1568 -90 1483 -46 1524 -57 b 1624 -75 1590 -106 1613 -96 b 1607 -14 1636 -51 1631 -31 b 1431 40 1558 24 1500 40 z "},"㎴":{"ha":1176,"x_min":0,"x_max":0,"o":"m -793 -253 b -985 -378 -872 -253 -946 -301 l -985 -304 b NaN NaN -985 -275 -1014 NaN l NaN NaN l NaN NaN l NaN NaN l NaN NaN b NaN NaN NaN NaN NaN NaN b NaN NaN NaN NaN NaN NaN z m NaN NaN b NaN NaN NaN NaN NaN NaN b NaN NaN NaN NaN NaN NaN l NaN NaN b NaN NaN NaN NaN NaN NaN z "},"㎵":{"ha":1174,"x_min":0,"x_max":0,"o":"m -775 -253 b -961 -369 -879 -253 -936 -312 b -794 -321 -961 -371 -894 -321 b -717 -346 -685 -321 -583 -285 l -717 -767 l -271 -767 b -479 -508 -271 -608 -335 -508 z "},"㎶":{"ha":1174,"x_min":0,"x_max":0,"o":"m -1022 -261 l -1022 -287 l -1044 -287 l -1044 -1211 l -1044 -1240 l -1024 -1240 l -1024 -1253 l -997 -1253 l -997 -1225 l -978 -1225 l -978 -925 b -846 -1003 -958 -969 -903 -1003 b -681 -896 -754 -1003 -700 -947 l -679 -896 l -679 -957 b -633 -997 -679 -985 -658 -997 b -589 -957 -610 -997 -589 -985 l -589 -301 b -635 -261 -589 -274 -610 -261 b -682 -301 -661 -261 -682 -274 l -682 -729 b -844 -914 -682 -812 -733 -914 b -978 -721 -936 -914 -978 -854 l -978 -301 b -1024 -261 -978 -274 -999 -261 z "},"㎷":{"ha":0,"x_min":0,"x_max":0,"o":"m 776 997 b 740 943 751 993 735 976 l 918 44 b 982 0 925 10 953 0 b 1044 44 1008 0 1036 10 l 1222 944 b 1189 997 1229 975 1215 993 b 1136 964 1163 1001 1142 993 l 983 131 l 832 963 b 776 997 826 993 804 1001 z m 293 744 "},"㎸":{"ha":422,"x_min":0,"x_max":0,"o":"m 1175 997 b 1118 967 1150 1003 1125 996 l 914 131 l 711 967 b 649 997 704 997 675 1003 b 617 939 624 990 608 971 l 849 44 b 913 0 857 11 883 0 b 975 44 939 0 965 11 l 1208 942 b 1175 997 1217 974 1200 992 l 1175 -6 l 1176 -6 l 1176 219 l 1265 325 l 1481 -29 b 1549 -35 1496 -54 1528 -51 b 1560 31 1568 -18 1576 6 l 1333 396 l 1511 608 b 1510 672 1531 632 1529 656 b 1443 669 1493 690 1461 692 l 1176 344 "},"㎹":{"ha":0,"x_min":0,"x_max":0,"o":"m 782 997 b 747 943 757 993 742 976 l 919 44 b 982 0 926 10 953 0 b 1042 44 1008 0 1035 10 l 1217 944 b 1183 997 1222 975 1210 993 b 1132 964 1157 1001 1136 993 l 983 131 l 836 963 b 782 997 831 993 810 1001 z m 164 997 l 151 997 b 86 915 104 997 86 975 l 86 40 b 131 0 86 13 107 0 b 175 40 157 0 175 13 l 175 872 b 210 717 185 810 196 768 l 336 207 b 393 165 344 174 363 165 b 446 206 419 165 439 174 l 574 717 b 606 872 586 768 596 810 l 606 40 b 650 0 606 13 624 0 b 694 40 675 0 694 13 l 694 915 b 629 997 694 975 676 997 l 617 997 b 543 926 578 997 558 983 l 393 290 l 238 926 b 164 997 221 986 203 997 z "},"㎀":{"ha":67,"x_min":0,"x_max":0,"o":"m 915 999 l 889 989 b 833 NaN 860 1003 840 1029 b 896 NaN 863 NaN 888 NaN l 964 NaN l 1232 NaN z m 678 NaN b 414 NaN 404 NaN 414 NaN b 288 NaN 414 NaN 336 NaN b 172 NaN 211 NaN 172 NaN l 172 NaN b NaN NaN 172 NaN 143 NaN l NaN NaN l NaN NaN b NaN NaN NaN NaN NaN NaN b NaN NaN NaN NaN NaN NaN z m NaN NaN b NaN NaN NaN NaN NaN NaN b NaN NaN NaN NaN NaN NaN l NaN NaN b NaN NaN NaN NaN NaN NaN z "},"㎁":{"ha":422,"x_min":0,"x_max":0,"o":"m 919 999 l 893 990 b 838 NaN 864 1003 844 1029 b 900 NaN 867 NaN 893 NaN l 968 NaN l 1236 NaN z m 676 NaN b 469 NaN 743 NaN 469 NaN b 403 NaN 469 NaN 464 NaN b 286 NaN 343 NaN 286 NaN l 283 NaN l 283 NaN b 238 NaN 283 NaN 263 NaN b 192 NaN 213 NaN 192 NaN l 192 NaN b 314 NaN 192 NaN 214 NaN b 393 NaN 425 NaN 526 NaN l 393 NaN b NaN NaN 393 NaN 417 NaN l NaN NaN b NaN NaN NaN NaN NaN NaN z "},"㎂":{"ha":0,"x_min":0,"x_max":0,"o":"m 921 999 l 893 990 l 864 1003 b 901 1032 844 1031 872 1025 b 954 1047 928 1032 935 1047 b 893 1057 946 1047 921 1057 z m 892 931 b 938 729 904 868 918 807 l 1004 451 l 778 451 l 847 729 b 892 931 868 810 879 864 l 892 144 l 753 144 l 753 171 l 781 171 l 781 190 l 1079 190 b 1214 114 1097 146 1154 114 "},"㎃":{"ha":0,"x_min":0,"x_max":0,"o":"m 924 999 b 863 954 896 999 871 989 l 628 58 b 660 3 621 29 633 10 b 722 33 688 -4 715 1 l 789 307 l 1053 307 l 1119 33 b 1183 3 1126 1 1156 -4 l 1210 3 l 1210 10 l 1225 10 l 1225 29 l 1218 29 l 1218 58 l 986 58 l 986 -167 l 1056 111 b 1099 313 1075 192 1086 246 z m 431 185 l 431 122 l 397 122 l 397 92 l 338 92 l 338 75 l -322 75 l -322 47 l -300 47 l -300 506 b -224 667 -300 600 -274 667 b -168 508 -178 667 -168 607 l -168 47 l -168 19 l -146 19 l -146 482 b -74 639 -146 568 -119 639 b -12 472 -21 639 -12 572 l -12 19 l -12 -8 l 10 -8 l 10 463 b -111 699 10 607 -26 699 b -235 593 -174 699 -217 661 b -329 699 -247 657 -281 699 z "},"㎄":{"ha":565,"x_min":0,"x_max":0,"o":"b 175 1424 0 425 149 1424 b 213 NaN 200 1424 213 1453 l 213 NaN l 300 NaN l 507 NaN b 575 NaN 522 NaN 554 NaN b 586 NaN 594 NaN 601 NaN l 368 NaN l 547 NaN b 546 NaN 565 NaN 564 NaN b 479 NaN 528 NaN 497 NaN l 213 NaN m 990 NaN b 929 NaN 963 NaN 938 NaN l 692 NaN l 685 NaN l 697 NaN b 725 NaN 724 NaN 718 NaN l 751 NaN l 751 NaN l 767 NaN l 767 NaN l 760 NaN l 760 NaN l 525 NaN l 525 NaN l 596 NaN b 639 NaN 615 NaN 626 NaN z "},"㎺":{"ha":0,"x_min":0,"x_max":0,"o":"m -565 -254 b -721 -372 -640 -254 -694 -304 l -721 -306 b -767 -265 -721 -276 -743 -265 b -812 -306 -790 -265 -812 -276 l -812 -1226 l -812 -1256 l -790 -1256 l -790 -1268 l -765 -1268 l -765 -1243 l -743 -1243 l -743 -929 b -599 -1021 -710 -993 -656 -1021 b -383 -676 -457 -1021 -383 -910 l -383 -615 b -590 -271 -383 -383 -444 -271 z m -604 -360 b -478 -622 -510 -360 -478 -432 l -478 -672 b -606 -933 -478 -861 -521 -933 b -744 -767 -693 -933 -744 -858 l -744 -569 b -604 -360 -744 -439 -674 -360 z "},"㎻":{"ha":0,"x_min":0,"x_max":0,"o":"m -561 -254 b -710 -360 -651 -254 -692 -307 l -711 -360 l -711 -301 b -754 -265 -711 -274 -731 -265 b -797 -301 -778 -265 -797 -274 l -797 -960 b -751 -999 -797 -987 -775 -999 b -704 -960 -725 -999 -704 -987 l -704 -515 b -582 -344 -704 -437 -671 -344 b -482 -524 -501 -344 -482 -404 l -482 -960 l -482 -987 l -460 -987 l -460 -999 l -435 -999 l -435 -540 b -608 -293 -435 -394 -475 -293 z "},"㎼":{"ha":0,"x_min":0,"x_max":0,"o":""},"㎽":{"ha":424,"x_min":0,"x_max":0,"o":"m 904 999 b 843 947 874 999 847 985 l 743 921 l 739 906 l 725 910 l 692 1017 l 790 1832 l 886 1017 b 931 1058 917 1017 931 1054 b 1003 947 1042 1032 1035 1029 l 181 NaN l 81 NaN b 18 NaN 75 NaN 47 NaN l 18 NaN l -236 NaN l -236 NaN l -214 NaN l -214 NaN l -169 NaN l -169 NaN l -147 NaN l -147 NaN l -76 NaN l -76 NaN l -25 NaN l -25 NaN l -36 NaN l -36 NaN l -14 NaN l -14 NaN b -131 NaN -14 NaN -47 NaN b -249 NaN -192 NaN -229 NaN b -343 NaN -260 NaN -296 NaN z "},"㎾":{"ha":0,"x_min":0,"x_max":0,"o":"m 903 999 b 840 947 872 999 844 985 b 800 933 740 947 772 933 b 864 985 829 933 861 947 l 963 1800 l 1058 985 b 1122 933 1063 947 1094 933 b 1186 985 1150 933 1182 947 b 1257 874 1296 960 1289 956 l 435 NaN l 335 NaN b 274 NaN 329 NaN 303 NaN z m -507 NaN l -507 NaN l -289 NaN l -201 NaN l 1 NaN b 69 NaN 17 NaN 49 NaN b 81 NaN 89 NaN 97 NaN l -137 NaN l 42 NaN b 40 NaN 61 NaN 58 NaN b -26 NaN 22 NaN -8 NaN l -289 NaN "},"㎿":{"ha":424,"x_min":0,"x_max":0,"o":"m 907 999 b 846 947 876 999 850 985 l 746 136 l 667 961 b 613 997 664 994 639 1001 b 576 946 589 993 574 979 l 683 51 b 746 0 688 15 718 0 b 808 51 774 0 804 15 l 907 867 l 1003 51 b 1064 0 1007 15 1036 0 b 1125 51 1092 0 1121 15 b 1197 -57 1236 28 1229 24 l 372 NaN l 271 NaN b 211 NaN 267 NaN 240 NaN z m -576 NaN l -589 NaN b -650 NaN -635 NaN -650 NaN l -650 NaN b -610 NaN -650 NaN -629 NaN b -568 NaN -587 NaN -568 NaN l -568 NaN b -540 NaN -560 NaN -551 NaN l -453 NaN b -401 NaN -449 NaN -431 NaN b -353 NaN -376 NaN -358 NaN l -267 NaN b -237 NaN -257 NaN -244 NaN l -237 NaN b -197 NaN -237 NaN -219 NaN b -157 NaN -176 NaN -157 NaN l -157 NaN b -218 NaN -157 NaN -172 NaN l -231 NaN b -294 NaN -267 NaN -287 NaN l -400 NaN l -512 NaN b -576 NaN -519 NaN -540 NaN z "},"㎐":{"ha":29,"x_min":0,"x_max":0,"o":"l 0 185 l 999 185 l 999 622 l 1311 622 l 1311 185 l 1311 156 l 1335 156 l 1335 1071 m 2264 800 l 2242 800 l 2242 813 l 2214 813 l 2214 422 l 1901 422 l 1901 813 l 1565 813 l 1565 1096 l 1263 575 b 1226 497 1238 533 1226 518 b 1286 458 1226 475 1240 458 l 1676 458 l 1349 458 l 1650 975 b 1683 1053 1676 1019 1683 1035 b 1618 1096 1683 1085 1657 1096 z "},"㎑":{"ha":26,"x_min":0,"x_max":0,"o":"m 106 999 b 58 960 81 999 58 986 l 58 39 b 106 0 58 13 81 0 b 153 39 132 0 153 13 l 153 260 l 207 349 l 339 25 b 403 7 350 -1 381 -4 b 424 64 424 17 433 39 l 265 438 l 403 665 b 390 726 419 692 408 715 b 328 714 369 738 342 739 l 153 410 l 153 960 z m 578 960 b 1165 746 578 939 771 746 z m 1810 475 l 1589 475 b 1554 435 1565 475 1554 458 b 1589 394 1554 411 1565 394 l 1761 394 l 1563 -131 b 1539 -208 1546 -176 1539 -194 b 1594 -247 1539 -231 1549 -247 l 1846 -247 l 1846 -450 "},"㎒":{"ha":425,"x_min":0,"x_max":0,"o":"m 119 997 l 108 997 b 47 915 61 997 47 975 l 47 33 b 86 0 47 10 67 0 b 126 33 108 0 126 10 l 126 882 b 149 690 132 815 140 744 l 219 210 b 272 165 224 181 242 165 b 321 208 299 165 318 181 l 394 690 b 415 871 403 746 411 810 l 415 33 b 454 0 415 10 433 0 b 494 33 475 0 494 10 l 494 915 b 432 997 494 975 481 997 l 422 997 b 358 929 383 997 365 988 z m 843 931 b 708 900 758 931 735 911 l 708 -24 b 751 -61 708 -50 728 -61 b 794 -24 775 -61 794 -50 l 794 419 l 951 419 l 951 -24 b 994 -61 951 -50 972 -61 b 1039 -24 1018 -61 1039 -50 l 1039 900 b 994 938 1039 926 1018 938 b 951 900 972 938 951 926 l 951 504 l 794 504 l 794 900 b 751 938 794 926 775 938 l 1339 938 l 1339 667 l 1579 667 l 1579 475 "},"㎓":{"ha":0,"x_min":0,"x_max":0,"o":"b 308 413 0 422 282 413 b 340 NaN 329 413 340 440 l 340 NaN l 518 NaN l 518 NaN l 913 NaN b 865 NaN 913 NaN 892 NaN l 1485 NaN l 1485 NaN l 1724 NaN l 1724 NaN "},"㎔":{"ha":0,"x_min":0,"x_max":0,"o":"m 535 999 l 535 1186 l 93 1186 b 139 1147 93 1158 115 1147 b 1481 565 165 1147 1086 753 z m 1360 560 l 1013 560 b 1013 NaN 986 560 1013 NaN l 1139 NaN l 1139 NaN b 1185 NaN 1139 NaN 1161 NaN b 1233 NaN 1211 NaN 1233 NaN l 2099 NaN l 2099 NaN l 2850 NaN l 2850 NaN l 3092 NaN l 3092 NaN "},"Ω":{"ha":0,"x_min":0,"x_max":0,"o":"m 631 1008 b 218 538 353 1008 218 843 l 218 472 b 396 94 218 269 292 154 l 157 94 b 121 51 133 94 121 74 b 157 6 121 26 133 6 l 471 6 b 522 54 508 6 522 28 b 488 115 522 89 510 101 b 321 486 371 189 321 279 l 321 526 b 631 915 321 789 421 915 b 942 526 842 915 942 789 l 942 486 b 775 115 942 279 890 189 b 739 54 753 101 739 89 b 792 6 739 28 753 6 l 1107 6 b 1143 51 1131 6 1143 26 b 1107 94 1143 74 1131 94 l 869 94 b 1044 472 969 156 1044 269 l 1044 538 b 631 1008 1044 847 903 1008 z "},"㏀":{"ha":0,"x_min":0,"x_max":0,"o":"m 1206 88 l 1033 88 b 1157 472 1115 149 1157 269 l 1157 538 b 872 1008 1157 847 1088 1008 b 588 538 657 1008 588 847 l 588 472 b 711 88 588 269 629 149 l 539 88 b 517 81 529 88 522 85 l 304 440 l 472 657 b 468 722 490 682 486 707 b 401 715 449 739 418 738 l 160 392 l 160 957 l -756 957 l -756 1176 l -675 1279 l -475 935 b -408 928 -460 910 -429 911 b -403 933 -407 929 -404 931 b -376 921 -397 925 -389 921 l -142 921 b -89 968 -103 921 -89 940 b -125 1025 -89 997 -106 1010 b -232 1401 -210 1096 -232 1194 l -232 1442 b -43 1836 -232 1704 -199 1836 b 146 1442 113 1836 146 1704 l 146 1401 b 39 1025 146 1194 128 1096 b 3 968 18 1010 3 997 b 56 921 3 940 17 921 l 290 921 b 325 963 314 921 325 938 b 290 1003 325 986 314 1003 z "},"㏁":{"ha":0,"x_min":0,"x_max":0,"o":"m 919 1008 b 646 538 713 1008 646 847 l 646 472 b 767 85 646 269 686 147 l 601 85 b 567 46 579 85 567 69 b 601 6 567 21 579 6 l 831 6 b 882 51 868 6 882 25 b 847 107 882 82 867 92 b 740 486 763 178 740 279 l 740 526 b 919 924 740 789 774 924 b 1103 526 1065 924 1103 789 l 1103 486 b 996 107 1103 279 1085 178 b 960 51 975 93 960 82 b 1013 6 960 25 974 6 l 1236 6 b 1271 46 1260 6 1271 21 b 1236 85 1271 69 1260 85 l 1075 85 b 1197 472 1157 147 1197 269 l 1197 538 b 919 1008 1197 847 1125 1008 z m 121 997 l 104 997 b 42 915 57 997 42 975 l 42 35 b 82 0 42 10 61 0 b 125 35 106 0 125 10 l 125 879 b 154 679 132 817 143 736 l 247 210 b 300 165 253 181 271 165 b 350 208 328 165 344 181 l 443 679 b 471 879 454 736 464 818 l 471 35 b 511 0 471 10 490 0 b 553 35 533 0 553 10 l 553 915 b 493 997 553 975 540 997 l 476 997 b 413 919 438 997 421 979 l 301 294 l 186 921 b 121 997 176 981 160 997 z "},"㎊":{"ha":0,"x_min":0,"x_max":0,"o":"m -783 -249 b -975 -376 -876 -249 -942 -306 l -975 -300 b NaN NaN -975 -271 -1004 NaN l NaN NaN l NaN NaN b NaN NaN NaN NaN NaN NaN b NaN NaN NaN NaN NaN NaN z m NaN NaN b NaN NaN NaN NaN NaN NaN b NaN NaN NaN NaN NaN NaN l NaN NaN b NaN NaN NaN NaN NaN NaN z "},"㎋":{"ha":0,"x_min":0,"x_max":0,"o":"m -789 -249 b -978 -362 -893 -249 -953 -308 l -979 -362 l -979 -299 b -1025 -260 -979 -271 -1001 -260 b -1072 -299 -1050 -260 -1072 -271 l -1072 -953 b -949 -932 -1072 -982 -1049 -932 b -869 -956 -837 -932 -736 -894 l -869 -1376 l -424 -1376 b -633 -1118 -424 -1218 -490 -1118 z "},"㎌":{"ha":0,"x_min":0,"x_max":0,"o":"l 0 -1018 l -260 -1018 l -260 -993 l -232 -993 l -232 -974 l 68 -974 b 203 -1051 88 -1018 146 -1051 b 368 -949 292 -1051 349 -1000 l 369 -949 l 369 -1008 b 415 -1046 369 -1033 390 -1046 b 460 -1006 439 -1046 460 -1033 l 460 -353 b 414 -312 460 -325 439 -312 b 367 -353 388 -312 367 -325 l 367 -778 b 204 -962 367 -857 317 -962 b 68 -769 111 -962 68 -899 l 68 -353 b 22 -312 68 -325 47 -312 "},"㏖":{"ha":0,"x_min":0,"x_max":0,"o":"l 0 1161 l 999 1161 l 999 2082 b 953 2121 999 2110 976 2121 m 42 1867 l 42 1804 l 10 1804 l 10 1774 l -50 1774 l -50 1756 l -28 1756 l -28 2213 l -28 2307 l -3 2307 l -3 2374 l 49 2374 l 49 2418 l 60 2418 l 60 2440 l 82 2440 l 82 2511 l 128 2511 l 128 2564 l 149 2564 l 149 2553 l 172 2553 l 172 2575 l 642 2575 b 525 2811 642 2719 610 2811 b 406 2706 463 2811 425 2774 b 311 2811 394 2769 360 2811 z m 911 2811 b 715 2465 761 2811 715 2693 l 715 2406 b 911 2061 715 2179 761 2061 b 1108 2406 1061 2061 1108 2179 l 1108 2465 b 911 2811 1108 2693 1061 2811 z m 911 2731 b 1015 2461 993 2731 1015 2654 l 1015 2411 b 911 2142 1015 2218 993 2142 b 807 2411 831 2142 807 2218 l 807 2461 b 911 2731 807 2654 831 2731 z "},"㏅":{"ha":3,"x_min":0,"x_max":0,"o":"l 0 1106 l 999 1106 l 999 794 b 817 893 965 851 901 893 b 601 807 817 726 719 807 b 864 914 774 807 864 874 b NaN NaN 864 988 901 NaN m NaN NaN b NaN NaN NaN NaN NaN NaN b NaN NaN NaN NaN NaN NaN b NaN NaN NaN NaN NaN NaN b NaN NaN NaN NaN NaN NaN b NaN NaN NaN NaN NaN NaN b NaN NaN NaN NaN NaN NaN b NaN NaN NaN NaN NaN NaN b NaN NaN NaN NaN NaN NaN b NaN NaN NaN NaN NaN NaN b NaN NaN NaN NaN NaN NaN b NaN NaN NaN NaN NaN NaN b NaN NaN NaN NaN NaN NaN z m NaN NaN b NaN NaN NaN NaN NaN NaN b NaN NaN NaN NaN NaN NaN b NaN NaN NaN NaN NaN NaN z "},"㎭":{"ha":0,"x_min":0,"x_max":0,"o":"m 1133 1010 b 1092 975 1111 1010 1092 999 l 1092 672 b 981 744 1076 707 1043 744 b 811 651 981 614 929 651 b 1003 717 947 651 1003 694 b NaN NaN 1003 774 1021 NaN l NaN NaN l NaN NaN b NaN NaN NaN NaN NaN NaN b NaN NaN NaN NaN NaN NaN l NaN NaN b NaN NaN NaN NaN NaN NaN z m NaN NaN b NaN NaN NaN NaN NaN NaN l NaN NaN l NaN NaN b NaN NaN NaN NaN NaN NaN b NaN NaN NaN NaN NaN NaN l NaN NaN b NaN NaN NaN NaN NaN NaN b NaN NaN NaN NaN NaN NaN l NaN NaN b NaN NaN NaN NaN NaN NaN b NaN NaN NaN NaN NaN NaN b NaN NaN NaN NaN NaN NaN b NaN NaN NaN NaN NaN NaN b NaN NaN NaN NaN NaN NaN z m NaN NaN b NaN NaN NaN NaN NaN NaN b NaN NaN NaN NaN NaN NaN b NaN NaN NaN NaN NaN NaN b NaN NaN NaN NaN NaN NaN b NaN NaN NaN NaN NaN NaN l NaN NaN l NaN NaN b NaN NaN NaN NaN NaN NaN l NaN NaN b NaN NaN NaN NaN NaN NaN b NaN NaN NaN NaN NaN NaN b NaN NaN NaN NaN NaN NaN l NaN NaN l NaN NaN b NaN NaN NaN NaN NaN NaN b NaN NaN NaN NaN NaN NaN l NaN NaN b NaN NaN NaN NaN NaN NaN z m NaN NaN b NaN NaN NaN NaN NaN NaN b NaN NaN NaN NaN NaN NaN b NaN NaN NaN NaN NaN NaN z m NaN NaN l NaN NaN l NaN NaN b NaN NaN NaN NaN NaN NaN b NaN NaN NaN NaN NaN NaN b NaN NaN NaN NaN NaN NaN l NaN NaN b NaN NaN NaN NaN NaN NaN z "},"㎮":{"ha":0,"x_min":0,"x_max":0,"o":""},"㎯":{"ha":424,"x_min":0,"x_max":0,"o":"m 1236 867 l 1125 867 l 1206 956 b 1246 1044 1233 986 1246 1013 b 1147 1131 1246 1094 1213 1131 b 1053 1076 1104 1131 1069 1107 b 1061 1043 1044 1064 1050 1050 b 1094 1049 1074 1033 1088 1038 b 1149 1081 1108 1068 1125 1081 b 1193 1044 1178 1081 1193 1064 b 1161 983 1193 1026 1188 1011 l 1054 867 b 1044 843 1047 858 1044 851 b 1078 818 1044 826 1054 818 l 1236 818 b 1258 843 1251 818 1258 828 b 1236 867 1258 856 1251 867 "},"㏛":{"ha":0,"x_min":0,"x_max":0,"o":"m 446 744 z m 1038 744 b 885 603 950 744 903 676 l 882 603 l 882 693 b NaN NaN 882 722 853 NaN l NaN NaN l NaN NaN l NaN NaN l NaN NaN b NaN NaN NaN NaN NaN NaN b NaN NaN NaN NaN NaN NaN b NaN NaN NaN NaN NaN NaN b NaN NaN NaN NaN NaN NaN b NaN NaN NaN NaN NaN NaN z "},"㎩":{"ha":0,"x_min":0,"x_max":0,"o":"m 386 993 l 251 993 b 157 901 181 993 157 971 l 157 42 l 511 42 l 511 169 b 806 460 718 169 806 281 l 806 482 b 514 767 806 660 724 767 z m 383 258 l 383 678 l 514 678 b 706 481 663 678 706 607 l 706 463 b 501 258 706 331 663 258 z m 1057 518 b 875 444 988 518 924 490 b 867 388 857 428 854 407 b 924 372 879 367 903 356 b 1054 428 969 411 1008 428 b 1175 257 1147 428 1175 378 l 1175 206 l 1029 206 b 824 -3 874 206 824 115 l 824 -18 b 1021 -232 824 -147 892 -232 b 1128 -200 1075 -232 1103 -219 b 1178 -132 1147 -185 1165 -160 l 1179 -132 l 1179 -189 b 1225 -226 1179 -217 1206 -226 b 1272 -189 1246 -226 1272 -215 l 1272 278 b 1057 518 1272 425 1199 518 z m 1036 125 l 1176 125 l 1176 18 b 1113 -118 1176 -46 1147 -92 b 1026 -147 1088 -139 1064 -147 b 922 -15 947 -147 922 -97 l 922 -6 b 1036 125 922 68 938 125 z "},"㎪":{"ha":425,"x_min":0,"x_max":0,"o":"m 110 999 b 64 960 85 999 64 986 l 64 39 b 110 0 64 13 85 0 b 156 39 136 0 156 13 l 156 260 l 211 361 l 342 26 b 400 4 351 0 376 -4 b 422 61 421 13 432 33 l 268 450 l 392 672 b 374 728 406 699 393 718 b 317 711 354 738 329 738 l 156 410 l 156 960 z m 678 954 l 678 981 l 658 981 l 658 911 l -203 911 b -157 871 -203 883 -182 871 b -108 911 -131 871 -108 883 l -108 1267 l -43 1267 b 192 1557 132 1267 192 1378 l 192 1579 b -40 1864 192 1757 138 1864 z m -108 1356 l -108 1776 l -44 1776 b 97 1578 76 1776 97 1704 l 97 1560 b -57 1356 97 1428 76 1356 z m 378 1615 b 243 1543 324 1615 271 1583 b 243 1485 226 1524 229 1501 b 301 1483 261 1467 285 1464 b 378 1528 328 1515 351 1528 b 449 1364 439 1528 449 1481 l 449 1303 l 367 1303 b 194 1094 244 1303 194 1213 l 194 1079 b 338 865 194 944 238 865 b 421 896 383 865 403 878 b 451 946 432 907 443 924 l 453 946 l 453 908 b 497 871 453 882 474 871 b 542 908 521 871 542 882 l 542 1375 b 378 1615 542 1522 508 1615 z m 375 1222 l 450 1222 l 450 1103 b 410 976 450 1049 438 1004 b 350 950 392 960 375 950 b 289 1078 307 950 289 1000 l 289 1092 b 375 1222 289 1167 306 1222 z "},"㎫":{"ha":-86,"x_min":0,"x_max":0,"o":"m 118 997 l 108 997 b 46 915 60 997 46 975 l 46 33 b 86 0 46 10 65 0 b 126 33 107 0 126 10 l 126 882 b 147 692 132 815 140 744 l 218 210 b 271 165 222 181 242 165 b 321 208 299 165 317 181 l 393 692 b 415 882 401 746 410 815 l 415 33 b 454 0 415 10 433 0 b 493 33 475 0 493 10 l 493 915 b 432 997 493 975 479 997 l 421 997 b 358 929 382 997 364 988 z m 929 925 l 883 925 b 794 833 813 925 794 903 l 794 -29 b 839 -68 794 -57 815 -68 b 885 -29 864 -68 885 -57 l 885 328 l 926 328 b 1140 618 1083 328 1140 439 l 1140 640 b 929 925 1140 818 1090 925 z m 885 414 l 885 838 l 929 838 b 1050 639 1035 838 1050 765 l 1050 618 b 918 414 1050 485 1033 414 "},"㎬":{"ha":0,"x_min":0,"x_max":0,"o":"m 396 -15 l 342 -15 b 253 -101 275 -15 253 -36 l 253 -969 b 296 -1008 253 -997 272 -1008 b 342 -969 322 -1008 342 -997 l 342 -612 l 397 -612 b 607 -322 550 -612 607 -501 l 607 -300 b 396 -15 607 -122 550 -15 z m 342 -524 l 342 -103 l 396 -103 b 517 -301 494 -103 517 -175 l 517 -319 b 383 -524 517 -451 494 -524 "},"㏝":{"ha":422,"x_min":0,"x_max":0,"o":"m 354 999 b 292 947 324 999 296 985 b 253 933 193 947 224 933 b 317 985 281 933 313 947 l 415 1800 l 511 985 b 574 933 514 947 544 933 b 636 985 601 933 632 947 b 707 874 746 960 739 956 l -115 NaN l -214 NaN b -275 NaN -218 NaN -246 NaN z m 135 NaN b -760 NaN 135 NaN -782 NaN b -719 NaN -747 NaN -719 NaN l -719 NaN l -717 NaN b -550 NaN -682 NaN -618 NaN b -342 NaN -550 NaN -460 NaN b -589 NaN -507 NaN -589 NaN b NaN NaN -589 NaN -624 NaN z m NaN NaN b NaN NaN NaN NaN NaN NaN b NaN NaN NaN NaN NaN NaN b NaN NaN NaN NaN NaN NaN l NaN NaN b NaN NaN NaN NaN NaN NaN z "},"㏐":{"ha":267,"x_min":0,"x_max":0,"o":"m 401 -254 "},"㏓":{"ha":353,"x_min":0,"x_max":0,"o":"m 642 -274 b 576 -286 619 -258 592 -262 l 421 -558 l 265 -286 b 199 -274 250 -262 221 -258 b 183 -336 176 -287 168 -312 l 358 -625 l 165 -928 b 178 -990 150 -951 157 -976 b 243 -976 200 -1003 226 -1001 l 417 -687 l 590 -976 b 656 -990 607 -1001 635 -1003 b 669 -928 678 -976 685 -951 l 483 -622 l 656 -336 b 642 -274 671 -312 664 -287 z "},"㏃":{"ha":0,"x_min":0,"x_max":0,"o":"m 296 993 l 185 993 l 185 1126 b 467 1390 400 1126 467 1235 l 467 1418 b 282 1646 467 1558 396 1633 b 421 1847 383 1672 421 1757 l 421 1869 b 163 2114 421 2035 357 2114 z m 53 1685 l 53 2028 l 154 2028 b 322 1867 294 2028 322 1969 l 322 1847 b 153 1685 322 1744 268 1685 z m 783 1865 b 528 1519 633 1865 528 1751 l 528 1460 b 774 1115 528 1229 621 1115 b 964 1228 865 1115 931 1160 l 965 1228 l 965 892 b 1013 851 965 864 988 851 b 1060 892 1038 851 1060 864 l 1060 1814 b 1014 1854 1060 1843 1039 1854 b 967 1814 989 1854 967 1843 l 967 1768 l 965 1768 b 783 1865 932 1826 867 1865 z m 792 1776 b 772 1801 792 1889 854 1801 b 765 1814 682 1801 579 1738 l 765 1863 b 935 2125 765 2044 838 2125 z m 196 1561 l 196 1949 l 297 1949 b 510 1769 458 1949 510 1878 l 510 1744 b 331 1561 510 1621 463 1561 z "},"㏉":{"ha":422,"x_min":0,"x_max":0,"o":"m 403 1008 b 164 865 403 782 321 865 b 472 947 386 865 472 921 b NaN NaN 472 976 515 NaN b NaN NaN NaN NaN NaN NaN l NaN NaN l NaN NaN l NaN NaN l NaN NaN b NaN NaN NaN NaN NaN NaN b NaN NaN NaN NaN NaN NaN b NaN NaN NaN NaN NaN NaN b NaN NaN NaN NaN NaN NaN b NaN NaN NaN NaN NaN NaN b NaN NaN NaN NaN NaN NaN b NaN NaN NaN NaN NaN NaN z m NaN NaN b NaN NaN NaN NaN NaN NaN l NaN NaN l NaN NaN l NaN NaN b NaN NaN NaN NaN NaN NaN b NaN NaN NaN NaN NaN NaN l NaN NaN l NaN NaN b NaN NaN NaN NaN NaN NaN b NaN NaN NaN NaN NaN NaN l NaN NaN b NaN NaN NaN NaN NaN NaN z "},"㏜":{"ha":426,"x_min":0,"x_max":0,"o":"m 383 1008 b 94 753 206 1008 94 904 l 94 729 b 360 465 94 578 181 513 b 582 272 542 414 582 371 l 582 253 b 382 83 582 156 510 83 b 151 163 281 83 228 114 b 89 146 126 176 104 171 b 103 79 74 122 78 94 b 376 -10 182 28 260 -10 b 683 257 571 -10 683 97 l 683 282 b 388 558 683 424 619 496 b 196 735 236 600 196 649 l 196 753 b 386 917 196 847 269 917 b 571 864 468 917 511 897 b 522 886 594 864 583 886 b NaN NaN 546 886 442 NaN z m NaN NaN b NaN NaN NaN NaN NaN NaN l NaN NaN l NaN NaN b NaN NaN NaN NaN NaN NaN b NaN NaN NaN NaN NaN NaN l NaN NaN b NaN NaN NaN NaN NaN NaN b NaN NaN NaN NaN NaN NaN l NaN NaN b NaN NaN NaN NaN NaN NaN z "},"㏆":{"ha":422,"x_min":0,"x_max":0,"o":"m 517 1086 b 478 1061 497 1088 482 1081 l 371 567 b 361 585 369 572 365 579 b 307 589 350 599 324 608 b 222 536 281 558 251 536 b 103 768 142 536 103 597 l 103 789 b 224 1021 103 963 143 1021 b 297 976 246 1021 272 1008 b 353 979 311 960 335 960 b 353 1038 368 994 367 1018 b 224 1106 322 1081 271 1106 b 17 793 89 1106 17 1017 l 17 764 b 221 451 17 540 88 451 b 356 517 272 451 319 474 b 361 525 358 519 360 522 l 222 -118 b 253 -150 218 -137 232 -149 b 290 -125 272 -151 286 -144 l 547 1054 b 517 1086 551 1074 538 1085 z m 756 451 l 875 676 b 857 728 889 701 875 719 b 803 711 839 736 814 736 l 651 413 b 618 917 651 963 629 942 l 618 -10 b 661 -46 618 -35 639 -46 b 704 -10 685 -46 704 -35 l 704 219 l 753 314 l 860 -18 b 915 -42 867 -44 890 -50 b 940 13 938 -36 949 -15 z m 1249 688 b 1208 653 1228 688 1208 678 l 1208 624 l 1207 624 b 1107 699 1190 678 1150 699 b 939 358 974 699 939 585 l 939 307 b 1096 -32 939 86 958 -32 b 1200 38 1129 -32 1176 -19 l 1201 38 l 1201 -26 b 1108 -237 1201 -181 1174 -237 b 1018 -192 1068 -237 1042 -219 b 963 -197 1000 -172 978 -178 b 965 -257 947 -217 950 -239 b 1110 -325 994 -294 1046 -325 b 1290 -26 1226 -326 1290 -240 l 1290 653 b 1249 688 1290 678 1271 688 z m 1206 250 b 1113 56 1206 119 1156 56 b 1025 313 1032 56 1025 139 l 1025 353 b 1115 610 1025 529 1046 610 b 1206 442 1188 610 1206 528 z "},"Æ":{"ha":518,"x_min":0,"x_max":0,"o":"m 1222 993 l 708 993 b 590 932 640 993 621 979 l 31 74 b 44 8 14 49 22 22 b 113 21 68 -7 97 -6 l 296 307 l 656 307 l 656 97 b 750 6 656 28 679 6 l 1232 6 b 1232 NaN 1257 6 1232 NaN z m 665 NaN l 665 NaN l 1042 NaN l 1042 NaN l 604 NaN l 604 NaN l 1069 NaN l 1069 NaN l 765 NaN l 946 NaN b 1069 NaN 999 NaN 1035 NaN z "},"Ð":{"ha":125,"x_min":0,"x_max":0,"o":"m 465 993 l 465 769 l 121 769 l 121 675 b 90 636 100 675 90 658 b 121 599 90 615 100 599 l 215 599 l 215 215 b 310 124 215 146 239 124 l 533 124 b 950 565 799 124 950 275 l 950 669 b 533 1111 950 960 811 1111 z m 317 675 l 317 1022 l 522 1022 b 847 660 753 1022 847 901 l 847 571 b 522 213 847 332 735 213 l 317 213 l 317 599 l 579 599 b 610 636 600 599 610 615 b 579 675 610 658 600 675 z "},"ª":{"ha":-225,"x_min":0,"x_max":0,"o":"m 317 1039 b 117 978 240 1039 171 1014 b 107 922 97 963 96 940 b 158 907 119 903 138 894 b 314 956 208 938 257 956 b 451 825 407 956 451 913 l 451 782 l 289 782 b 72 611 142 782 72 714 l 72 592 b 267 414 72 479 150 414 b 386 438 310 414 354 422 b 454 501 419 454 443 476 l 456 501 l 456 453 b 500 419 457 429 478 419 b 543 453 519 419 543 429 l 543 843 b 317 1039 543 968 454 1039 z m 293 707 l 451 707 l 451 617 b 390 521 451 576 429 543 b 282 493 363 506 324 493 b 164 594 222 493 164 524 l 164 604 b 293 707 164 667 197 707 z "},"Ħ":{"ha":0,"x_min":0,"x_max":0,"o":"l 0 129 l 179 129 l 179 -37 l 103 -37 b 72 -75 82 -37 72 -54 b 103 -112 72 -94 82 -112 l 179 -112 l 179 -786 l 179 -758 l 586 -758 l 586 -246 l 179 -246 l 179 -218 l 853 -218 l 853 -144 b 882 -107 872 -144 882 -126 b 853 -69 882 -86 872 -69 l 779 -69 l 779 97 b 726 139 779 126 754 139 b 676 97 701 139 676 126 l 676 -69 l 164 -69 l 164 97 b 111 139 164 126 139 139 m 164 -325 l 164 -144 l 676 -144 l 676 -325 z "},"Ĳ":{"ha":143,"x_min":0,"x_max":0,"o":"m 631 0 l 631 178 l -40 178 b -208 -24 -40 38 -96 -24 b -360 21 -269 -24 -317 -7 b -421 4 -385 35 -407 28 b -410 -61 -435 -19 -432 -46 b -207 -118 -358 -94 -286 -118 b 61 158 -33 -118 61 -28 "},"Ŀ":{"ha":-465,"x_min":0,"x_max":0,"o":"l -78 0 l -78 474 m 324 94 b 1232 163 1186 94 1232 128 b 1310 128 1232 207 1275 174 z "},"Ł":{"ha":0,"x_min":0,"x_max":0,"o":"l 0 -26 l 229 -26 l 229 -514 l 86 -594 b 78 -643 69 -604 67 -626 b 124 -660 89 -662 106 -669 l 229 -599 l -58 -599 l -58 -125 l -524 -125 l -524 224 l -242 383 b -233 432 -225 393 -224 417 b -279 450 -243 451 -261 460 l -524 308 "},"Ø":{"ha":144,"x_min":0,"x_max":0,"o":"m 493 1008 b 381 617 493 744 357 617 b 322 NaN 276 617 322 540 l 244 NaN b 251 NaN 229 NaN 233 NaN b 304 NaN 268 NaN 288 NaN l 371 NaN b 653 NaN 436 NaN 531 NaN b 1053 NaN 918 NaN 1053 NaN l 1053 NaN b 983 NaN 1053 NaN 1029 NaN l 1063 NaN b 1056 NaN 1078 NaN 1074 NaN b 1003 NaN 1039 NaN 1018 NaN l 936 NaN b 653 NaN 869 NaN 775 NaN z m 653 NaN b 871 NaN 750 NaN 822 NaN l 394 NaN b 356 NaN 368 NaN 356 NaN z m 138 NaN l 614 NaN b 654 NaN 640 NaN 654 NaN l 654 NaN b 356 NaN 654 NaN 560 NaN b 138 NaN 258 NaN 186 NaN z "},"Œ":{"ha":531,"x_min":0,"x_max":0,"o":"m 1235 993 l 489 993 b 89 538 224 993 89 840 l 89 461 b 489 6 89 158 224 6 l 1244 6 b 1244 NaN 1269 6 1244 NaN z m 499 NaN l 22 NaN l 22 NaN l 461 NaN l 461 NaN l 811 NaN l 811 NaN l 989 NaN l 989 NaN l 811 NaN b 514 NaN 607 NaN 514 NaN l 514 NaN b 811 NaN 514 NaN 607 NaN z "},"º":{"ha":-196,"x_min":0,"x_max":0,"o":"m 324 1038 b 60 753 157 1038 60 936 l 60 699 b 324 415 60 518 157 415 b 589 699 490 415 589 518 l 589 753 b 324 1038 589 936 490 1038 z m 324 954 b 494 750 438 954 494 888 l 494 703 b 324 497 494 564 426 497 b 153 703 221 497 153 564 l 153 750 b 324 954 153 888 211 954 z "},"Þ":{"ha":-237,"x_min":0,"x_max":0,"o":"l 0 7 l 178 7 l 178 171 l 415 171 b 736 461 617 171 736 292 l 736 490 b 415 776 736 658 635 776 m 467 71 l 467 217 l 897 217 l 897 446 b 1125 246 1071 446 1125 357 l 1125 221 b 882 15 1125 101 1060 15 z "},"Ŧ":{"ha":-53,"x_min":0,"x_max":0,"o":"m 749 993 l 64 993 l 64 1285 l -294 1285 l -294 1104 b -326 1067 -317 1104 -326 1088 b -294 1029 -326 1046 -317 1029 l -114 1029 l -114 600 l -114 1029 l 71 1029 b 101 1067 92 1029 101 1046 b 71 1104 101 1088 92 1104 "},"Ŋ":{"ha":0,"x_min":0,"x_max":0,"o":"l 0 110 l 796 110 l 796 -714 b 821 -694 782 -714 821 -731 b 1535 -1119 821 -712 851 -1119 b 1460 -1207 1483 -1119 1460 -1142 l 1460 -2074 l 2292 -2074 b 2340 -2179 2304 -2112 2322 -2150 l 2817 -2974 l 2817 -3001 "},"㉠":{"ha":0,"x_min":0,"x_max":0,"o":""},"㉡":{"ha":0,"x_min":0,"x_max":0,"o":""},"㉢":{"ha":0,"x_min":0,"x_max":0,"o":""},"㉣":{"ha":0,"x_min":0,"x_max":0,"o":""},"㉤":{"ha":0,"x_min":0,"x_max":0,"o":""},"㉥":{"ha":0,"x_min":0,"x_max":0,"o":""},"㉦":{"ha":0,"x_min":0,"x_max":0,"o":"m 0 -249 "},"㉧":{"ha":0,"x_min":0,"x_max":0,"o":"m 0 -275 "},"㉨":{"ha":0,"x_min":0,"x_max":0,"o":""},"㉩":{"ha":0,"x_min":0,"x_max":0,"o":"m 0 -217 "},"㉪":{"ha":0,"x_min":0,"x_max":0,"o":""},"㉫":{"ha":0,"x_min":0,"x_max":0,"o":""},"㉬":{"ha":0,"x_min":0,"x_max":0,"o":""},"㉭":{"ha":0,"x_min":0,"x_max":0,"o":"m 0 -211 "},"㉮":{"ha":0,"x_min":0,"x_max":0,"o":"l 0 -221 l -19 -221 l -19 -240 l -83 -240 b -324 -497 -83 -337 -115 -367 b -331 -544 -342 -507 -340 -529 b -285 -556 -321 -558 -303 -567 b -12 -242 -68 -422 -12 -368 "},"㉯":{"ha":0,"x_min":0,"x_max":0,"o":"m -436 -46 b -474 -78 -456 -46 -474 -54 l -474 -426 b -414 -485 -474 -471 -458 -485 b -100 -467 -272 -485 -178 -481 b -76 -428 -79 -462 -74 -446 b -108 -401 -79 -410 -90 -399 l -108 -415 l -189 -415 l -189 -515 l -193 -515 l -193 -617 l 139 -617 b 103 -585 139 -593 121 -585 z "},"㉰":{"ha":0,"x_min":0,"x_max":0,"o":"l 0 -165 l -51 -165 l -51 -483 b 10 -543 -51 -528 -35 -543 b 325 -525 146 -543 251 -536 b 347 -487 343 -522 351 -507 b 315 -461 344 -468 335 -458 l 315 -472 l 225 -472 l 225 -560 l 219 -560 l 219 -667 l 504 -667 b 524 -661 524 -667 543 -675 "},"㉱":{"ha":24,"x_min":0,"x_max":0,"o":"b NaN NaN -24 0 NaN NaN l NaN NaN b NaN NaN NaN NaN NaN NaN l NaN NaN l NaN NaN m NaN NaN l NaN NaN l NaN NaN b NaN NaN NaN NaN NaN NaN b NaN NaN NaN NaN NaN NaN l NaN NaN b NaN NaN NaN NaN NaN NaN l NaN NaN b NaN NaN NaN NaN NaN NaN l NaN NaN l NaN NaN b NaN NaN NaN NaN NaN NaN b NaN NaN NaN NaN NaN NaN b NaN NaN NaN NaN NaN NaN b NaN NaN NaN NaN NaN NaN l NaN NaN l NaN NaN l NaN NaN l NaN NaN l NaN NaN l NaN NaN b NaN NaN NaN NaN NaN NaN l NaN NaN b NaN NaN NaN NaN NaN NaN l NaN NaN b NaN NaN NaN NaN NaN NaN z "},"㉲":{"ha":0,"x_min":0,"x_max":0,"o":"m -208 -53 l -208 -262 l -525 -262 b -464 -321 -525 -307 -508 -321 l -254 -321 b -193 -262 -210 -321 -193 -307 l -193 54 b -254 113 -193 99 -210 113 z m -443 47 l -275 47 b -265 38 -269 47 -265 44 l -265 -246 b -275 -257 -265 -254 -269 -257 l -443 -257 b -453 -246 -450 -257 -453 -254 l -453 38 b -443 47 -453 44 -450 47 z "},"㉳":{"ha":0,"x_min":0,"x_max":0,"o":"m -442 -46 b -478 -76 -460 -46 -478 -54 l -478 -429 b -417 -487 -478 -474 -461 -487 l -208 -487 b -147 -429 -164 -487 -147 -474 l -147 -76 b -183 -46 -147 -54 -164 -46 b -219 -76 -201 -46 -219 -54 l -219 -211 l -406 -211 l -406 -76 b -442 -46 -406 -54 -422 -46 z m -406 -412 l -406 -275 l -219 -275 l -219 -412 b -229 -422 -219 -419 -222 -422 l -396 -422 b -406 -412 -403 -422 -406 -419 z "},"㉴":{"ha":0,"x_min":0,"x_max":0,"o":""},"㉵":{"ha":0,"x_min":0,"x_max":0,"o":"m -314 -40 b -493 -269 -431 -40 -493 -121 b -314 -499 -493 -418 -431 -499 b -135 -269 -196 -499 -135 -418 b -314 -40 -135 -121 -196 -40 z m -314 -107 b -206 -269 -239 -107 -206 -165 b -314 -433 -206 -374 -239 -433 b -421 -269 -389 -433 -421 -374 b -314 -107 -421 -165 -389 -107 z "},"㉶":{"ha":0,"x_min":0,"x_max":0,"o":"b NaN NaN -22 0 NaN NaN l NaN NaN b NaN NaN NaN NaN NaN NaN l NaN NaN l NaN NaN b NaN NaN NaN NaN NaN NaN m NaN NaN l NaN NaN b NaN NaN NaN NaN NaN NaN b NaN NaN NaN NaN NaN NaN l NaN NaN l NaN NaN b NaN NaN NaN NaN NaN NaN b NaN NaN NaN NaN NaN NaN b NaN NaN NaN NaN NaN NaN b NaN NaN NaN NaN NaN NaN b NaN NaN NaN NaN NaN NaN b NaN NaN NaN NaN NaN NaN b NaN NaN NaN NaN NaN NaN b NaN NaN NaN NaN NaN NaN b NaN NaN NaN NaN NaN NaN b NaN NaN NaN NaN NaN NaN b NaN NaN NaN NaN NaN NaN b NaN NaN NaN NaN NaN NaN l NaN NaN l NaN NaN b NaN NaN NaN NaN NaN NaN b NaN NaN NaN NaN NaN NaN z "},"㉷":{"ha":0,"x_min":0,"x_max":0,"o":""},"㉸":{"ha":0,"x_min":0,"x_max":0,"o":"l 0 -214 l -18 -214 l -18 -232 l -104 -232 l -343 -242 b -368 -276 -361 -242 -369 -260 b -337 -310 -367 -297 -357 -311 l -110 -296 b -344 -479 -125 -343 -185 -389 b -351 -528 -362 -489 -362 -511 b -308 -540 -342 -543 -324 -549 b -33 -226 -71 -397 -33 -357 "},"㉹":{"ha":0,"x_min":0,"x_max":0,"o":"b NaN NaN -24 0 NaN NaN l NaN NaN b NaN NaN NaN NaN NaN NaN l NaN NaN l NaN NaN l NaN NaN l NaN NaN l NaN NaN l NaN NaN l NaN NaN b NaN NaN NaN NaN NaN NaN b NaN NaN NaN NaN NaN NaN b NaN NaN NaN NaN NaN NaN b NaN NaN NaN NaN NaN NaN l NaN NaN l NaN NaN l NaN NaN l NaN NaN l NaN NaN l NaN NaN l NaN NaN b NaN NaN NaN NaN NaN NaN b NaN NaN NaN NaN NaN NaN l NaN NaN l NaN NaN b NaN NaN NaN NaN NaN NaN "},"㉺":{"ha":0,"x_min":0,"x_max":0,"o":""},"㉻":{"ha":0,"x_min":0,"x_max":0,"o":""},"ⓐ":{"ha":0,"x_min":0,"x_max":0,"o":""},"ⓑ":{"ha":0,"x_min":0,"x_max":0,"o":""},"ⓒ":{"ha":0,"x_min":0,"x_max":0,"o":""},"ⓓ":{"ha":0,"x_min":0,"x_max":0,"o":""},"ⓔ":{"ha":0,"x_min":0,"x_max":0,"o":""},"ⓕ":{"ha":0,"x_min":0,"x_max":0,"o":""},"ⓖ":{"ha":0,"x_min":0,"x_max":0,"o":""},"ⓗ":{"ha":0,"x_min":0,"x_max":0,"o":""},"ⓘ":{"ha":0,"x_min":0,"x_max":0,"o":"m 0 -187 "},"ⓙ":{"ha":0,"x_min":0,"x_max":0,"o":""},"ⓚ":{"ha":0,"x_min":0,"x_max":0,"o":""},"ⓛ":{"ha":0,"x_min":0,"x_max":0,"o":"m 0 -165 "},"ⓜ":{"ha":0,"x_min":0,"x_max":0,"o":""},"ⓝ":{"ha":0,"x_min":0,"x_max":0,"o":""},"ⓞ":{"ha":0,"x_min":0,"x_max":0,"o":"m 0 -257 "},"ⓟ":{"ha":0,"x_min":0,"x_max":0,"o":""},"ⓠ":{"ha":0,"x_min":0,"x_max":0,"o":""},"ⓡ":{"ha":0,"x_min":0,"x_max":0,"o":""},"ⓢ":{"ha":0,"x_min":0,"x_max":0,"o":""},"ⓣ":{"ha":0,"x_min":0,"x_max":0,"o":""},"ⓤ":{"ha":0,"x_min":0,"x_max":0,"o":""},"ⓥ":{"ha":0,"x_min":0,"x_max":0,"o":""},"ⓦ":{"ha":0,"x_min":0,"x_max":0,"o":""},"ⓧ":{"ha":0,"x_min":0,"x_max":0,"o":""},"ⓨ":{"ha":0,"x_min":0,"x_max":0,"o":""},"ⓩ":{"ha":0,"x_min":0,"x_max":0,"o":""},"①":{"ha":0,"x_min":0,"x_max":0,"o":""},"②":{"ha":0,"x_min":0,"x_max":0,"o":""},"③":{"ha":0,"x_min":0,"x_max":0,"o":""},"④":{"ha":0,"x_min":0,"x_max":0,"o":""},"⑤":{"ha":0,"x_min":0,"x_max":0,"o":""},"⑥":{"ha":0,"x_min":0,"x_max":0,"o":""},"⑦":{"ha":0,"x_min":0,"x_max":0,"o":""},"⑧":{"ha":0,"x_min":0,"x_max":0,"o":""},"⑨":{"ha":0,"x_min":0,"x_max":0,"o":"b -143 61 0 6 -185 39 "},"⑩":{"ha":0,"x_min":0,"x_max":0,"o":""},"⑪":{"ha":0,"x_min":0,"x_max":0,"o":""},"⑫":{"ha":0,"x_min":0,"x_max":0,"o":""},"⑬":{"ha":0,"x_min":0,"x_max":0,"o":""},"⑭":{"ha":0,"x_min":0,"x_max":0,"o":""},"⑮":{"ha":0,"x_min":0,"x_max":0,"o":""},"½":{"ha":0,"x_min":0,"x_max":0,"o":"m -546 0 z m 133 -397 b -49 -500 50 -397 -14 -440 b -86 -507 -49 -512 -68 -507 b -81 -501 -69 -507 -81 -489 b -147 -632 -81 -544 -96 -574 l -356 -861 b -381 -907 -374 -882 -381 -894 b -326 -949 -381 -935 -365 -949 l -8 -949 b 22 -912 13 -949 22 -932 b -8 -876 22 -893 13 -876 l -271 -876 l -86 -674 b -3 -501 -26 -608 -3 -564 l -3 -494 b -185 -339 -3 -406 -64 -339 z "},"⅓":{"ha":849,"x_min":0,"x_max":0,"o":"m -547 0 "},"⅔":{"ha":903,"x_min":0,"x_max":0,"o":"m -625 6 b -807 -97 -708 6 -772 -37 b -846 -104 -807 -110 -826 -104 b -840 -97 -829 -104 -840 -86 b -907 -228 -840 -142 -856 -169 l -1115 -458 b -1140 -503 -1133 -478 -1140 -490 b -1086 -546 -1140 -531 -1125 -546 l -782 -546 b -751 -510 -761 -546 -751 -528 b -782 -474 -751 -489 -761 -474 l -1031 -474 l -846 -271 b -762 -99 -786 -206 -762 -161 l -762 -90 b -944 65 -762 -1 -824 65 "},"¼":{"ha":-11,"x_min":0,"x_max":0,"o":"m 892 1003 b 836 986 871 1014 847 1010 l 360 46 z m -231 46 "},"¾":{"ha":0,"x_min":0,"x_max":0,"o":"m 926 1003 b 871 986 906 1014 882 1010 l 394 46 "},"⅛":{"ha":0,"x_min":0,"x_max":0,"o":"m -546 0 "},"⅜":{"ha":0,"x_min":0,"x_max":0,"o":""},"⅝":{"ha":894,"x_min":0,"x_max":0,"o":"m -479 -1 l -715 -1 b -779 -65 -761 -1 -776 -18 l -794 -315 b -760 -349 -796 -336 -781 -349 b -718 -332 -742 -349 -731 -343 b -614 -290 -690 -307 -657 -290 b -490 -412 -536 -290 -490 -331 l -490 -417 b -622 -537 -490 -490 -540 -537 b -764 -493 -676 -537 -724 -519 b -814 -504 -782 -482 -801 -486 b -804 -556 -826 -524 -824 -543 b -622 -610 -760 -587 -696 -610 b -412 -418 -492 -610 -412 -531 l -412 -410 b -599 -224 -412 -294 -482 -224 b -717 -268 -644 -224 -689 -242 l -704 -74 l -479 -74 b -447 -37 -457 -74 -447 -58 b -479 -1 -447 -18 -457 -1 "},"⅞":{"ha":0,"x_min":0,"x_max":0,"o":"m -400 -1 l -736 -1 b -767 -37 -757 -1 -767 -19 b -736 -74 -767 -57 -757 -74 l -435 -74 l -656 -553 b -637 -601 -665 -576 -657 -593 b -585 -585 -618 -611 -596 -607 l -365 -101 b -347 -44 -350 -68 -347 -58 b -400 -1 -347 -15 -361 -1 "},"æ":{"ha":406,"x_min":0,"x_max":0,"o":"m 378 742 b 386 706 290 647 325 706 b NaN NaN 411 706 482 NaN b NaN NaN NaN NaN NaN NaN l NaN NaN l NaN NaN b NaN NaN NaN NaN NaN NaN l NaN NaN b NaN NaN NaN NaN NaN NaN b NaN NaN NaN NaN NaN NaN b NaN NaN NaN NaN NaN NaN b NaN NaN NaN NaN NaN NaN b NaN NaN NaN NaN NaN NaN b NaN NaN NaN NaN NaN NaN l NaN NaN l NaN NaN b NaN NaN NaN NaN NaN NaN l NaN NaN b NaN NaN NaN NaN NaN NaN b NaN NaN NaN NaN NaN NaN b NaN NaN NaN NaN NaN NaN z m NaN NaN b NaN NaN NaN NaN NaN NaN l NaN NaN l NaN NaN l NaN NaN b NaN NaN NaN NaN NaN NaN z m NaN NaN l NaN NaN l NaN NaN b NaN NaN NaN NaN NaN NaN b NaN NaN NaN NaN NaN NaN b NaN NaN NaN NaN NaN NaN l NaN NaN b NaN NaN NaN NaN NaN NaN z "},"đ":{"ha":0,"x_min":0,"x_max":0,"o":"l 0 -11 l 651 -11 l 651 -83 l 457 -83 b 429 -118 439 -83 429 -99 b 457 -153 429 -137 439 -153 l 651 -153 l 651 -360 b 432 -261 617 -303 535 -261 b 518 -99 432 -174 481 -99 l 521 -99 l 521 -176 l 521 -204 l 544 -204 l 544 606 l 618 606 b 646 640 638 606 646 621 b 618 675 646 660 638 675 "},"ð":{"ha":-18,"x_min":0,"x_max":0,"o":"m 300 1042 b 250 1025 279 1053 258 1044 b 224 1089 239 1006 244 1047 b 121 NaN 201 1125 176 992 l NaN NaN b NaN NaN NaN NaN NaN NaN b NaN NaN NaN NaN NaN NaN l NaN NaN b NaN NaN NaN NaN NaN NaN b NaN NaN NaN NaN NaN NaN b NaN NaN NaN NaN NaN NaN l NaN NaN b NaN NaN NaN NaN NaN NaN b NaN NaN NaN NaN NaN NaN l NaN NaN b NaN NaN NaN NaN NaN NaN l NaN NaN b NaN NaN NaN NaN NaN NaN b NaN NaN NaN NaN NaN NaN l NaN NaN b NaN NaN NaN NaN NaN NaN z m NaN NaN b NaN NaN NaN NaN NaN NaN l NaN NaN b NaN NaN NaN NaN NaN NaN b NaN NaN NaN NaN NaN NaN l NaN NaN b NaN NaN NaN NaN NaN NaN z "},"ħ":{"ha":0,"x_min":0,"x_max":0,"o":"l 0 0 l 183 0 l 183 1033 l 110 1033 l 110 953 b 82 918 90 953 82 938 b 110 883 82 899 90 883 l 190 883 l 190 75 l 419 75 l 419 265 b 447 300 439 265 447 281 b 419 335 447 319 439 335 l 229 335 l 229 408 b 181 449 229 436 206 449 "},"ı":{"ha":-501,"x_min":0,"x_max":0,"o":"m 171 732 "},"ĳ":{"ha":-183,"x_min":0,"x_max":0,"o":"m 174 996 z m 486 996 z m 799 996 l 799 683 l 60 683 z "},"ĸ":{"ha":0,"x_min":0,"x_max":0,"o":"l 0 -83 l 171 -83 l 171 649 l -478 649 l -478 869 b NaN NaN -357 981 -699 NaN l NaN NaN "},"ŀ":{"ha":-253,"x_min":0,"x_max":0,"o":"m 264 -429 b 1468 -429 435 -429 1468 -1379 b 1392 -510 1468 -475 1435 -510 b 1381 -499 1347 -510 1381 -544 b 1460 -419 1381 -454 1415 -419 b 1468 -429 1503 -419 1468 -385 z "},"ł":{"ha":0,"x_min":0,"x_max":0,"o":"l 0 -376 l 235 -376 l 235 657 l -211 657 l -346 581 b -356 535 -364 571 -364 550 b -312 519 -344 517 -329 510 l -211 576 l -211 153 l 269 153 l 401 228 b 411 274 418 236 419 256 b 367 289 400 290 385 299 l 269 235 "},"ø":{"ha":-14,"x_min":0,"x_max":0,"o":"m 414 742 b 88 397 213 742 88 624 l 88 339 b 144 119 88 249 108 174 l 86 54 b 92 10 74 39 79 21 b 138 8 106 -3 125 -7 l 190 68 b 414 -6 246 18 322 -6 b 740 339 615 -6 740 113 l 740 397 b 679 621 740 490 718 565 l 742 692 b 735 735 754 706 747 724 b 690 736 721 747 703 751 l 633 672 b 414 742 578 718 503 742 z m 414 653 b 569 600 478 653 531 636 l 217 197 b 189 344 199 236 189 285 l 189 392 b 414 653 189 572 271 653 z m 254 139 l 608 544 b 639 392 628 506 639 454 l 639 344 b 414 83 639 164 557 83 b 254 139 347 83 293 101 z "},"œ":{"ha":464,"x_min":0,"x_max":0,"o":"m 397 742 b 83 397 203 742 83 624 l 83 339 b 397 -6 83 113 203 -6 b 664 144 529 -6 622 54 b 928 -6 703 54 796 -6 b 864 83 1010 101 949 83 b 644 329 724 83 644 165 l 644 338 l 1076 338 b 1157 414 1135 338 1157 360 l 1157 417 b 854 744 1156 628 1040 744 b 594 596 731 744 639 690 b 328 744 549 689 457 744 z m 853 660 b 1058 428 986 660 1058 575 l 1058 417 l 644 417 l 644 424 b 853 660 644 574 722 660 z m 328 656 b 325 714 328 792 406 714 b 53 714 189 714 53 636 b NaN NaN 53 794 189 NaN z "},"ß":{"ha":-7,"x_min":0,"x_max":0,"o":"m 414 1050 b 121 768 253 1050 121 968 l 121 42 l 839 42 b 1032 246 839 186 918 246 b 1190 146 1151 246 1190 206 l 1190 131 b 988 -169 1190 8 988 -26 l 988 -182 b 1164 -378 988 -276 1049 -324 b 1275 -503 1240 -414 1275 -444 l 1275 -517 b 1143 -639 1275 -594 1236 -639 b 997 -589 1092 -639 1039 -618 b 939 -604 974 -575 954 -581 b 949 -665 926 -625 926 -651 b 1144 -724 999 -700 1067 -724 b 1374 -518 1292 -724 1374 -637 l 1374 -499 b 1206 -303 1374 -392 1300 -347 b 1086 -179 1108 -254 1086 -228 l 1086 -171 b 1292 136 1086 -65 1292 -35 l 1292 153 b 1032 332 1292 246 1221 332 z "},"þ":{"ha":0,"x_min":0,"x_max":0,"o":"b 353 -1240 0 -21 171 -1240 b 372 -1528 254 -1240 372 -1432 b 286 -1693 372 -1619 326 -1693 "},"ŧ":{"ha":0,"x_min":0,"x_max":0,"o":"l 0 -301 l 214 -301 l 214 624 l 57 624 l 57 526 l 154 526 l 154 365 l 57 365 b 29 332 39 365 29 351 b 57 300 29 314 39 300 l 154 300 l 154 93 b 350 -124 154 -67 217 -124 b 456 -104 390 -124 429 -117 b 478 -49 478 -93 486 -72 b 428 -24 468 -24 449 -17 b 356 -37 406 -33 382 -37 b 254 101 279 -37 254 -6 l 254 300 l 422 300 b 450 332 440 300 450 314 b 422 365 450 351 440 365 l 254 365 l 254 526 l 431 526 "},"ŋ":{"ha":0,"x_min":0,"x_max":0,"o":"l 0 -32 l -508 -32 b -614 -168 -508 -136 -537 -168 b -685 -154 -640 -168 -664 -164 b -735 -179 -706 -147 -726 -154 b -714 -235 -744 -203 -736 -224 b -608 -254 -686 -247 -649 -254 b -408 -31 -481 -254 -408 -203 b NaN NaN -408 500 NaN NaN "},"ŉ":{"ha":99,"x_min":0,"x_max":0,"o":"m 158 1015 b 93 978 129 1019 99 1010 l 47 735 b 76 696 43 714 54 699 b 124 722 99 692 117 699 l 197 956 b 158 1015 207 988 189 1010 z m 568 742 b 332 621 444 742 360 676 b NaN -31 332 619 403 -31 z "},"㈀":{"ha":0,"x_min":0,"x_max":0,"o":""},"㈁":{"ha":0,"x_min":0,"x_max":0,"o":""},"㈂":{"ha":0,"x_min":0,"x_max":0,"o":""},"㈃":{"ha":0,"x_min":0,"x_max":0,"o":""},"㈄":{"ha":0,"x_min":0,"x_max":0,"o":""},"㈅":{"ha":0,"x_min":0,"x_max":0,"o":""},"㈆":{"ha":0,"x_min":0,"x_max":0,"o":"m -376 -269 "},"㈇":{"ha":0,"x_min":0,"x_max":0,"o":"m -376 -296 "},"㈈":{"ha":0,"x_min":0,"x_max":0,"o":""},"㈉":{"ha":0,"x_min":0,"x_max":0,"o":"m -376 -237 "},"㈊":{"ha":0,"x_min":0,"x_max":0,"o":""},"㈋":{"ha":0,"x_min":0,"x_max":0,"o":""},"㈌":{"ha":0,"x_min":0,"x_max":0,"o":""},"㈍":{"ha":0,"x_min":0,"x_max":0,"o":"m -376 -232 "},"㈎":{"ha":0,"x_min":0,"x_max":0,"o":"l 0 -182 l -208 -182 l -208 -403 l -228 -403 l -228 -422 l -292 -422 b -532 -679 -292 -519 -324 -549 b -539 -726 -550 -689 -549 -711 b -493 -737 -529 -740 -511 -749 b -221 -424 -276 -604 -221 -550 "},"㈏":{"ha":-182,"x_min":0,"x_max":0,"o":"m -436 -46 b -687 -72 -644 -46 -664 -64 l -687 -421 b -628 -479 -687 -465 -672 -479 b -314 -461 -486 -479 -392 -475 b -290 -422 -293 -457 -287 -440 b -322 -396 -293 -404 -304 -393 l -322 -410 l -403 -410 l -403 -510 l -407 -510 l -407 -611 l -75 -611 b -111 -579 -75 -587 -93 -579 z "},"㈐":{"ha":0,"x_min":0,"x_max":0,"o":"l 0 -182 l -208 -182 l -208 -347 l -260 -347 l -260 -665 b -199 -725 -260 -710 -243 -725 b 117 -707 -62 -725 43 -718 b 139 -669 135 -704 143 -689 b 107 -643 136 -650 126 -640 l 107 -654 l 17 -654 l 17 -742 l 11 -742 l 11 -849 l 296 -849 b 315 -843 315 -849 335 -857 "},"㈑":{"ha":24,"x_min":0,"x_max":0,"o":"b -206 NaN -182 0 -206 NaN l -206 NaN b NaN NaN -206 NaN -183 NaN l NaN NaN l NaN NaN m NaN NaN l NaN NaN l NaN NaN b NaN NaN NaN NaN NaN NaN b NaN NaN NaN NaN NaN NaN l NaN NaN b NaN NaN NaN NaN NaN NaN l NaN NaN b NaN NaN NaN NaN NaN NaN l NaN NaN l NaN NaN b NaN NaN NaN NaN NaN NaN b NaN NaN NaN NaN NaN NaN b NaN NaN NaN NaN NaN NaN b NaN NaN NaN NaN NaN NaN l NaN NaN l NaN NaN l NaN NaN l NaN NaN l NaN NaN l NaN NaN b NaN NaN NaN NaN NaN NaN l NaN NaN b NaN NaN NaN NaN NaN NaN l NaN NaN b NaN NaN NaN NaN NaN NaN z "},"㈒":{"ha":-182,"x_min":0,"x_max":0,"o":"m -208 -53 l -208 -261 l -418 -261 l -418 -578 b -357 -636 -418 -622 -401 -636 l -147 -636 b -86 -578 -103 -636 -86 -622 l -86 -261 b -147 -203 -86 -217 -103 -203 z m -336 -268 l -168 -268 b -158 -278 -162 -268 -158 -271 l -158 -561 b -168 -572 -158 -569 -162 -572 l -336 -572 b -346 -561 -343 -572 -346 -569 l -346 -278 b -336 -268 -346 -271 -343 -268 z "},"㈓":{"ha":-182,"x_min":0,"x_max":0,"o":"m -442 -46 b -690 -72 -650 -46 -668 -64 l -690 -425 b -629 -483 -690 -469 -674 -483 l -421 -483 b -360 -425 -376 -483 -360 -469 l -360 -72 b -396 -42 -360 -50 -376 -42 b -432 -72 -414 -42 -432 -50 l -432 -207 l -618 -207 l -618 -72 b -654 -42 -618 -50 -635 -42 z m -618 -408 l -618 -271 l -432 -271 l -432 -408 b -442 -418 -432 -415 -435 -418 l -608 -418 b -618 -408 -615 -418 -618 -415 z "},"㈔":{"ha":0,"x_min":0,"x_max":0,"o":""},"㈕":{"ha":-182,"x_min":0,"x_max":0,"o":"m -314 -40 b -639 -183 -522 -40 -639 -103 b -868 -269 -639 -332 -787 -269 b -633 -128 -751 -269 -633 -208 b -404 -158 -633 21 -485 -40 z m -404 -225 b -296 -387 -329 -225 -296 -283 b -404 -551 -296 -492 -329 -551 b -511 -387 -479 -551 -511 -492 b -404 -225 -511 -283 -479 -225 z "},"㈖":{"ha":21,"x_min":0,"x_max":0,"o":"m -182 -208 z m -308 -262 l -300 -262 l -300 -247 l -282 -247 l -282 -229 l -290 -229 l -290 -214 l -311 -214 l -311 -550 b -339 -583 -331 -550 -339 -564 b -311 -617 -339 -601 -331 -617 l -178 -617 l -178 -693 b -236 -836 -178 -757 -190 -789 b -342 -935 -265 -867 -300 -899 b -342 -982 -357 -947 -354 -968 b -293 -985 -329 -994 -311 -1000 b -196 -893 -258 -953 -225 -924 b -142 -819 -165 -864 -149 -842 b -214 -743 -164 -801 -185 -772 b -296 -668 -243 -711 -274 -686 b -293 -624 -310 -651 -307 -637 b -247 -671 -279 -622 -261 -637 b -158 NaN -217 -701 -189 -732 b -217 NaN -206 NaN -217 NaN l -217 NaN l -87 NaN b -60 NaN -69 NaN -60 NaN b -87 NaN -60 NaN -69 NaN z "},"㈗":{"ha":0,"x_min":0,"x_max":0,"o":""},"㈘":{"ha":0,"x_min":0,"x_max":0,"o":"l 0 -182 l -208 -182 l -208 -396 l -226 -396 l -226 -414 l -312 -414 l -551 -424 b -576 -458 -569 -424 -578 -442 b -546 -492 -575 -479 -565 -493 l -318 -478 b -553 -661 -333 -525 -393 -571 b -560 -710 -571 -671 -571 -693 b -517 -722 -550 -725 -532 -731 b -242 -408 -279 -579 -242 -539 "},"㈙":{"ha":0,"x_min":0,"x_max":0,"o":"b -206 NaN -182 0 -206 NaN l -206 NaN b NaN NaN -206 NaN -183 NaN l NaN NaN l NaN NaN l NaN NaN l NaN NaN l NaN NaN l NaN NaN l NaN NaN b NaN NaN NaN NaN NaN NaN b NaN NaN NaN NaN NaN NaN b NaN NaN NaN NaN NaN NaN b NaN NaN NaN NaN NaN NaN l NaN NaN l NaN NaN l NaN NaN l NaN NaN l NaN NaN l NaN NaN l NaN NaN b NaN NaN NaN NaN NaN NaN b NaN NaN NaN NaN NaN NaN l NaN NaN l NaN NaN b NaN NaN NaN NaN NaN NaN "},"㈚":{"ha":708,"x_min":0,"x_max":0,"o":"m -453 265 b NaN NaN 304 250 314 232 b NaN NaN NaN NaN NaN NaN b NaN NaN NaN NaN NaN NaN b NaN NaN NaN NaN NaN NaN b NaN NaN NaN NaN NaN NaN b NaN NaN NaN NaN NaN NaN b NaN NaN NaN NaN NaN NaN b NaN NaN NaN NaN NaN NaN z m NaN NaN b NaN NaN NaN NaN NaN NaN b NaN NaN NaN NaN NaN NaN b NaN NaN NaN NaN NaN NaN b NaN NaN NaN NaN NaN NaN b NaN NaN NaN NaN NaN NaN b NaN NaN NaN NaN NaN NaN b NaN NaN NaN NaN NaN NaN b NaN NaN NaN NaN NaN NaN "},"㈛":{"ha":0,"x_min":0,"x_max":0,"o":""},"⒜":{"ha":0,"x_min":0,"x_max":0,"o":""},"⒝":{"ha":0,"x_min":0,"x_max":0,"o":""},"⒞":{"ha":0,"x_min":0,"x_max":0,"o":""},"⒟":{"ha":0,"x_min":0,"x_max":0,"o":""},"⒠":{"ha":0,"x_min":0,"x_max":0,"o":""},"⒡":{"ha":0,"x_min":0,"x_max":0,"o":""},"⒢":{"ha":0,"x_min":0,"x_max":0,"o":""},"⒣":{"ha":0,"x_min":0,"x_max":0,"o":""},"⒤":{"ha":0,"x_min":0,"x_max":0,"o":"m -376 -208 "},"⒥":{"ha":0,"x_min":0,"x_max":0,"o":""},"⒦":{"ha":0,"x_min":0,"x_max":0,"o":""},"⒧":{"ha":0,"x_min":0,"x_max":0,"o":"m -376 -186 "},"⒨":{"ha":0,"x_min":0,"x_max":0,"o":""},"⒩":{"ha":0,"x_min":0,"x_max":0,"o":""},"⒪":{"ha":0,"x_min":0,"x_max":0,"o":"m -376 -278 "},"⒫":{"ha":0,"x_min":0,"x_max":0,"o":""},"⒬":{"ha":0,"x_min":0,"x_max":0,"o":""},"⒭":{"ha":0,"x_min":0,"x_max":0,"o":""},"⒮":{"ha":0,"x_min":0,"x_max":0,"o":""},"⒯":{"ha":0,"x_min":0,"x_max":0,"o":""},"⒰":{"ha":0,"x_min":0,"x_max":0,"o":""},"⒱":{"ha":0,"x_min":0,"x_max":0,"o":""},"⒲":{"ha":0,"x_min":0,"x_max":0,"o":""},"⒳":{"ha":0,"x_min":0,"x_max":0,"o":""},"⒴":{"ha":0,"x_min":0,"x_max":0,"o":""},"⒵":{"ha":0,"x_min":0,"x_max":0,"o":""},"⑴":{"ha":0,"x_min":0,"x_max":0,"o":""},"⑵":{"ha":0,"x_min":0,"x_max":0,"o":""},"⑶":{"ha":0,"x_min":0,"x_max":0,"o":""},"⑷":{"ha":0,"x_min":0,"x_max":0,"o":""},"⑸":{"ha":0,"x_min":0,"x_max":0,"o":""},"⑹":{"ha":0,"x_min":0,"x_max":0,"o":""},"⑺":{"ha":0,"x_min":0,"x_max":0,"o":""},"⑻":{"ha":0,"x_min":0,"x_max":0,"o":""},"⑼":{"ha":0,"x_min":0,"x_max":0,"o":"b -162 -317 0 -371 -206 -339 "},"⑽":{"ha":0,"x_min":0,"x_max":0,"o":""},"⑾":{"ha":0,"x_min":0,"x_max":0,"o":""},"⑿":{"ha":0,"x_min":0,"x_max":0,"o":""},"⒀":{"ha":0,"x_min":0,"x_max":0,"o":""},"⒁":{"ha":0,"x_min":0,"x_max":0,"o":""},"⒂":{"ha":0,"x_min":0,"x_max":0,"o":""},"¹":{"ha":-287,"x_min":0,"x_max":0,"o":"m 315 1142 z "},"²":{"ha":-287,"x_min":0,"x_max":0,"o":"m 279 1147 b 97 1044 196 1147 133 1104 b 58 1039 97 1033 78 1039 b 64 1046 75 1039 64 1057 b -3 915 64 1001 50 974 l -210 685 b -235 640 -228 665 -235 653 b -181 597 -235 613 -221 597 l 138 597 l 138 618 l 147 618 l 147 636 l 165 636 l 165 657 l 156 657 l 156 672 l 164 672 b -19 828 164 761 101 828 z "},"³":{"ha":-287,"x_min":0,"x_max":0,"o":"m 272 1147 b 108 1069 197 1147 140 1115 b 113 1021 97 1054 97 1035 b 163 1022 128 1008 147 1006 b 272 1076 188 1053 222 1076 b 383 989 344 1076 382 1040 l 383 986 b 271 885 383 914 326 885 l 225 885 b 193 851 203 885 193 869 b 225 815 193 832 203 815 l 275 815 b 406 715 350 815 406 786 l 406 710 b 276 603 406 646 356 603 b 142 647 224 603 179 621 b 92 636 122 660 106 656 b 100 585 79 618 81 597 b 276 532 146 551 210 532 b 485 708 407 532 485 604 l 485 717 b 360 853 485 799 422 844 b 461 986 419 871 461 924 l 461 990 b 272 1147 461 1086 389 1147 z "},"⁴":{"ha":0,"x_min":0,"x_max":0,"o":"b 388 831 0 -287 388 847 b 383 783 388 806 383 796 b 372 821 358 783 372 803 b NaN 790 372 813 389 790 l NaN 790 l NaN 946 b NaN 981 NaN 969 NaN 981 b NaN 946 NaN 981 NaN 969 l NaN 790 l NaN 790 l NaN 1136 b NaN 1188 NaN 1156 NaN 1175 "},"ⁿ":{"ha":-211,"x_min":0,"x_max":0,"o":"m 346 1024 b 200 942 278 1024 222 988 l 200 983 b 163 1017 200 1007 182 1017 b 125 983 143 1017 125 1007 l 125 569 b 164 536 125 546 144 536 b 204 569 185 536 204 546 l 204 838 b 331 950 204 888 246 950 b 442 836 408 950 442 913 l 442 569 b 481 536 442 546 460 536 b 519 569 501 536 519 546 l 519 851 b 346 1024 519 957 457 1024 z "},"₁":{"ha":-287,"x_min":0,"x_max":0,"o":"m 315 461 b 269 446 303 461 289 457 l 115 349 b 104 297 97 339 93 314 b 154 283 114 281 135 272 l 278 363 l 278 -111 b 318 -144 278 -135 297 -144 b 357 -111 338 -144 357 -135 l 357 426 b 315 461 357 451 339 461 z "},"₂":{"ha":-287,"x_min":0,"x_max":0,"o":"m 279 467 b 97 364 196 467 133 424 b 60 358 97 353 78 358 b 65 364 76 358 65 376 b -1 233 65 321 51 292 l -208 4 b -233 -42 -226 -17 -233 -29 b -179 -83 -233 -69 -219 -83 l 139 -83 l 139 -62 l 149 -62 l 149 -46 l 168 -46 l 168 -26 l 158 -26 l 158 -10 l 165 -10 b -18 146 165 79 103 146 z "},"₃":{"ha":0,"x_min":0,"x_max":0,"o":""},"₄":{"ha":0,"x_min":0,"x_max":0,"o":"b 388 150 0 -287 388 167 b 383 104 388 126 383 115 b 372 142 357 104 372 124 b NaN 111 372 133 388 111 l NaN 111 l NaN 268 b NaN 301 NaN 292 NaN 301 b NaN 268 NaN 301 NaN 292 l NaN 111 l NaN 111 l NaN 457 b NaN 508 NaN 478 NaN 496 "},"ぁ":{"ha":0,"x_min":0,"x_max":0,"o":"m 758 -83 b 961 0 839 -68 910 -40 b 1064 206 1026 50 1064 124 b 967 407 1064 292 1032 358 b 704 478 900 456 813 478 b 511 446 642 478 576 467 b 519 601 511 496 513 549 b 888 626 646 604 768 614 l 888 700 b 525 671 767 682 646 672 b 540 832 528 714 532 768 l 463 832 b 449 669 456 775 450 708 l 244 669 l 244 596 l 442 596 b 435 421 439 558 435 469 b 261 296 360 388 301 344 b 200 129 219 244 200 188 b 363 -43 200 26 260 -43 b 599 86 426 -43 507 -3 b 831 400 686 171 763 279 b 986 206 935 361 986 297 b 893 50 986 144 956 92 b 724 -14 850 19 792 0 z m 551 140 b 514 374 531 222 518 307 b 758 413 571 400 667 417 b 551 140 694 304 622 211 z m 435 347 b 490 97 447 233 461 165 b 367 36 444 54 404 36 b 278 133 314 35 278 83 b 317 247 278 172 290 210 b 435 347 340 282 399 329 z "},"あ":{"ha":0,"x_min":0,"x_max":0,"o":"m 797 -67 b 1043 32 897 -49 981 -17 b 1168 290 1124 94 1168 178 b 1046 531 1168 392 1126 472 b 722 621 961 590 864 621 b 492 589 660 621 563 610 b 496 785 492 632 493 739 b 938 806 646 789 786 793 l 938 883 b 503 864 792 871 633 865 b 524 1054 508 932 514 994 l 436 1053 b 417 857 426 997 421 932 l 178 857 l 178 779 l 408 779 b 406 567 408 713 406 625 b 193 422 321 533 250 485 b 94 201 129 350 94 272 b 156 28 94 128 114 68 b 299 -28 192 -10 242 -28 b 594 117 390 -28 497 25 b 865 531 703 217 810 356 b 1014 449 935 513 976 486 b 1079 290 1057 404 1079 351 b 967 86 1079 204 1043 133 b 758 15 918 56 847 32 z m 538 169 b 492 508 506 271 493 403 b 779 543 557 533 676 549 b 538 169 726 407 647 267 z m 408 485 b 464 124 413 369 426 211 b 307 60 414 81 356 60 b 176 201 221 60 176 118 b 240 360 176 254 197 307 b 408 485 278 407 338 456 z "},"ぃ":{"ha":0,"x_min":0,"x_max":0,"o":"m 533 233 b 407 72 485 122 446 72 b 326 172 372 72 346 111 b 307 361 318 203 307 258 b 318 651 307 465 310 561 l 229 660 b 219 361 222 561 219 467 b 263 90 219 253 232 157 b 407 -21 296 18 349 -21 b 589 169 463 -21 524 31 z m 1044 142 b 882 596 1029 294 972 449 l 803 560 b 958 110 892 411 938 251 z "}}}
